STARTFONT 2.1
FONT -FontForge-Noto Mono-Book-R-Normal--16-150-75-75-P-99-ISO8859-1
SIZE 15 75 75
FONTBOUNDINGBOX 15 23 -3 -5
COMMENT "Generated by fontforge, http://fontforge.sourceforge.net"
COMMENT "Copyright 2007 Google Inc. All Rights Reserved."
STARTPROPERTIES 41
FOUNDRY "FontForge"
FAMILY_NAME "Noto Mono"
WEIGHT_NAME "Book"
SLANT "R"
SETWIDTH_NAME "Normal"
ADD_STYLE_NAME ""
PIXEL_SIZE 16
POINT_SIZE 150
RESOLUTION_X 75
RESOLUTION_Y 75
SPACING "P"
AVERAGE_WIDTH 99
CHARSET_REGISTRY "ISO8859"
CHARSET_ENCODING "1"
FONTNAME_REGISTRY ""
CHARSET_COLLECTIONS "ISO8859-2 ISO8859-5 ISO8859-7 ISO8859-9 ISO8859-4 ISOLatin1Encoding"
FONT_NAME "NotoMono"
FACE_NAME "Noto Mono"
COPYRIGHT "Copyright 2007 Google Inc. All Rights Reserved."
FONT_VERSION "1.00"
FONT_ASCENT 13
FONT_DESCENT 3
UNDERLINE_POSITION -2
UNDERLINE_THICKNESS 1
X_HEIGHT 8
CAP_HEIGHT 11
DEFAULT_CHAR 1
RAW_ASCENT 799
RAW_DESCENT 200
NORM_SPACE 10
RELATIVE_WEIGHT 40
RELATIVE_SETWIDTH 50
SUPERSCRIPT_X 0
SUPERSCRIPT_Y 7
SUPERSCRIPT_SIZE 10
SUBSCRIPT_X 0
SUBSCRIPT_Y 2
SUBSCRIPT_SIZE 10
FIGURE_WIDTH 10
AVG_LOWERCASE_WIDTH 100
AVG_UPPERCASE_WIDTH 100
ENDPROPERTIES
CHARS 897
STARTCHAR uni0000
ENCODING 0
SWIDTH 0 0
DWIDTH 0 0
BBX 1 1 0 0
BITMAP
00
ENDCHAR
STARTCHAR uni000D
ENCODING 13
SWIDTH 600 0
DWIDTH 10 0
BBX 1 1 0 0
BITMAP
00
ENDCHAR
STARTCHAR space
ENCODING 32
SWIDTH 600 0
DWIDTH 10 0
BBX 1 1 0 0
BITMAP
00
ENDCHAR
STARTCHAR exclam
ENCODING 33
SWIDTH 600 0
DWIDTH 10 0
BBX 2 12 4 0
BITMAP
C0
C0
C0
C0
C0
C0
C0
40
00
00
C0
C0
ENDCHAR
STARTCHAR quotedbl
ENCODING 34
SWIDTH 600 0
DWIDTH 10 0
BBX 6 4 2 8
BITMAP
CC
CC
CC
CC
ENDCHAR
STARTCHAR numbersign
ENCODING 35
SWIDTH 600 0
DWIDTH 10 0
BBX 10 12 0 0
BITMAP
0880
1980
1100
7FC0
1100
3300
2200
FF80
2200
2200
4400
4400
ENDCHAR
STARTCHAR dollar
ENCODING 36
SWIDTH 600 0
DWIDTH 10 0
BBX 7 14 2 -1
BITMAP
10
10
7E
D0
90
D0
70
1C
16
12
96
FC
10
10
ENDCHAR
STARTCHAR percent
ENCODING 37
SWIDTH 600 0
DWIDTH 10 0
BBX 10 12 0 0
BITMAP
7180
8900
8B00
8A00
7400
0400
0800
0B80
1440
3440
2440
6380
ENDCHAR
STARTCHAR ampersand
ENCODING 38
SWIDTH 600 0
DWIDTH 10 0
BBX 9 12 1 0
BITMAP
3800
6C00
4400
4400
2800
3100
7900
CB00
8600
C600
CF00
7980
ENDCHAR
STARTCHAR quotesingle
ENCODING 39
SWIDTH 600 0
DWIDTH 10 0
BBX 2 4 4 8
BITMAP
C0
C0
C0
C0
ENDCHAR
STARTCHAR parenleft
ENCODING 40
SWIDTH 600 0
DWIDTH 10 0
BBX 4 15 3 -3
BITMAP
10
30
60
40
C0
C0
C0
80
C0
C0
C0
40
60
30
10
ENDCHAR
STARTCHAR parenright
ENCODING 41
SWIDTH 600 0
DWIDTH 10 0
BBX 4 15 3 -3
BITMAP
80
C0
60
20
30
30
30
10
30
30
30
20
60
C0
80
ENDCHAR
STARTCHAR asterisk
ENCODING 42
SWIDTH 600 0
DWIDTH 10 0
BBX 7 7 1 6
BITMAP
10
10
92
FE
28
6C
64
ENDCHAR
STARTCHAR plus
ENCODING 43
SWIDTH 600 0
DWIDTH 10 0
BBX 7 7 1 2
BITMAP
10
10
10
FE
10
10
10
ENDCHAR
STARTCHAR comma
ENCODING 44
SWIDTH 600 0
DWIDTH 10 0
BBX 3 4 3 -2
BITMAP
60
60
C0
C0
ENDCHAR
STARTCHAR hyphen
ENCODING 45
SWIDTH 600 0
DWIDTH 10 0
BBX 6 1 2 4
BITMAP
FC
ENDCHAR
STARTCHAR period
ENCODING 46
SWIDTH 600 0
DWIDTH 10 0
BBX 2 2 4 0
BITMAP
C0
C0
ENDCHAR
STARTCHAR slash
ENCODING 47
SWIDTH 600 0
DWIDTH 10 0
BBX 6 12 2 0
BITMAP
0C
08
08
18
10
30
30
20
60
40
40
C0
ENDCHAR
STARTCHAR zero
ENCODING 48
SWIDTH 600 0
DWIDTH 10 0
BBX 8 12 1 0
BITMAP
3C
66
42
C3
C3
81
81
C3
C3
42
66
3C
ENDCHAR
STARTCHAR one
ENCODING 49
SWIDTH 600 0
DWIDTH 10 0
BBX 4 12 2 0
BITMAP
30
70
D0
10
10
10
10
10
10
10
10
10
ENDCHAR
STARTCHAR two
ENCODING 50
SWIDTH 600 0
DWIDTH 10 0
BBX 8 12 1 0
BITMAP
3C
E3
03
01
03
02
04
08
10
20
C0
FF
ENDCHAR
STARTCHAR three
ENCODING 51
SWIDTH 600 0
DWIDTH 10 0
BBX 8 12 1 0
BITMAP
7E
C3
03
03
06
38
06
03
01
03
86
FC
ENDCHAR
STARTCHAR four
ENCODING 52
SWIDTH 600 0
DWIDTH 10 0
BBX 9 12 1 0
BITMAP
0600
0E00
0A00
1A00
3200
2200
4200
C200
FF80
0200
0200
0200
ENDCHAR
STARTCHAR five
ENCODING 53
SWIDTH 600 0
DWIDTH 10 0
BBX 8 12 1 0
BITMAP
FE
C0
C0
80
80
FC
06
03
01
03
86
FC
ENDCHAR
STARTCHAR six
ENCODING 54
SWIDTH 600 0
DWIDTH 10 0
BBX 8 12 1 0
BITMAP
1E
30
40
C0
FC
E2
C3
81
C1
C3
66
3C
ENDCHAR
STARTCHAR seven
ENCODING 55
SWIDTH 600 0
DWIDTH 10 0
BBX 8 12 1 0
BITMAP
FF
03
02
02
06
04
0C
0C
18
18
10
30
ENDCHAR
STARTCHAR eight
ENCODING 56
SWIDTH 600 0
DWIDTH 10 0
BBX 8 12 1 0
BITMAP
3C
C3
81
C3
46
3C
66
C3
81
C3
C2
3C
ENDCHAR
STARTCHAR nine
ENCODING 57
SWIDTH 600 0
DWIDTH 10 0
BBX 8 12 1 0
BITMAP
3C
66
C3
83
81
C3
47
3F
03
02
04
78
ENDCHAR
STARTCHAR colon
ENCODING 58
SWIDTH 600 0
DWIDTH 10 0
BBX 2 9 4 0
BITMAP
C0
C0
00
00
00
00
00
C0
C0
ENDCHAR
STARTCHAR semicolon
ENCODING 59
SWIDTH 600 0
DWIDTH 10 0
BBX 3 11 3 -2
BITMAP
60
60
00
00
00
00
00
60
60
C0
C0
ENDCHAR
STARTCHAR less
ENCODING 60
SWIDTH 600 0
DWIDTH 10 0
BBX 8 8 1 2
BITMAP
01
06
38
E0
E0
38
06
01
ENDCHAR
STARTCHAR equal
ENCODING 61
SWIDTH 600 0
DWIDTH 10 0
BBX 8 5 1 3
BITMAP
FF
00
00
00
FF
ENDCHAR
STARTCHAR greater
ENCODING 62
SWIDTH 600 0
DWIDTH 10 0
BBX 8 8 1 2
BITMAP
80
60
1C
07
07
1C
60
80
ENDCHAR
STARTCHAR question
ENCODING 63
SWIDTH 600 0
DWIDTH 10 0
BBX 8 12 1 0
BITMAP
7C
C3
03
01
03
06
18
10
30
00
30
30
ENDCHAR
STARTCHAR at
ENCODING 64
SWIDTH 600 0
DWIDTH 10 0
BBX 10 13 0 -1
BITMAP
1E00
2180
4080
5E40
9240
A240
A240
A240
A6C0
DD80
4000
2000
1F00
ENDCHAR
STARTCHAR A
ENCODING 65
SWIDTH 600 0
DWIDTH 10 0
BBX 10 12 0 0
BITMAP
0C00
0C00
1E00
1200
1200
3300
2100
3F00
6180
4080
4080
C0C0
ENDCHAR
STARTCHAR B
ENCODING 66
SWIDTH 600 0
DWIDTH 10 0
BBX 8 12 1 0
BITMAP
FE
87
83
83
83
FC
86
83
83
83
86
FC
ENDCHAR
STARTCHAR C
ENCODING 67
SWIDTH 600 0
DWIDTH 10 0
BBX 8 12 1 0
BITMAP
1F
73
60
C0
C0
C0
C0
C0
C0
60
71
1F
ENDCHAR
STARTCHAR D
ENCODING 68
SWIDTH 600 0
DWIDTH 10 0
BBX 8 12 1 0
BITMAP
F8
8E
82
83
83
83
83
83
83
86
8C
F8
ENDCHAR
STARTCHAR E
ENCODING 69
SWIDTH 600 0
DWIDTH 10 0
BBX 7 12 2 0
BITMAP
FE
80
80
80
80
FE
80
80
80
80
80
FE
ENDCHAR
STARTCHAR F
ENCODING 70
SWIDTH 600 0
DWIDTH 10 0
BBX 7 12 2 0
BITMAP
FE
80
80
80
80
FE
80
80
80
80
80
80
ENDCHAR
STARTCHAR G
ENCODING 71
SWIDTH 600 0
DWIDTH 10 0
BBX 8 12 1 0
BITMAP
1E
72
40
C0
C0
C7
C1
C1
C1
41
73
3F
ENDCHAR
STARTCHAR H
ENCODING 72
SWIDTH 600 0
DWIDTH 10 0
BBX 8 12 1 0
BITMAP
81
81
81
81
81
FF
81
81
81
81
81
81
ENDCHAR
STARTCHAR I
ENCODING 73
SWIDTH 600 0
DWIDTH 10 0
BBX 6 12 2 0
BITMAP
FC
20
20
20
20
20
20
20
20
20
20
FC
ENDCHAR
STARTCHAR J
ENCODING 74
SWIDTH 600 0
DWIDTH 10 0
BBX 7 12 1 0
BITMAP
02
02
02
02
02
02
02
02
02
06
8C
F8
ENDCHAR
STARTCHAR K
ENCODING 75
SWIDTH 600 0
DWIDTH 10 0
BBX 9 12 1 0
BITMAP
8180
8300
8600
8C00
9800
B000
D800
8C00
8400
8600
8300
8180
ENDCHAR
STARTCHAR L
ENCODING 76
SWIDTH 600 0
DWIDTH 10 0
BBX 8 12 1 0
BITMAP
80
80
80
80
80
80
80
80
80
80
80
FF
ENDCHAR
STARTCHAR M
ENCODING 77
SWIDTH 600 0
DWIDTH 10 0
BBX 8 12 1 0
BITMAP
C3
C3
C3
C3
A5
A5
A5
A5
99
99
99
91
ENDCHAR
STARTCHAR N
ENCODING 78
SWIDTH 600 0
DWIDTH 10 0
BBX 8 12 1 0
BITMAP
C1
C1
A1
A1
91
91
89
89
85
85
83
83
ENDCHAR
STARTCHAR O
ENCODING 79
SWIDTH 600 0
DWIDTH 10 0
BBX 8 12 1 0
BITMAP
3C
66
42
C3
C3
C3
C3
C3
C3
42
66
3C
ENDCHAR
STARTCHAR P
ENCODING 80
SWIDTH 600 0
DWIDTH 10 0
BBX 8 12 1 0
BITMAP
FC
86
83
83
83
82
FC
80
80
80
80
80
ENDCHAR
STARTCHAR Q
ENCODING 81
SWIDTH 600 0
DWIDTH 10 0
BBX 8 15 1 -3
BITMAP
3C
66
42
C3
C3
C3
C3
C3
C3
42
66
3C
04
02
01
ENDCHAR
STARTCHAR R
ENCODING 82
SWIDTH 600 0
DWIDTH 10 0
BBX 9 12 1 0
BITMAP
FC00
8600
8300
8300
8300
8200
FC00
8C00
8600
8200
8300
8180
ENDCHAR
STARTCHAR S
ENCODING 83
SWIDTH 600 0
DWIDTH 10 0
BBX 8 12 1 0
BITMAP
3F
E3
C0
C0
C0
78
0E
03
01
03
86
FC
ENDCHAR
STARTCHAR T
ENCODING 84
SWIDTH 600 0
DWIDTH 10 0
BBX 8 12 1 0
BITMAP
FF
10
10
10
10
10
10
10
10
10
10
10
ENDCHAR
STARTCHAR U
ENCODING 85
SWIDTH 600 0
DWIDTH 10 0
BBX 8 12 1 0
BITMAP
81
81
81
81
81
81
81
81
C3
C3
66
3C
ENDCHAR
STARTCHAR V
ENCODING 86
SWIDTH 600 0
DWIDTH 10 0
BBX 10 12 0 0
BITMAP
C0C0
4080
4080
6180
2100
2100
3300
1200
1200
1E00
0C00
0C00
ENDCHAR
STARTCHAR W
ENCODING 87
SWIDTH 600 0
DWIDTH 10 0
BBX 10 12 0 0
BITMAP
8040
C040
C0C0
C0C0
4C80
4C80
4C80
5280
5280
5280
6180
2100
ENDCHAR
STARTCHAR X
ENCODING 88
SWIDTH 600 0
DWIDTH 10 0
BBX 10 12 0 0
BITMAP
C0C0
6180
2100
3300
1E00
0C00
0C00
1E00
3300
2100
4180
C0C0
ENDCHAR
STARTCHAR Y
ENCODING 89
SWIDTH 600 0
DWIDTH 10 0
BBX 9 12 0 0
BITMAP
C080
4180
6100
2200
1200
1400
0C00
0800
0800
0800
0800
0800
ENDCHAR
STARTCHAR Z
ENCODING 90
SWIDTH 600 0
DWIDTH 10 0
BBX 8 12 1 0
BITMAP
FF
03
02
04
0C
08
10
30
20
40
C0
FF
ENDCHAR
STARTCHAR bracketleft
ENCODING 91
SWIDTH 600 0
DWIDTH 10 0
BBX 4 15 4 -3
BITMAP
F0
80
80
80
80
80
80
80
80
80
80
80
80
80
F0
ENDCHAR
STARTCHAR backslash
ENCODING 92
SWIDTH 600 0
DWIDTH 10 0
BBX 6 12 2 0
BITMAP
C0
40
40
60
20
30
30
10
18
08
08
0C
ENDCHAR
STARTCHAR bracketright
ENCODING 93
SWIDTH 600 0
DWIDTH 10 0
BBX 4 15 2 -3
BITMAP
F0
10
10
10
10
10
10
10
10
10
10
10
10
10
F0
ENDCHAR
STARTCHAR asciicircum
ENCODING 94
SWIDTH 600 0
DWIDTH 10 0
BBX 8 7 1 5
BITMAP
18
18
24
24
46
42
83
ENDCHAR
STARTCHAR underscore
ENCODING 95
SWIDTH 600 0
DWIDTH 10 0
BBX 10 1 0 -2
BITMAP
FFC0
ENDCHAR
STARTCHAR grave
ENCODING 96
SWIDTH 600 0
DWIDTH 10 0
BBX 3 3 4 10
BITMAP
C0
40
20
ENDCHAR
STARTCHAR a
ENCODING 97
SWIDTH 600 0
DWIDTH 10 0
BBX 8 9 1 0
BITMAP
7E
43
03
01
3F
C1
83
C7
7D
ENDCHAR
STARTCHAR b
ENCODING 98
SWIDTH 600 0
DWIDTH 10 0
BBX 8 13 1 0
BITMAP
80
80
80
80
BC
E6
C3
83
81
83
C3
E6
BC
ENDCHAR
STARTCHAR c
ENCODING 99
SWIDTH 600 0
DWIDTH 10 0
BBX 8 9 1 0
BITMAP
3F
61
C0
C0
80
C0
C0
61
3F
ENDCHAR
STARTCHAR d
ENCODING 100
SWIDTH 600 0
DWIDTH 10 0
BBX 8 13 1 0
BITMAP
01
01
01
01
3D
67
C3
C1
81
C1
C3
67
3D
ENDCHAR
STARTCHAR e
ENCODING 101
SWIDTH 600 0
DWIDTH 10 0
BBX 8 9 1 0
BITMAP
3C
66
C3
C1
FF
80
C0
61
3E
ENDCHAR
STARTCHAR f
ENCODING 102
SWIDTH 600 0
DWIDTH 10 0
BBX 7 13 2 0
BITMAP
1E
30
20
20
FC
20
20
20
20
20
20
20
20
ENDCHAR
STARTCHAR g
ENCODING 103
SWIDTH 600 0
DWIDTH 10 0
BBX 9 13 0 -4
BITMAP
3F80
6300
4100
4100
6300
3E00
6000
4000
7F00
C180
8080
C180
7E00
ENDCHAR
STARTCHAR h
ENCODING 104
SWIDTH 600 0
DWIDTH 10 0
BBX 8 13 1 0
BITMAP
80
80
80
80
BE
E3
C3
81
81
81
81
81
81
ENDCHAR
STARTCHAR i
ENCODING 105
SWIDTH 600 0
DWIDTH 10 0
BBX 7 13 1 0
BITMAP
10
10
00
00
70
10
10
10
10
10
10
10
FE
ENDCHAR
STARTCHAR j
ENCODING 106
SWIDTH 600 0
DWIDTH 10 0
BBX 6 17 1 -4
BITMAP
0C
0C
00
00
7C
04
04
04
04
04
04
04
04
04
04
0C
F8
ENDCHAR
STARTCHAR k
ENCODING 107
SWIDTH 600 0
DWIDTH 10 0
BBX 7 13 2 0
BITMAP
80
80
80
80
84
88
90
A0
E0
90
88
84
86
ENDCHAR
STARTCHAR l
ENCODING 108
SWIDTH 600 0
DWIDTH 10 0
BBX 7 13 1 0
BITMAP
70
10
10
10
10
10
10
10
10
10
10
10
FE
ENDCHAR
STARTCHAR m
ENCODING 109
SWIDTH 600 0
DWIDTH 10 0
BBX 8 9 1 0
BITMAP
B6
DB
D9
99
99
99
99
99
99
ENDCHAR
STARTCHAR n
ENCODING 110
SWIDTH 600 0
DWIDTH 10 0
BBX 8 9 1 0
BITMAP
BE
E3
C3
81
81
81
81
81
81
ENDCHAR
STARTCHAR o
ENCODING 111
SWIDTH 600 0
DWIDTH 10 0
BBX 8 9 1 0
BITMAP
3C
66
C3
C3
81
C3
C3
66
3C
ENDCHAR
STARTCHAR p
ENCODING 112
SWIDTH 600 0
DWIDTH 10 0
BBX 8 13 1 -4
BITMAP
BC
E6
C3
83
81
83
C3
E6
BC
80
80
80
80
ENDCHAR
STARTCHAR q
ENCODING 113
SWIDTH 600 0
DWIDTH 10 0
BBX 8 13 1 -4
BITMAP
3D
67
C3
C1
81
C1
C3
67
3D
01
01
01
01
ENDCHAR
STARTCHAR r
ENCODING 114
SWIDTH 600 0
DWIDTH 10 0
BBX 7 9 2 0
BITMAP
9E
A2
C0
80
80
80
80
80
80
ENDCHAR
STARTCHAR s
ENCODING 115
SWIDTH 600 0
DWIDTH 10 0
BBX 6 9 2 0
BITMAP
7C
C4
80
E0
38
0C
04
8C
F8
ENDCHAR
STARTCHAR t
ENCODING 116
SWIDTH 600 0
DWIDTH 10 0
BBX 7 11 2 0
BITMAP
20
20
FE
20
20
20
20
20
20
30
1E
ENDCHAR
STARTCHAR u
ENCODING 117
SWIDTH 600 0
DWIDTH 10 0
BBX 8 9 1 0
BITMAP
81
81
81
81
81
81
C3
C7
7D
ENDCHAR
STARTCHAR v
ENCODING 118
SWIDTH 600 0
DWIDTH 10 0
BBX 8 9 1 0
BITMAP
C3
42
42
66
24
24
3C
18
18
ENDCHAR
STARTCHAR w
ENCODING 119
SWIDTH 600 0
DWIDTH 10 0
BBX 10 9 0 0
BITMAP
8C40
CCC0
4C80
5E80
5280
5280
5280
2300
2100
ENDCHAR
STARTCHAR x
ENCODING 120
SWIDTH 600 0
DWIDTH 10 0
BBX 8 9 1 0
BITMAP
43
66
24
18
18
3C
24
66
C3
ENDCHAR
STARTCHAR y
ENCODING 121
SWIDTH 600 0
DWIDTH 10 0
BBX 8 13 1 -4
BITMAP
C3
42
42
66
24
24
3C
18
18
18
10
30
E0
ENDCHAR
STARTCHAR z
ENCODING 122
SWIDTH 600 0
DWIDTH 10 0
BBX 6 9 2 0
BITMAP
FC
0C
08
10
30
20
40
C0
FC
ENDCHAR
STARTCHAR braceleft
ENCODING 123
SWIDTH 600 0
DWIDTH 10 0
BBX 6 15 2 -3
BITMAP
1C
30
20
20
20
20
20
C0
60
20
20
20
20
30
1C
ENDCHAR
STARTCHAR bar
ENCODING 124
SWIDTH 600 0
DWIDTH 10 0
BBX 1 17 4 -4
BITMAP
80
80
80
80
80
80
80
80
80
80
80
80
80
80
80
80
80
ENDCHAR
STARTCHAR braceright
ENCODING 125
SWIDTH 600 0
DWIDTH 10 0
BBX 6 15 2 -3
BITMAP
E0
30
10
10
10
10
10
0C
18
10
10
10
10
30
E0
ENDCHAR
STARTCHAR asciitilde
ENCODING 126
SWIDTH 600 0
DWIDTH 10 0
BBX 8 3 1 4
BITMAP
70
99
0E
ENDCHAR
STARTCHAR uni00A0
ENCODING 160
SWIDTH 600 0
DWIDTH 10 0
BBX 1 1 0 0
BITMAP
00
ENDCHAR
STARTCHAR exclamdown
ENCODING 161
SWIDTH 600 0
DWIDTH 10 0
BBX 2 12 4 -3
BITMAP
C0
C0
00
80
C0
C0
C0
C0
C0
C0
C0
C0
ENDCHAR
STARTCHAR cent
ENCODING 162
SWIDTH 600 0
DWIDTH 10 0
BBX 8 12 1 0
BITMAP
08
3F
61
C0
C0
80
C0
C0
61
3F
08
08
ENDCHAR
STARTCHAR sterling
ENCODING 163
SWIDTH 600 0
DWIDTH 10 0
BBX 8 12 1 0
BITMAP
1E
30
20
20
20
FC
20
20
20
20
60
FF
ENDCHAR
STARTCHAR currency
ENCODING 164
SWIDTH 600 0
DWIDTH 10 0
BBX 6 6 2 3
BITMAP
FC
CC
84
84
CC
FC
ENDCHAR
STARTCHAR yen
ENCODING 165
SWIDTH 600 0
DWIDTH 10 0
BBX 8 12 1 0
BITMAP
83
C2
46
64
2C
28
7E
10
10
7E
10
10
ENDCHAR
STARTCHAR brokenbar
ENCODING 166
SWIDTH 600 0
DWIDTH 10 0
BBX 1 17 4 -4
BITMAP
80
80
80
80
80
80
00
00
00
00
00
80
80
80
80
80
80
ENDCHAR
STARTCHAR section
ENCODING 167
SWIDTH 600 0
DWIDTH 10 0
BBX 6 13 2 0
BITMAP
7C
C0
80
E0
78
8C
84
CC
78
0C
04
8C
F8
ENDCHAR
STARTCHAR dieresis
ENCODING 168
SWIDTH 600 0
DWIDTH 10 0
BBX 5 2 2 11
BITMAP
88
88
ENDCHAR
STARTCHAR copyright
ENCODING 169
SWIDTH 600 0
DWIDTH 10 0
BBX 10 12 0 0
BITMAP
1E00
6180
4080
9E40
B040
A040
A040
B040
9E40
4080
6180
1E00
ENDCHAR
STARTCHAR ordfeminine
ENCODING 170
SWIDTH 600 0
DWIDTH 10 0
BBX 6 7 2 5
BITMAP
F8
04
04
7C
84
8C
74
ENDCHAR
STARTCHAR guillemotleft
ENCODING 171
SWIDTH 600 0
DWIDTH 10 0
BBX 6 7 2 1
BITMAP
24
6C
48
90
48
6C
24
ENDCHAR
STARTCHAR logicalnot
ENCODING 172
SWIDTH 600 0
DWIDTH 10 0
BBX 8 4 1 2
BITMAP
FF
01
01
01
ENDCHAR
STARTCHAR uni00AD
ENCODING 173
SWIDTH 600 0
DWIDTH 10 0
BBX 6 1 2 4
BITMAP
FC
ENDCHAR
STARTCHAR registered
ENCODING 174
SWIDTH 600 0
DWIDTH 10 0
BBX 10 12 0 0
BITMAP
1E00
6180
4080
9C40
9240
9240
9C40
9640
9240
4080
6180
1E00
ENDCHAR
STARTCHAR macron
ENCODING 175
SWIDTH 600 0
DWIDTH 10 0
BBX 10 1 0 13
BITMAP
FFC0
ENDCHAR
STARTCHAR degree
ENCODING 176
SWIDTH 600 0
DWIDTH 10 0
BBX 6 6 2 6
BITMAP
78
CC
84
84
CC
78
ENDCHAR
STARTCHAR plusminus
ENCODING 177
SWIDTH 600 0
DWIDTH 10 0
BBX 7 9 1 0
BITMAP
10
10
10
FE
10
10
10
00
FE
ENDCHAR
STARTCHAR uni00B2
ENCODING 178
SWIDTH 600 0
DWIDTH 10 0
BBX 5 7 2 5
BITMAP
F0
08
08
10
20
40
F8
ENDCHAR
STARTCHAR uni00B3
ENCODING 179
SWIDTH 600 0
DWIDTH 10 0
BBX 5 7 2 5
BITMAP
F0
08
08
70
08
08
F0
ENDCHAR
STARTCHAR acute
ENCODING 180
SWIDTH 600 0
DWIDTH 10 0
BBX 3 3 4 10
BITMAP
60
40
80
ENDCHAR
STARTCHAR mu
ENCODING 181
SWIDTH 600 0
DWIDTH 10 0
BBX 8 13 1 -4
BITMAP
81
81
81
81
81
81
C3
C7
BD
80
80
80
80
ENDCHAR
STARTCHAR paragraph
ENCODING 182
SWIDTH 600 0
DWIDTH 10 0
BBX 8 15 1 -2
BITMAP
7F
79
F9
F9
F9
F9
F9
79
09
09
09
09
09
09
09
ENDCHAR
STARTCHAR periodcentered
ENCODING 183
SWIDTH 600 0
DWIDTH 10 0
BBX 2 2 4 5
BITMAP
C0
C0
ENDCHAR
STARTCHAR cedilla
ENCODING 184
SWIDTH 600 0
DWIDTH 10 0
BBX 3 4 4 -4
BITMAP
40
60
20
C0
ENDCHAR
STARTCHAR uni00B9
ENCODING 185
SWIDTH 600 0
DWIDTH 10 0
BBX 3 7 3 5
BITMAP
60
E0
20
20
20
20
20
ENDCHAR
STARTCHAR ordmasculine
ENCODING 186
SWIDTH 600 0
DWIDTH 10 0
BBX 6 7 2 5
BITMAP
78
CC
84
84
84
CC
78
ENDCHAR
STARTCHAR guillemotright
ENCODING 187
SWIDTH 600 0
DWIDTH 10 0
BBX 6 7 2 1
BITMAP
90
D8
48
24
48
D8
90
ENDCHAR
STARTCHAR onequarter
ENCODING 188
SWIDTH 600 0
DWIDTH 10 0
BBX 10 12 0 0
BITMAP
6180
E100
2300
2200
2400
2480
2980
0A80
1480
37C0
2080
6080
ENDCHAR
STARTCHAR onehalf
ENCODING 189
SWIDTH 600 0
DWIDTH 10 0
BBX 10 12 0 0
BITMAP
6300
E200
2600
2400
2800
2F80
3040
1040
2080
6100
4200
C7C0
ENDCHAR
STARTCHAR threequarters
ENCODING 190
SWIDTH 600 0
DWIDTH 10 0
BBX 11 12 -1 0
BITMAP
F0C0
0880
0980
7100
0A00
0A40
F4C0
0540
0A40
1BE0
1040
3040
ENDCHAR
STARTCHAR questiondown
ENCODING 191
SWIDTH 600 0
DWIDTH 10 0
BBX 8 12 1 -3
BITMAP
18
18
00
18
18
30
60
C0
80
C0
C3
3E
ENDCHAR
STARTCHAR Agrave
ENCODING 192
SWIDTH 600 0
DWIDTH 10 0
BBX 10 16 0 0
BITMAP
1800
0800
0400
0000
0C00
0C00
1E00
1200
1200
3300
2100
3F00
6180
4080
4080
C0C0
ENDCHAR
STARTCHAR Aacute
ENCODING 193
SWIDTH 600 0
DWIDTH 10 0
BBX 10 16 0 0
BITMAP
0300
0200
0400
0000
0C00
0C00
1E00
1200
1200
3300
2100
3F00
6180
4080
4080
C0C0
ENDCHAR
STARTCHAR Acircumflex
ENCODING 194
SWIDTH 600 0
DWIDTH 10 0
BBX 10 16 0 0
BITMAP
0400
0A00
1100
0000
0C00
0C00
1E00
1200
1200
3300
2100
3F00
6180
4080
4080
C0C0
ENDCHAR
STARTCHAR Atilde
ENCODING 195
SWIDTH 600 0
DWIDTH 10 0
BBX 10 16 0 0
BITMAP
1900
2D00
2600
0000
0C00
0C00
1E00
1200
1200
3300
2100
3F00
6180
4080
4080
C0C0
ENDCHAR
STARTCHAR Adieresis
ENCODING 196
SWIDTH 600 0
DWIDTH 10 0
BBX 10 15 0 0
BITMAP
1100
1100
0000
0C00
0C00
1E00
1200
1200
3300
2100
3F00
6180
4080
4080
C0C0
ENDCHAR
STARTCHAR Aring
ENCODING 197
SWIDTH 600 0
DWIDTH 10 0
BBX 10 15 0 0
BITMAP
0C00
1200
1200
0C00
0C00
1E00
1200
1200
3300
2100
3F00
6180
4080
4080
C0C0
ENDCHAR
STARTCHAR AE
ENCODING 198
SWIDTH 600 0
DWIDTH 10 0
BBX 9 12 0 0
BITMAP
1F80
1400
3400
2400
2400
2780
6400
7C00
4400
4400
C400
8780
ENDCHAR
STARTCHAR Ccedilla
ENCODING 199
SWIDTH 600 0
DWIDTH 10 0
BBX 8 16 1 -4
BITMAP
1F
73
60
C0
C0
C0
C0
C0
C0
60
71
1F
08
0C
04
18
ENDCHAR
STARTCHAR Egrave
ENCODING 200
SWIDTH 600 0
DWIDTH 10 0
BBX 7 16 2 0
BITMAP
30
10
08
00
FE
80
80
80
80
FE
80
80
80
80
80
FE
ENDCHAR
STARTCHAR Eacute
ENCODING 201
SWIDTH 600 0
DWIDTH 10 0
BBX 7 16 2 0
BITMAP
0C
08
10
00
FE
80
80
80
80
FE
80
80
80
80
80
FE
ENDCHAR
STARTCHAR Ecircumflex
ENCODING 202
SWIDTH 600 0
DWIDTH 10 0
BBX 7 16 2 0
BITMAP
10
28
44
00
FE
80
80
80
80
FE
80
80
80
80
80
FE
ENDCHAR
STARTCHAR Edieresis
ENCODING 203
SWIDTH 600 0
DWIDTH 10 0
BBX 7 15 2 0
BITMAP
44
44
00
FE
80
80
80
80
FE
80
80
80
80
80
FE
ENDCHAR
STARTCHAR Igrave
ENCODING 204
SWIDTH 600 0
DWIDTH 10 0
BBX 6 16 2 0
BITMAP
60
20
10
00
FC
20
20
20
20
20
20
20
20
20
20
FC
ENDCHAR
STARTCHAR Iacute
ENCODING 205
SWIDTH 600 0
DWIDTH 10 0
BBX 6 16 2 0
BITMAP
18
10
20
00
FC
20
20
20
20
20
20
20
20
20
20
FC
ENDCHAR
STARTCHAR Icircumflex
ENCODING 206
SWIDTH 600 0
DWIDTH 10 0
BBX 6 16 2 0
BITMAP
20
50
88
00
FC
20
20
20
20
20
20
20
20
20
20
FC
ENDCHAR
STARTCHAR Idieresis
ENCODING 207
SWIDTH 600 0
DWIDTH 10 0
BBX 6 15 2 0
BITMAP
88
88
00
FC
20
20
20
20
20
20
20
20
20
20
FC
ENDCHAR
STARTCHAR Eth
ENCODING 208
SWIDTH 600 0
DWIDTH 10 0
BBX 9 12 0 0
BITMAP
7C00
4700
4100
4180
4180
F980
4180
4180
4180
4300
4600
7C00
ENDCHAR
STARTCHAR Ntilde
ENCODING 209
SWIDTH 600 0
DWIDTH 10 0
BBX 8 16 1 0
BITMAP
32
5A
4C
00
C1
C1
A1
A1
91
91
89
89
85
85
83
83
ENDCHAR
STARTCHAR Ograve
ENCODING 210
SWIDTH 600 0
DWIDTH 10 0
BBX 8 16 1 0
BITMAP
30
10
08
00
3C
66
42
C3
C3
C3
C3
C3
C3
42
66
3C
ENDCHAR
STARTCHAR Oacute
ENCODING 211
SWIDTH 600 0
DWIDTH 10 0
BBX 8 16 1 0
BITMAP
0C
08
10
00
3C
66
42
C3
C3
C3
C3
C3
C3
42
66
3C
ENDCHAR
STARTCHAR Ocircumflex
ENCODING 212
SWIDTH 600 0
DWIDTH 10 0
BBX 8 16 1 0
BITMAP
08
14
22
00
3C
66
42
C3
C3
C3
C3
C3
C3
42
66
3C
ENDCHAR
STARTCHAR Otilde
ENCODING 213
SWIDTH 600 0
DWIDTH 10 0
BBX 8 16 1 0
BITMAP
32
5A
4C
00
3C
66
42
C3
C3
C3
C3
C3
C3
42
66
3C
ENDCHAR
STARTCHAR Odieresis
ENCODING 214
SWIDTH 600 0
DWIDTH 10 0
BBX 8 15 1 0
BITMAP
22
22
00
3C
66
42
C3
C3
C3
C3
C3
C3
42
66
3C
ENDCHAR
STARTCHAR multiply
ENCODING 215
SWIDTH 600 0
DWIDTH 10 0
BBX 5 5 2 3
BITMAP
88
50
20
50
88
ENDCHAR
STARTCHAR Oslash
ENCODING 216
SWIDTH 600 0
DWIDTH 10 0
BBX 8 12 1 0
BITMAP
3D
66
46
C7
CB
CB
D3
D3
E3
62
66
FC
ENDCHAR
STARTCHAR Ugrave
ENCODING 217
SWIDTH 600 0
DWIDTH 10 0
BBX 8 16 1 0
BITMAP
30
10
08
00
81
81
81
81
81
81
81
81
C3
C3
66
3C
ENDCHAR
STARTCHAR Uacute
ENCODING 218
SWIDTH 600 0
DWIDTH 10 0
BBX 8 16 1 0
BITMAP
0C
08
10
00
81
81
81
81
81
81
81
81
C3
C3
66
3C
ENDCHAR
STARTCHAR Ucircumflex
ENCODING 219
SWIDTH 600 0
DWIDTH 10 0
BBX 8 16 1 0
BITMAP
08
14
22
00
81
81
81
81
81
81
81
81
C3
C3
66
3C
ENDCHAR
STARTCHAR Udieresis
ENCODING 220
SWIDTH 600 0
DWIDTH 10 0
BBX 8 15 1 0
BITMAP
22
22
00
81
81
81
81
81
81
81
81
C3
C3
66
3C
ENDCHAR
STARTCHAR Yacute
ENCODING 221
SWIDTH 600 0
DWIDTH 10 0
BBX 9 16 0 0
BITMAP
0600
0400
0800
0000
C080
4180
6100
2200
1200
1400
0C00
0800
0800
0800
0800
0800
ENDCHAR
STARTCHAR Thorn
ENCODING 222
SWIDTH 600 0
DWIDTH 10 0
BBX 8 12 1 0
BITMAP
80
80
FC
86
83
83
83
86
FC
80
80
80
ENDCHAR
STARTCHAR germandbls
ENCODING 223
SWIDTH 600 0
DWIDTH 10 0
BBX 8 13 1 0
BITMAP
7C
C6
82
86
8C
88
88
8C
86
83
81
93
9E
ENDCHAR
STARTCHAR agrave
ENCODING 224
SWIDTH 600 0
DWIDTH 10 0
BBX 8 13 1 0
BITMAP
30
10
08
00
7E
43
03
01
3F
C1
83
C7
7D
ENDCHAR
STARTCHAR aacute
ENCODING 225
SWIDTH 600 0
DWIDTH 10 0
BBX 8 13 1 0
BITMAP
06
04
08
00
7E
43
03
01
3F
C1
83
C7
7D
ENDCHAR
STARTCHAR acircumflex
ENCODING 226
SWIDTH 600 0
DWIDTH 10 0
BBX 8 13 1 0
BITMAP
08
14
22
00
7E
43
03
01
3F
C1
83
C7
7D
ENDCHAR
STARTCHAR atilde
ENCODING 227
SWIDTH 600 0
DWIDTH 10 0
BBX 8 13 1 0
BITMAP
32
5A
4C
00
7E
43
03
01
3F
C1
83
C7
7D
ENDCHAR
STARTCHAR adieresis
ENCODING 228
SWIDTH 600 0
DWIDTH 10 0
BBX 8 12 1 0
BITMAP
22
22
00
7E
43
03
01
3F
C1
83
C7
7D
ENDCHAR
STARTCHAR aring
ENCODING 229
SWIDTH 600 0
DWIDTH 10 0
BBX 8 14 1 0
BITMAP
0C
12
12
0C
00
7E
43
03
01
3F
C1
83
C7
7D
ENDCHAR
STARTCHAR ae
ENCODING 230
SWIDTH 600 0
DWIDTH 10 0
BBX 10 9 0 0
BITMAP
7380
4C80
0CC0
0840
7FC0
C800
8C00
DE40
73C0
ENDCHAR
STARTCHAR ccedilla
ENCODING 231
SWIDTH 600 0
DWIDTH 10 0
BBX 8 13 1 -4
BITMAP
3F
61
C0
C0
80
C0
C0
61
3F
08
0C
04
18
ENDCHAR
STARTCHAR egrave
ENCODING 232
SWIDTH 600 0
DWIDTH 10 0
BBX 8 13 1 0
BITMAP
30
10
08
00
3C
66
C3
C1
FF
80
C0
61
3E
ENDCHAR
STARTCHAR eacute
ENCODING 233
SWIDTH 600 0
DWIDTH 10 0
BBX 8 13 1 0
BITMAP
0C
08
10
00
3C
66
C3
C1
FF
80
C0
61
3E
ENDCHAR
STARTCHAR ecircumflex
ENCODING 234
SWIDTH 600 0
DWIDTH 10 0
BBX 8 13 1 0
BITMAP
08
14
22
00
3C
66
C3
C1
FF
80
C0
61
3E
ENDCHAR
STARTCHAR edieresis
ENCODING 235
SWIDTH 600 0
DWIDTH 10 0
BBX 8 12 1 0
BITMAP
22
22
00
3C
66
C3
C1
FF
80
C0
61
3E
ENDCHAR
STARTCHAR igrave
ENCODING 236
SWIDTH 600 0
DWIDTH 10 0
BBX 7 13 1 0
BITMAP
30
10
08
00
70
10
10
10
10
10
10
10
FE
ENDCHAR
STARTCHAR iacute
ENCODING 237
SWIDTH 600 0
DWIDTH 10 0
BBX 7 13 1 0
BITMAP
0C
08
10
00
70
10
10
10
10
10
10
10
FE
ENDCHAR
STARTCHAR icircumflex
ENCODING 238
SWIDTH 600 0
DWIDTH 10 0
BBX 7 13 1 0
BITMAP
10
28
44
00
70
10
10
10
10
10
10
10
FE
ENDCHAR
STARTCHAR idieresis
ENCODING 239
SWIDTH 600 0
DWIDTH 10 0
BBX 7 12 1 0
BITMAP
44
44
00
70
10
10
10
10
10
10
10
FE
ENDCHAR
STARTCHAR eth
ENCODING 240
SWIDTH 600 0
DWIDTH 10 0
BBX 8 13 1 0
BITMAP
12
1C
1C
26
02
3F
67
C3
81
83
C3
66
3C
ENDCHAR
STARTCHAR ntilde
ENCODING 241
SWIDTH 600 0
DWIDTH 10 0
BBX 8 13 1 0
BITMAP
32
5A
4C
00
BE
E3
C3
81
81
81
81
81
81
ENDCHAR
STARTCHAR ograve
ENCODING 242
SWIDTH 600 0
DWIDTH 10 0
BBX 8 13 1 0
BITMAP
30
10
08
00
3C
66
C3
C3
81
C3
C3
66
3C
ENDCHAR
STARTCHAR oacute
ENCODING 243
SWIDTH 600 0
DWIDTH 10 0
BBX 8 13 1 0
BITMAP
0C
08
10
00
3C
66
C3
C3
81
C3
C3
66
3C
ENDCHAR
STARTCHAR ocircumflex
ENCODING 244
SWIDTH 600 0
DWIDTH 10 0
BBX 8 13 1 0
BITMAP
08
14
22
00
3C
66
C3
C3
81
C3
C3
66
3C
ENDCHAR
STARTCHAR otilde
ENCODING 245
SWIDTH 600 0
DWIDTH 10 0
BBX 8 13 1 0
BITMAP
32
5A
4C
00
3C
66
C3
C3
81
C3
C3
66
3C
ENDCHAR
STARTCHAR odieresis
ENCODING 246
SWIDTH 600 0
DWIDTH 10 0
BBX 8 12 1 0
BITMAP
22
22
00
3C
66
C3
C3
81
C3
C3
66
3C
ENDCHAR
STARTCHAR divide
ENCODING 247
SWIDTH 600 0
DWIDTH 10 0
BBX 7 8 1 1
BITMAP
18
18
00
FE
00
00
18
18
ENDCHAR
STARTCHAR oslash
ENCODING 248
SWIDTH 600 0
DWIDTH 10 0
BBX 8 9 1 0
BITMAP
3E
66
C7
CB
99
D3
E3
66
7C
ENDCHAR
STARTCHAR ugrave
ENCODING 249
SWIDTH 600 0
DWIDTH 10 0
BBX 8 13 1 0
BITMAP
30
10
08
00
81
81
81
81
81
81
C3
C7
7D
ENDCHAR
STARTCHAR uacute
ENCODING 250
SWIDTH 600 0
DWIDTH 10 0
BBX 8 13 1 0
BITMAP
0C
08
10
00
81
81
81
81
81
81
C3
C7
7D
ENDCHAR
STARTCHAR ucircumflex
ENCODING 251
SWIDTH 600 0
DWIDTH 10 0
BBX 8 13 1 0
BITMAP
08
14
22
00
81
81
81
81
81
81
C3
C7
7D
ENDCHAR
STARTCHAR udieresis
ENCODING 252
SWIDTH 600 0
DWIDTH 10 0
BBX 8 12 1 0
BITMAP
22
22
00
81
81
81
81
81
81
C3
C7
7D
ENDCHAR
STARTCHAR yacute
ENCODING 253
SWIDTH 600 0
DWIDTH 10 0
BBX 8 17 1 -4
BITMAP
0C
08
10
00
C3
42
42
66
24
24
3C
18
18
18
10
30
E0
ENDCHAR
STARTCHAR thorn
ENCODING 254
SWIDTH 600 0
DWIDTH 10 0
BBX 8 17 1 -4
BITMAP
80
80
80
80
BC
E6
C3
83
81
83
C3
E6
BC
80
80
80
80
ENDCHAR
STARTCHAR ydieresis
ENCODING 255
SWIDTH 600 0
DWIDTH 10 0
BBX 8 16 1 -4
BITMAP
22
22
00
C3
42
42
66
24
24
3C
18
18
18
10
30
E0
ENDCHAR
STARTCHAR .notdef
ENCODING -1
SWIDTH 600 0
DWIDTH 10 0
BBX 7 12 1 0
BITMAP
FE
82
82
82
82
82
82
82
82
82
82
FE
ENDCHAR
STARTCHAR Amacron
ENCODING -1
SWIDTH 600 0
DWIDTH 10 0
BBX 10 14 0 0
BITMAP
1F00
0000
0C00
0C00
1E00
1200
1200
3300
2100
3F00
6180
4080
4080
C0C0
ENDCHAR
STARTCHAR amacron
ENCODING -1
SWIDTH 600 0
DWIDTH 10 0
BBX 8 11 1 0
BITMAP
3E
00
7E
43
03
01
3F
C1
83
C7
7D
ENDCHAR
STARTCHAR Abreve
ENCODING -1
SWIDTH 600 0
DWIDTH 10 0
BBX 10 16 0 0
BITMAP
2100
2300
1E00
0000
0C00
0C00
1E00
1200
1200
3300
2100
3F00
6180
4080
4080
C0C0
ENDCHAR
STARTCHAR abreve
ENCODING -1
SWIDTH 600 0
DWIDTH 10 0
BBX 8 13 1 0
BITMAP
42
46
3C
00
7E
43
03
01
3F
C1
83
C7
7D
ENDCHAR
STARTCHAR Aogonek
ENCODING -1
SWIDTH 600 0
DWIDTH 10 0
BBX 10 16 0 -4
BITMAP
0C00
0C00
1E00
1200
1200
3300
2100
3F00
6180
4080
4080
C0C0
0080
0100
0100
00C0
ENDCHAR
STARTCHAR aogonek
ENCODING -1
SWIDTH 600 0
DWIDTH 10 0
BBX 8 13 1 -4
BITMAP
7E
43
03
01
3F
C1
83
C7
7D
02
04
04
03
ENDCHAR
STARTCHAR Cacute
ENCODING -1
SWIDTH 600 0
DWIDTH 10 0
BBX 8 16 1 0
BITMAP
06
04
08
00
1F
73
60
C0
C0
C0
C0
C0
C0
60
71
1F
ENDCHAR
STARTCHAR cacute
ENCODING -1
SWIDTH 600 0
DWIDTH 10 0
BBX 8 13 1 0
BITMAP
06
04
08
00
3F
61
C0
C0
80
C0
C0
61
3F
ENDCHAR
STARTCHAR Ccircumflex
ENCODING -1
SWIDTH 600 0
DWIDTH 10 0
BBX 8 16 1 0
BITMAP
08
14
22
00
1F
73
60
C0
C0
C0
C0
C0
C0
60
71
1F
ENDCHAR
STARTCHAR ccircumflex
ENCODING -1
SWIDTH 600 0
DWIDTH 10 0
BBX 8 13 1 0
BITMAP
08
14
22
00
3F
61
C0
C0
80
C0
C0
61
3F
ENDCHAR
STARTCHAR Cdotaccent
ENCODING -1
SWIDTH 600 0
DWIDTH 10 0
BBX 8 15 1 0
BITMAP
04
04
00
1F
73
60
C0
C0
C0
C0
C0
C0
60
71
1F
ENDCHAR
STARTCHAR cdotaccent
ENCODING -1
SWIDTH 600 0
DWIDTH 10 0
BBX 8 12 1 0
BITMAP
04
04
00
3F
61
C0
C0
80
C0
C0
61
3F
ENDCHAR
STARTCHAR Ccaron
ENCODING -1
SWIDTH 600 0
DWIDTH 10 0
BBX 8 16 1 0
BITMAP
11
0A
06
00
1F
73
60
C0
C0
C0
C0
C0
C0
60
71
1F
ENDCHAR
STARTCHAR ccaron
ENCODING -1
SWIDTH 600 0
DWIDTH 10 0
BBX 8 13 1 0
BITMAP
22
14
0C
00
3F
61
C0
C0
80
C0
C0
61
3F
ENDCHAR
STARTCHAR Dcaron
ENCODING -1
SWIDTH 600 0
DWIDTH 10 0
BBX 8 16 1 0
BITMAP
44
28
18
00
F8
8E
82
83
83
83
83
83
83
86
8C
F8
ENDCHAR
STARTCHAR dcaron
ENCODING -1
SWIDTH 600 0
DWIDTH 10 0
BBX 11 13 1 0
BITMAP
0160
0160
0140
0100
3D00
6700
C300
C100
8100
C100
C300
6700
3D00
ENDCHAR
STARTCHAR Dcroat
ENCODING -1
SWIDTH 600 0
DWIDTH 10 0
BBX 9 12 0 0
BITMAP
7C00
4700
4100
4180
4180
F980
4180
4180
4180
4300
4600
7C00
ENDCHAR
STARTCHAR dcroat
ENCODING -1
SWIDTH 600 0
DWIDTH 10 0
BBX 9 13 1 0
BITMAP
0100
0100
1F80
0100
3D00
6700
C300
C100
8100
C100
C300
6700
3D00
ENDCHAR
STARTCHAR Emacron
ENCODING -1
SWIDTH 600 0
DWIDTH 10 0
BBX 7 14 2 0
BITMAP
7C
00
FE
80
80
80
80
FE
80
80
80
80
80
FE
ENDCHAR
STARTCHAR emacron
ENCODING -1
SWIDTH 600 0
DWIDTH 10 0
BBX 8 11 1 0
BITMAP
3E
00
3C
66
C3
C1
FF
80
C0
61
3E
ENDCHAR
STARTCHAR Ebreve
ENCODING -1
SWIDTH 600 0
DWIDTH 10 0
BBX 7 16 2 0
BITMAP
42
46
3C
00
FE
80
80
80
80
FE
80
80
80
80
80
FE
ENDCHAR
STARTCHAR ebreve
ENCODING -1
SWIDTH 600 0
DWIDTH 10 0
BBX 8 13 1 0
BITMAP
42
46
3C
00
3C
66
C3
C1
FF
80
C0
61
3E
ENDCHAR
STARTCHAR Edotaccent
ENCODING -1
SWIDTH 600 0
DWIDTH 10 0
BBX 7 15 2 0
BITMAP
08
08
00
FE
80
80
80
80
FE
80
80
80
80
80
FE
ENDCHAR
STARTCHAR edotaccent
ENCODING -1
SWIDTH 600 0
DWIDTH 10 0
BBX 8 12 1 0
BITMAP
08
08
00
3C
66
C3
C1
FF
80
C0
61
3E
ENDCHAR
STARTCHAR Eogonek
ENCODING -1
SWIDTH 600 0
DWIDTH 10 0
BBX 7 16 2 -4
BITMAP
FE
80
80
80
80
FE
80
80
80
80
80
FE
04
08
08
06
ENDCHAR
STARTCHAR eogonek
ENCODING -1
SWIDTH 600 0
DWIDTH 10 0
BBX 8 13 1 -4
BITMAP
3C
66
C3
C1
FF
80
C0
61
3E
02
04
04
03
ENDCHAR
STARTCHAR Ecaron
ENCODING -1
SWIDTH 600 0
DWIDTH 10 0
BBX 7 16 2 0
BITMAP
44
28
18
00
FE
80
80
80
80
FE
80
80
80
80
80
FE
ENDCHAR
STARTCHAR ecaron
ENCODING -1
SWIDTH 600 0
DWIDTH 10 0
BBX 8 13 1 0
BITMAP
22
14
0C
00
3C
66
C3
C1
FF
80
C0
61
3E
ENDCHAR
STARTCHAR Gcircumflex
ENCODING -1
SWIDTH 600 0
DWIDTH 10 0
BBX 8 16 1 0
BITMAP
08
14
22
00
1E
72
40
C0
C0
C7
C1
C1
C1
41
73
3F
ENDCHAR
STARTCHAR gcircumflex
ENCODING -1
SWIDTH 600 0
DWIDTH 10 0
BBX 9 17 0 -4
BITMAP
0800
1400
2200
0000
3F80
6300
4100
4100
6300
3E00
6000
4000
7F00
C180
8080
C180
7E00
ENDCHAR
STARTCHAR Gbreve
ENCODING -1
SWIDTH 600 0
DWIDTH 10 0
BBX 8 16 1 0
BITMAP
21
23
1E
00
1E
72
40
C0
C0
C7
C1
C1
C1
41
73
3F
ENDCHAR
STARTCHAR gbreve
ENCODING -1
SWIDTH 600 0
DWIDTH 10 0
BBX 9 17 0 -4
BITMAP
2100
2300
1E00
0000
3F80
6300
4100
4100
6300
3E00
6000
4000
7F00
C180
8080
C180
7E00
ENDCHAR
STARTCHAR Gdotaccent
ENCODING -1
SWIDTH 600 0
DWIDTH 10 0
BBX 8 15 1 0
BITMAP
04
04
00
1E
72
40
C0
C0
C7
C1
C1
C1
41
73
3F
ENDCHAR
STARTCHAR gdotaccent
ENCODING -1
SWIDTH 600 0
DWIDTH 10 0
BBX 9 16 0 -4
BITMAP
0800
0800
0000
3F80
6300
4100
4100
6300
3E00
6000
4000
7F00
C180
8080
C180
7E00
ENDCHAR
STARTCHAR uni0122
ENCODING -1
SWIDTH 600 0
DWIDTH 10 0
BBX 8 16 1 -4
BITMAP
1E
72
40
C0
C0
C7
C1
C1
C1
41
73
3F
00
04
0C
08
ENDCHAR
STARTCHAR uni0123
ENCODING -1
SWIDTH 600 0
DWIDTH 10 0
BBX 9 17 0 -4
BITMAP
0400
0C00
0800
0000
3F80
6300
4100
4100
6300
3E00
6000
4000
7F00
C180
8080
C180
7E00
ENDCHAR
STARTCHAR Hcircumflex
ENCODING -1
SWIDTH 600 0
DWIDTH 10 0
BBX 8 16 1 0
BITMAP
08
14
22
00
81
81
81
81
81
FF
81
81
81
81
81
81
ENDCHAR
STARTCHAR hcircumflex
ENCODING -1
SWIDTH 600 0
DWIDTH 10 0
BBX 8 17 1 0
BITMAP
08
14
22
00
80
80
80
80
BE
E3
C3
81
81
81
81
81
81
ENDCHAR
STARTCHAR Hbar
ENCODING -1
SWIDTH 600 0
DWIDTH 10 0
BBX 10 12 0 0
BITMAP
4080
4080
FFC0
4080
4080
7F80
4080
4080
4080
4080
4080
4080
ENDCHAR
STARTCHAR hbar
ENCODING -1
SWIDTH 600 0
DWIDTH 10 0
BBX 9 13 0 0
BITMAP
4000
4000
FC00
4000
5F00
7180
6180
4080
4080
4080
4080
4080
4080
ENDCHAR
STARTCHAR Itilde
ENCODING -1
SWIDTH 600 0
DWIDTH 10 0
BBX 6 16 2 0
BITMAP
64
B4
98
00
FC
20
20
20
20
20
20
20
20
20
20
FC
ENDCHAR
STARTCHAR itilde
ENCODING -1
SWIDTH 600 0
DWIDTH 10 0
BBX 7 13 1 0
BITMAP
32
5A
4C
00
70
10
10
10
10
10
10
10
FE
ENDCHAR
STARTCHAR Imacron
ENCODING -1
SWIDTH 600 0
DWIDTH 10 0
BBX 6 14 2 0
BITMAP
F8
00
FC
20
20
20
20
20
20
20
20
20
20
FC
ENDCHAR
STARTCHAR imacron
ENCODING -1
SWIDTH 600 0
DWIDTH 10 0
BBX 7 11 1 0
BITMAP
7C
00
70
10
10
10
10
10
10
10
FE
ENDCHAR
STARTCHAR Ibreve
ENCODING -1
SWIDTH 600 0
DWIDTH 10 0
BBX 6 16 2 0
BITMAP
84
8C
78
00
FC
20
20
20
20
20
20
20
20
20
20
FC
ENDCHAR
STARTCHAR ibreve
ENCODING -1
SWIDTH 600 0
DWIDTH 10 0
BBX 8 13 1 0
BITMAP
21
23
1E
00
70
10
10
10
10
10
10
10
FE
ENDCHAR
STARTCHAR Iogonek
ENCODING -1
SWIDTH 600 0
DWIDTH 10 0
BBX 6 16 2 -4
BITMAP
FC
20
20
20
20
20
20
20
20
20
20
FC
10
20
20
18
ENDCHAR
STARTCHAR iogonek
ENCODING -1
SWIDTH 600 0
DWIDTH 10 0
BBX 7 17 1 -4
BITMAP
10
10
00
00
70
10
10
10
10
10
10
10
FE
08
10
10
0C
ENDCHAR
STARTCHAR Idotaccent
ENCODING -1
SWIDTH 600 0
DWIDTH 10 0
BBX 6 15 2 0
BITMAP
10
10
00
FC
20
20
20
20
20
20
20
20
20
20
FC
ENDCHAR
STARTCHAR dotlessi
ENCODING -1
SWIDTH 600 0
DWIDTH 10 0
BBX 7 9 1 0
BITMAP
70
10
10
10
10
10
10
10
FE
ENDCHAR
STARTCHAR IJ
ENCODING -1
SWIDTH 600 0
DWIDTH 10 0
BBX 8 12 1 0
BITMAP
81
81
81
81
81
81
81
81
81
83
83
9E
ENDCHAR
STARTCHAR ij
ENCODING -1
SWIDTH 600 0
DWIDTH 10 0
BBX 6 17 2 -4
BITMAP
8C
8C
00
00
9C
84
84
84
84
84
84
84
84
04
04
0C
38
ENDCHAR
STARTCHAR Jcircumflex
ENCODING -1
SWIDTH 600 0
DWIDTH 10 0
BBX 9 16 1 0
BITMAP
0200
0500
0880
0000
0200
0200
0200
0200
0200
0200
0200
0200
0200
0600
8C00
F800
ENDCHAR
STARTCHAR jcircumflex
ENCODING -1
SWIDTH 600 0
DWIDTH 10 0
BBX 6 17 2 -4
BITMAP
10
28
44
00
7C
04
04
04
04
04
04
04
04
04
04
0C
F8
ENDCHAR
STARTCHAR uni0136
ENCODING -1
SWIDTH 600 0
DWIDTH 10 0
BBX 9 16 1 -4
BITMAP
8180
8300
8600
8C00
9800
B000
D800
8C00
8400
8600
8300
8180
0000
0800
1800
1000
ENDCHAR
STARTCHAR uni0137
ENCODING -1
SWIDTH 600 0
DWIDTH 10 0
BBX 7 17 2 -4
BITMAP
80
80
80
80
84
88
90
A0
E0
90
88
84
86
00
10
30
20
ENDCHAR
STARTCHAR kgreenlandic
ENCODING -1
SWIDTH 600 0
DWIDTH 10 0
BBX 7 9 2 0
BITMAP
86
8C
98
B0
A0
D0
88
8C
86
ENDCHAR
STARTCHAR Lacute
ENCODING -1
SWIDTH 600 0
DWIDTH 10 0
BBX 8 16 1 0
BITMAP
30
20
40
00
80
80
80
80
80
80
80
80
80
80
80
FF
ENDCHAR
STARTCHAR lacute
ENCODING -1
SWIDTH 600 0
DWIDTH 10 0
BBX 7 17 1 0
BITMAP
0C
08
10
00
70
10
10
10
10
10
10
10
10
10
10
10
FE
ENDCHAR
STARTCHAR uni013B
ENCODING -1
SWIDTH 600 0
DWIDTH 10 0
BBX 8 16 1 -4
BITMAP
80
80
80
80
80
80
80
80
80
80
80
FF
00
08
18
10
ENDCHAR
STARTCHAR uni013C
ENCODING -1
SWIDTH 600 0
DWIDTH 10 0
BBX 7 17 1 -4
BITMAP
70
10
10
10
10
10
10
10
10
10
10
10
FE
00
08
18
10
ENDCHAR
STARTCHAR Lcaron
ENCODING -1
SWIDTH 600 0
DWIDTH 10 0
BBX 8 12 1 0
BITMAP
86
86
84
80
80
80
80
80
80
80
80
FF
ENDCHAR
STARTCHAR lcaron
ENCODING -1
SWIDTH 600 0
DWIDTH 10 0
BBX 8 13 1 0
BITMAP
73
13
12
10
10
10
10
10
10
10
10
10
FE
ENDCHAR
STARTCHAR Ldot
ENCODING -1
SWIDTH 600 0
DWIDTH 10 0
BBX 8 12 1 0
BITMAP
80
80
80
80
82
82
80
80
80
80
80
FF
ENDCHAR
STARTCHAR ldot
ENCODING -1
SWIDTH 600 0
DWIDTH 10 0
BBX 8 13 1 0
BITMAP
70
10
10
10
10
10
11
11
10
10
10
10
FE
ENDCHAR
STARTCHAR Lslash
ENCODING -1
SWIDTH 600 0
DWIDTH 10 0
BBX 9 12 0 0
BITMAP
2000
2000
2000
2000
2200
2C00
3800
6000
A000
2000
2000
3F80
ENDCHAR
STARTCHAR lslash
ENCODING -1
SWIDTH 600 0
DWIDTH 10 0
BBX 7 13 1 0
BITMAP
70
10
10
10
10
16
1C
30
50
10
10
10
FE
ENDCHAR
STARTCHAR Nacute
ENCODING -1
SWIDTH 600 0
DWIDTH 10 0
BBX 8 16 1 0
BITMAP
06
04
08
00
C1
C1
A1
A1
91
91
89
89
85
85
83
83
ENDCHAR
STARTCHAR nacute
ENCODING -1
SWIDTH 600 0
DWIDTH 10 0
BBX 8 13 1 0
BITMAP
06
04
08
00
BE
E3
C3
81
81
81
81
81
81
ENDCHAR
STARTCHAR uni0145
ENCODING -1
SWIDTH 600 0
DWIDTH 10 0
BBX 8 16 1 -4
BITMAP
C1
C1
A1
A1
91
91
89
89
85
85
83
83
00
08
18
10
ENDCHAR
STARTCHAR uni0146
ENCODING -1
SWIDTH 600 0
DWIDTH 10 0
BBX 8 13 1 -4
BITMAP
BE
E3
C3
81
81
81
81
81
81
00
08
18
10
ENDCHAR
STARTCHAR Ncaron
ENCODING -1
SWIDTH 600 0
DWIDTH 10 0
BBX 8 16 1 0
BITMAP
22
14
0C
00
C1
C1
A1
A1
91
91
89
89
85
85
83
83
ENDCHAR
STARTCHAR ncaron
ENCODING -1
SWIDTH 600 0
DWIDTH 10 0
BBX 8 13 1 0
BITMAP
22
14
0C
00
BE
E3
C3
81
81
81
81
81
81
ENDCHAR
STARTCHAR napostrophe
ENCODING -1
SWIDTH 600 0
DWIDTH 10 0
BBX 9 13 0 0
BITMAP
6000
4000
4000
8000
2F00
3980
3180
2080
2080
2080
2080
2080
2080
ENDCHAR
STARTCHAR Eng
ENCODING -1
SWIDTH 600 0
DWIDTH 10 0
BBX 8 15 1 -3
BITMAP
C1
C1
A1
A1
91
99
89
8D
85
87
83
83
01
03
0E
ENDCHAR
STARTCHAR eng
ENCODING -1
SWIDTH 600 0
DWIDTH 10 0
BBX 8 13 1 -4
BITMAP
BE
E3
C3
81
81
81
81
81
81
01
01
03
0E
ENDCHAR
STARTCHAR Omacron
ENCODING -1
SWIDTH 600 0
DWIDTH 10 0
BBX 8 14 1 0
BITMAP
3E
00
3C
66
42
C3
C3
C3
C3
C3
C3
42
66
3C
ENDCHAR
STARTCHAR omacron
ENCODING -1
SWIDTH 600 0
DWIDTH 10 0
BBX 8 11 1 0
BITMAP
3E
00
3C
66
C3
C3
81
C3
C3
66
3C
ENDCHAR
STARTCHAR Obreve
ENCODING -1
SWIDTH 600 0
DWIDTH 10 0
BBX 8 16 1 0
BITMAP
42
46
3C
00
3C
66
42
C3
C3
C3
C3
C3
C3
42
66
3C
ENDCHAR
STARTCHAR obreve
ENCODING -1
SWIDTH 600 0
DWIDTH 10 0
BBX 8 13 1 0
BITMAP
42
46
3C
00
3C
66
C3
C3
81
C3
C3
66
3C
ENDCHAR
STARTCHAR Ohungarumlaut
ENCODING -1
SWIDTH 600 0
DWIDTH 10 0
BBX 8 16 1 0
BITMAP
1B
12
24
00
3C
66
42
C3
C3
C3
C3
C3
C3
42
66
3C
ENDCHAR
STARTCHAR ohungarumlaut
ENCODING -1
SWIDTH 600 0
DWIDTH 10 0
BBX 8 13 1 0
BITMAP
1B
12
24
00
3C
66
C3
C3
81
C3
C3
66
3C
ENDCHAR
STARTCHAR OE
ENCODING -1
SWIDTH 600 0
DWIDTH 10 0
BBX 9 12 0 0
BITMAP
3F80
6400
C400
C400
C400
8780
8400
C400
C400
C400
6400
3F80
ENDCHAR
STARTCHAR oe
ENCODING -1
SWIDTH 600 0
DWIDTH 10 0
BBX 10 9 0 0
BITMAP
7380
5C80
CCC0
8840
8FC0
8800
CC00
5C40
73C0
ENDCHAR
STARTCHAR Racute
ENCODING -1
SWIDTH 600 0
DWIDTH 10 0
BBX 9 16 1 0
BITMAP
0C00
0800
1000
0000
FC00
8600
8300
8300
8300
8200
FC00
8C00
8600
8200
8300
8180
ENDCHAR
STARTCHAR racute
ENCODING -1
SWIDTH 600 0
DWIDTH 10 0
BBX 7 13 2 0
BITMAP
0C
08
10
00
9E
A2
C0
80
80
80
80
80
80
ENDCHAR
STARTCHAR uni0156
ENCODING -1
SWIDTH 600 0
DWIDTH 10 0
BBX 9 16 1 -4
BITMAP
FC00
8600
8300
8300
8300
8200
FC00
8C00
8600
8200
8300
8180
0000
0800
1800
1000
ENDCHAR
STARTCHAR uni0157
ENCODING -1
SWIDTH 600 0
DWIDTH 10 0
BBX 7 13 2 -4
BITMAP
9E
A2
C0
80
80
80
80
80
80
00
40
C0
80
ENDCHAR
STARTCHAR Rcaron
ENCODING -1
SWIDTH 600 0
DWIDTH 10 0
BBX 9 16 1 0
BITMAP
2200
1400
0C00
0000
FC00
8600
8300
8300
8300
8200
FC00
8C00
8600
8200
8300
8180
ENDCHAR
STARTCHAR rcaron
ENCODING -1
SWIDTH 600 0
DWIDTH 10 0
BBX 7 13 2 0
BITMAP
44
28
18
00
9E
A2
C0
80
80
80
80
80
80
ENDCHAR
STARTCHAR Sacute
ENCODING -1
SWIDTH 600 0
DWIDTH 10 0
BBX 8 16 1 0
BITMAP
0C
08
10
00
3F
E3
C0
C0
C0
78
0E
03
01
03
86
FC
ENDCHAR
STARTCHAR sacute
ENCODING -1
SWIDTH 600 0
DWIDTH 10 0
BBX 6 13 2 0
BITMAP
18
10
20
00
7C
C4
80
E0
38
0C
04
8C
F8
ENDCHAR
STARTCHAR Scircumflex
ENCODING -1
SWIDTH 600 0
DWIDTH 10 0
BBX 8 16 1 0
BITMAP
08
14
22
00
3F
E3
C0
C0
C0
78
0E
03
01
03
86
FC
ENDCHAR
STARTCHAR scircumflex
ENCODING -1
SWIDTH 600 0
DWIDTH 10 0
BBX 6 13 2 0
BITMAP
10
28
44
00
7C
C4
80
E0
38
0C
04
8C
F8
ENDCHAR
STARTCHAR Scedilla
ENCODING -1
SWIDTH 600 0
DWIDTH 10 0
BBX 8 16 1 -4
BITMAP
3F
E3
C0
C0
C0
78
0E
03
01
03
86
FC
08
0C
04
18
ENDCHAR
STARTCHAR scedilla
ENCODING -1
SWIDTH 600 0
DWIDTH 10 0
BBX 6 13 2 -4
BITMAP
7C
C4
80
E0
38
0C
04
8C
F8
10
18
08
30
ENDCHAR
STARTCHAR Scaron
ENCODING -1
SWIDTH 600 0
DWIDTH 10 0
BBX 8 16 1 0
BITMAP
22
14
0C
00
3F
E3
C0
C0
C0
78
0E
03
01
03
86
FC
ENDCHAR
STARTCHAR scaron
ENCODING -1
SWIDTH 600 0
DWIDTH 10 0
BBX 6 13 2 0
BITMAP
44
28
18
00
7C
C4
80
E0
38
0C
04
8C
F8
ENDCHAR
STARTCHAR uni021A
ENCODING -1
SWIDTH 600 0
DWIDTH 10 0
BBX 8 16 1 -4
BITMAP
FF
10
10
10
10
10
10
10
10
10
10
10
00
08
18
10
ENDCHAR
STARTCHAR uni021B
ENCODING -1
SWIDTH 600 0
DWIDTH 10 0
BBX 7 15 2 -4
BITMAP
20
20
FE
20
20
20
20
20
20
30
1E
00
08
18
10
ENDCHAR
STARTCHAR Tcaron
ENCODING -1
SWIDTH 600 0
DWIDTH 10 0
BBX 8 16 1 0
BITMAP
22
14
0C
00
FF
10
10
10
10
10
10
10
10
10
10
10
ENDCHAR
STARTCHAR tcaron
ENCODING -1
SWIDTH 600 0
DWIDTH 10 0
BBX 7 13 2 0
BITMAP
06
06
24
20
FE
20
20
20
20
20
20
30
1E
ENDCHAR
STARTCHAR Tbar
ENCODING -1
SWIDTH 600 0
DWIDTH 10 0
BBX 8 12 1 0
BITMAP
FF
10
10
10
10
7E
10
10
10
10
10
10
ENDCHAR
STARTCHAR tbar
ENCODING -1
SWIDTH 600 0
DWIDTH 10 0
BBX 7 11 2 0
BITMAP
20
20
FE
20
20
7C
20
20
20
30
1E
ENDCHAR
STARTCHAR Utilde
ENCODING -1
SWIDTH 600 0
DWIDTH 10 0
BBX 8 16 1 0
BITMAP
32
5A
4C
00
81
81
81
81
81
81
81
81
C3
C3
66
3C
ENDCHAR
STARTCHAR utilde
ENCODING -1
SWIDTH 600 0
DWIDTH 10 0
BBX 8 13 1 0
BITMAP
32
5A
4C
00
81
81
81
81
81
81
C3
C7
7D
ENDCHAR
STARTCHAR Umacron
ENCODING -1
SWIDTH 600 0
DWIDTH 10 0
BBX 8 14 1 0
BITMAP
3E
00
81
81
81
81
81
81
81
81
C3
C3
66
3C
ENDCHAR
STARTCHAR umacron
ENCODING -1
SWIDTH 600 0
DWIDTH 10 0
BBX 8 11 1 0
BITMAP
3E
00
81
81
81
81
81
81
C3
C7
7D
ENDCHAR
STARTCHAR Ubreve
ENCODING -1
SWIDTH 600 0
DWIDTH 10 0
BBX 8 16 1 0
BITMAP
42
46
3C
00
81
81
81
81
81
81
81
81
C3
C3
66
3C
ENDCHAR
STARTCHAR ubreve
ENCODING -1
SWIDTH 600 0
DWIDTH 10 0
BBX 8 13 1 0
BITMAP
42
46
3C
00
81
81
81
81
81
81
C3
C7
7D
ENDCHAR
STARTCHAR Uring
ENCODING -1
SWIDTH 600 0
DWIDTH 10 0
BBX 8 17 1 0
BITMAP
18
24
24
18
00
81
81
81
81
81
81
81
81
C3
C3
66
3C
ENDCHAR
STARTCHAR uring
ENCODING -1
SWIDTH 600 0
DWIDTH 10 0
BBX 8 14 1 0
BITMAP
18
24
24
18
00
81
81
81
81
81
81
C3
C7
7D
ENDCHAR
STARTCHAR Uhungarumlaut
ENCODING -1
SWIDTH 600 0
DWIDTH 10 0
BBX 8 16 1 0
BITMAP
1B
12
24
00
81
81
81
81
81
81
81
81
C3
C3
66
3C
ENDCHAR
STARTCHAR uhungarumlaut
ENCODING -1
SWIDTH 600 0
DWIDTH 10 0
BBX 8 13 1 0
BITMAP
1B
12
24
00
81
81
81
81
81
81
C3
C7
7D
ENDCHAR
STARTCHAR Uogonek
ENCODING -1
SWIDTH 600 0
DWIDTH 10 0
BBX 8 16 1 -4
BITMAP
81
81
81
81
81
81
81
81
C3
C3
66
3C
08
10
10
0C
ENDCHAR
STARTCHAR uogonek
ENCODING -1
SWIDTH 600 0
DWIDTH 10 0
BBX 9 13 1 -4
BITMAP
8100
8100
8100
8100
8100
8100
C300
C700
7D00
0100
0200
0200
0180
ENDCHAR
STARTCHAR Wcircumflex
ENCODING -1
SWIDTH 600 0
DWIDTH 10 0
BBX 10 16 0 0
BITMAP
0400
0A00
1100
0000
8040
C040
C0C0
C0C0
4C80
4C80
4C80
5280
5280
5280
6180
2100
ENDCHAR
STARTCHAR wcircumflex
ENCODING -1
SWIDTH 600 0
DWIDTH 10 0
BBX 10 13 0 0
BITMAP
0400
0A00
1100
0000
8C40
CCC0
4C80
5E80
5280
5280
5280
2300
2100
ENDCHAR
STARTCHAR Ycircumflex
ENCODING -1
SWIDTH 600 0
DWIDTH 10 0
BBX 9 16 0 0
BITMAP
0800
1400
2200
0000
C080
4180
6100
2200
1200
1400
0C00
0800
0800
0800
0800
0800
ENDCHAR
STARTCHAR ycircumflex
ENCODING -1
SWIDTH 600 0
DWIDTH 10 0
BBX 8 17 1 -4
BITMAP
08
14
22
00
C3
42
42
66
24
24
3C
18
18
18
10
30
E0
ENDCHAR
STARTCHAR Ydieresis
ENCODING -1
SWIDTH 600 0
DWIDTH 10 0
BBX 9 15 0 0
BITMAP
1100
1100
0000
C080
4180
6100
2200
1200
1400
0C00
0800
0800
0800
0800
0800
ENDCHAR
STARTCHAR Zacute
ENCODING -1
SWIDTH 600 0
DWIDTH 10 0
BBX 8 16 1 0
BITMAP
0C
08
10
00
FF
03
02
04
0C
08
10
30
20
40
C0
FF
ENDCHAR
STARTCHAR zacute
ENCODING -1
SWIDTH 600 0
DWIDTH 10 0
BBX 6 13 2 0
BITMAP
18
10
20
00
FC
0C
08
10
30
20
40
C0
FC
ENDCHAR
STARTCHAR Zdotaccent
ENCODING -1
SWIDTH 600 0
DWIDTH 10 0
BBX 8 15 1 0
BITMAP
08
08
00
FF
03
02
04
0C
08
10
30
20
40
C0
FF
ENDCHAR
STARTCHAR zdotaccent
ENCODING -1
SWIDTH 600 0
DWIDTH 10 0
BBX 6 12 2 0
BITMAP
10
10
00
FC
0C
08
10
30
20
40
C0
FC
ENDCHAR
STARTCHAR Zcaron
ENCODING -1
SWIDTH 600 0
DWIDTH 10 0
BBX 8 16 1 0
BITMAP
22
14
0C
00
FF
03
02
04
0C
08
10
30
20
40
C0
FF
ENDCHAR
STARTCHAR zcaron
ENCODING -1
SWIDTH 600 0
DWIDTH 10 0
BBX 6 13 2 0
BITMAP
44
28
18
00
FC
0C
08
10
30
20
40
C0
FC
ENDCHAR
STARTCHAR longs
ENCODING -1
SWIDTH 600 0
DWIDTH 10 0
BBX 5 13 3 0
BITMAP
78
C0
80
80
80
80
80
80
80
80
80
80
80
ENDCHAR
STARTCHAR florin
ENCODING -1
SWIDTH 600 0
DWIDTH 10 0
BBX 6 16 2 -4
BITMAP
1C
30
20
20
F8
20
20
20
20
20
20
20
20
20
20
E0
ENDCHAR
STARTCHAR Aringacute
ENCODING -1
SWIDTH 600 0
DWIDTH 10 0
BBX 10 17 0 0
BITMAP
0600
0400
0C00
1200
1200
0C00
0C00
1E00
1200
1200
3300
2100
3F00
6180
4080
4080
C0C0
ENDCHAR
STARTCHAR aringacute
ENCODING -1
SWIDTH 600 0
DWIDTH 10 0
BBX 8 17 1 0
BITMAP
06
04
08
0C
12
12
0C
00
7E
43
03
01
3F
C1
83
C7
7D
ENDCHAR
STARTCHAR AEacute
ENCODING -1
SWIDTH 600 0
DWIDTH 10 0
BBX 9 16 0 0
BITMAP
0300
0200
0400
0000
1F80
1400
3400
2400
2400
2780
6400
7C00
4400
4400
C400
8780
ENDCHAR
STARTCHAR aeacute
ENCODING -1
SWIDTH 600 0
DWIDTH 10 0
BBX 10 13 0 0
BITMAP
0300
0200
0400
0000
7380
4C80
0CC0
0840
7FC0
C800
8C00
DE40
73C0
ENDCHAR
STARTCHAR Oslashacute
ENCODING -1
SWIDTH 600 0
DWIDTH 10 0
BBX 8 16 1 0
BITMAP
0C
08
10
00
3D
66
46
C7
CB
CB
D3
D3
E3
62
66
FC
ENDCHAR
STARTCHAR oslashacute
ENCODING -1
SWIDTH 600 0
DWIDTH 10 0
BBX 8 13 1 0
BITMAP
0C
08
10
00
3E
66
C7
CB
99
D3
E3
66
7C
ENDCHAR
STARTCHAR uni0218
ENCODING -1
SWIDTH 600 0
DWIDTH 10 0
BBX 8 16 1 -4
BITMAP
3F
E3
C0
C0
C0
78
0E
03
01
03
86
FC
00
08
18
10
ENDCHAR
STARTCHAR uni0219
ENCODING -1
SWIDTH 600 0
DWIDTH 10 0
BBX 6 13 2 -4
BITMAP
7C
C4
80
E0
38
0C
04
8C
F8
00
10
30
20
ENDCHAR
STARTCHAR circumflex
ENCODING -1
SWIDTH 600 0
DWIDTH 10 0
BBX 5 3 3 10
BITMAP
20
50
88
ENDCHAR
STARTCHAR caron
ENCODING -1
SWIDTH 600 0
DWIDTH 10 0
BBX 5 3 3 10
BITMAP
88
50
30
ENDCHAR
STARTCHAR uni02C9
ENCODING -1
SWIDTH 600 0
DWIDTH 10 0
BBX 5 1 2 11
BITMAP
F8
ENDCHAR
STARTCHAR breve
ENCODING -1
SWIDTH 600 0
DWIDTH 10 0
BBX 6 3 2 10
BITMAP
84
8C
78
ENDCHAR
STARTCHAR dotaccent
ENCODING -1
SWIDTH 600 0
DWIDTH 10 0
BBX 1 2 5 11
BITMAP
80
80
ENDCHAR
STARTCHAR ring
ENCODING -1
SWIDTH 600 0
DWIDTH 10 0
BBX 4 4 3 10
BITMAP
60
90
90
60
ENDCHAR
STARTCHAR ogonek
ENCODING -1
SWIDTH 600 0
DWIDTH 10 0
BBX 3 4 4 -4
BITMAP
40
80
80
60
ENDCHAR
STARTCHAR tilde
ENCODING -1
SWIDTH 600 0
DWIDTH 10 0
BBX 6 3 2 10
BITMAP
64
B4
98
ENDCHAR
STARTCHAR hungarumlaut
ENCODING -1
SWIDTH 600 0
DWIDTH 10 0
BBX 6 3 2 10
BITMAP
6C
48
90
ENDCHAR
STARTCHAR tonos
ENCODING -1
SWIDTH 600 0
DWIDTH 10 0
BBX 2 3 4 10
BITMAP
40
C0
80
ENDCHAR
STARTCHAR dieresistonos
ENCODING -1
SWIDTH 600 0
DWIDTH 10 0
BBX 5 4 2 11
BITMAP
30
20
A8
88
ENDCHAR
STARTCHAR Alphatonos
ENCODING -1
SWIDTH 600 0
DWIDTH 10 0
BBX 10 12 0 0
BITMAP
2C00
6C00
5E00
1200
1200
3300
2100
3F00
6180
4080
4080
C0C0
ENDCHAR
STARTCHAR anoteleia
ENCODING -1
SWIDTH 600 0
DWIDTH 10 0
BBX 2 2 4 5
BITMAP
C0
C0
ENDCHAR
STARTCHAR Epsilontonos
ENCODING -1
SWIDTH 600 0
DWIDTH 10 0
BBX 9 12 0 0
BITMAP
7F80
E000
A000
2000
2000
3F80
2000
2000
2000
2000
2000
3F80
ENDCHAR
STARTCHAR Etatonos
ENCODING -1
SWIDTH 600 0
DWIDTH 10 0
BBX 10 12 -1 0
BITMAP
6040
E040
A040
2040
2040
3FC0
2040
2040
2040
2040
2040
2040
ENDCHAR
STARTCHAR Iotatonos
ENCODING -1
SWIDTH 600 0
DWIDTH 10 0
BBX 9 12 -1 0
BITMAP
5F80
C400
8400
0400
0400
0400
0400
0400
0400
0400
0400
1F80
ENDCHAR
STARTCHAR Omicrontonos
ENCODING -1
SWIDTH 600 0
DWIDTH 10 0
BBX 10 12 -1 0
BITMAP
4F00
D980
9080
30C0
30C0
30C0
30C0
30C0
30C0
1080
1980
0F00
ENDCHAR
STARTCHAR Upsilontonos
ENCODING -1
SWIDTH 600 0
DWIDTH 10 0
BBX 11 12 -2 0
BITMAP
7020
D060
9840
0880
0480
0500
0300
0200
0200
0200
0200
0200
ENDCHAR
STARTCHAR Omegatonos
ENCODING -1
SWIDTH 600 0
DWIDTH 10 0
BBX 10 12 -1 0
BITMAP
4F00
D980
B0C0
30C0
30C0
30C0
30C0
30C0
30C0
1080
0900
39C0
ENDCHAR
STARTCHAR iotadieresistonos
ENCODING -1
SWIDTH 600 0
DWIDTH 10 0
BBX 6 15 2 0
BITMAP
30
20
A8
88
00
00
40
40
40
40
40
40
40
60
3C
ENDCHAR
STARTCHAR Alpha
ENCODING -1
SWIDTH 600 0
DWIDTH 10 0
BBX 10 12 0 0
BITMAP
0C00
0C00
1E00
1200
1200
3300
2100
3F00
6180
4080
4080
C0C0
ENDCHAR
STARTCHAR Beta
ENCODING -1
SWIDTH 600 0
DWIDTH 10 0
BBX 8 12 1 0
BITMAP
FE
87
83
83
83
FC
86
83
83
83
86
FC
ENDCHAR
STARTCHAR Gamma
ENCODING -1
SWIDTH 600 0
DWIDTH 10 0
BBX 8 12 1 0
BITMAP
FF
80
80
80
80
80
80
80
80
80
80
80
ENDCHAR
STARTCHAR uni0394
ENCODING -1
SWIDTH 600 0
DWIDTH 10 0
BBX 8 12 1 0
BITMAP
18
18
18
3C
24
24
66
42
42
C3
81
FF
ENDCHAR
STARTCHAR Epsilon
ENCODING -1
SWIDTH 600 0
DWIDTH 10 0
BBX 7 12 2 0
BITMAP
FE
80
80
80
80
FE
80
80
80
80
80
FE
ENDCHAR
STARTCHAR Zeta
ENCODING -1
SWIDTH 600 0
DWIDTH 10 0
BBX 8 12 1 0
BITMAP
FF
03
02
04
0C
08
10
30
20
40
C0
FF
ENDCHAR
STARTCHAR Eta
ENCODING -1
SWIDTH 600 0
DWIDTH 10 0
BBX 8 12 1 0
BITMAP
81
81
81
81
81
FF
81
81
81
81
81
81
ENDCHAR
STARTCHAR Theta
ENCODING -1
SWIDTH 600 0
DWIDTH 10 0
BBX 8 12 1 0
BITMAP
3C
66
42
C3
C3
FF
C3
C3
C3
42
66
3C
ENDCHAR
STARTCHAR Iota
ENCODING -1
SWIDTH 600 0
DWIDTH 10 0
BBX 6 12 2 0
BITMAP
FC
20
20
20
20
20
20
20
20
20
20
FC
ENDCHAR
STARTCHAR Kappa
ENCODING -1
SWIDTH 600 0
DWIDTH 10 0
BBX 9 12 1 0
BITMAP
8180
8300
8600
8C00
9800
B000
D800
8C00
8400
8600
8300
8180
ENDCHAR
STARTCHAR Lambda
ENCODING -1
SWIDTH 600 0
DWIDTH 10 0
BBX 10 12 0 0
BITMAP
0C00
0C00
1E00
1200
1200
3300
2100
2100
6180
4080
4080
80C0
ENDCHAR
STARTCHAR Mu
ENCODING -1
SWIDTH 600 0
DWIDTH 10 0
BBX 8 12 1 0
BITMAP
C3
C3
C3
C3
A5
A5
A5
A5
99
99
99
91
ENDCHAR
STARTCHAR Nu
ENCODING -1
SWIDTH 600 0
DWIDTH 10 0
BBX 8 12 1 0
BITMAP
C1
C1
A1
A1
91
91
89
89
85
85
83
83
ENDCHAR
STARTCHAR Xi
ENCODING -1
SWIDTH 600 0
DWIDTH 10 0
BBX 8 12 1 0
BITMAP
FF
00
00
00
00
7E
00
00
00
00
00
FF
ENDCHAR
STARTCHAR Omicron
ENCODING -1
SWIDTH 600 0
DWIDTH 10 0
BBX 8 12 1 0
BITMAP
3C
66
42
C3
C3
C3
C3
C3
C3
42
66
3C
ENDCHAR
STARTCHAR Pi
ENCODING -1
SWIDTH 600 0
DWIDTH 10 0
BBX 8 12 1 0
BITMAP
FF
81
81
81
81
81
81
81
81
81
81
81
ENDCHAR
STARTCHAR Rho
ENCODING -1
SWIDTH 600 0
DWIDTH 10 0
BBX 8 12 1 0
BITMAP
FC
86
83
83
83
82
FC
80
80
80
80
80
ENDCHAR
STARTCHAR Sigma
ENCODING -1
SWIDTH 600 0
DWIDTH 10 0
BBX 8 12 1 0
BITMAP
FF
C0
60
20
30
18
30
20
60
40
C0
FF
ENDCHAR
STARTCHAR Tau
ENCODING -1
SWIDTH 600 0
DWIDTH 10 0
BBX 8 12 1 0
BITMAP
FF
10
10
10
10
10
10
10
10
10
10
10
ENDCHAR
STARTCHAR Upsilon
ENCODING -1
SWIDTH 600 0
DWIDTH 10 0
BBX 9 12 0 0
BITMAP
C080
4180
6100
2200
1200
1400
0C00
0800
0800
0800
0800
0800
ENDCHAR
STARTCHAR Phi
ENCODING -1
SWIDTH 600 0
DWIDTH 10 0
BBX 9 12 0 0
BITMAP
0800
0800
3E00
4900
C980
8880
8880
C980
6B00
3E00
0800
0800
ENDCHAR
STARTCHAR Chi
ENCODING -1
SWIDTH 600 0
DWIDTH 10 0
BBX 10 12 0 0
BITMAP
C0C0
6180
2100
3300
1E00
0C00
0C00
1E00
3300
2100
4180
C0C0
ENDCHAR
STARTCHAR Psi
ENCODING -1
SWIDTH 600 0
DWIDTH 10 0
BBX 9 12 0 0
BITMAP
8880
8880
8880
8880
8880
C980
4900
3F00
0800
0800
0800
0800
ENDCHAR
STARTCHAR uni03A9
ENCODING -1
SWIDTH 600 0
DWIDTH 10 0
BBX 8 12 1 0
BITMAP
3C
66
C3
C3
C3
C3
C3
C3
C3
42
24
E7
ENDCHAR
STARTCHAR Iotadieresis
ENCODING -1
SWIDTH 600 0
DWIDTH 10 0
BBX 6 15 2 0
BITMAP
88
88
00
FC
20
20
20
20
20
20
20
20
20
20
FC
ENDCHAR
STARTCHAR Upsilondieresis
ENCODING -1
SWIDTH 600 0
DWIDTH 10 0
BBX 9 15 0 0
BITMAP
1100
1100
0000
C080
4180
6100
2200
1200
1400
0C00
0800
0800
0800
0800
0800
ENDCHAR
STARTCHAR alphatonos
ENCODING -1
SWIDTH 600 0
DWIDTH 10 0
BBX 9 13 1 0
BITMAP
0400
0C00
0800
0000
3D00
6700
C300
C100
8100
C100
C300
6700
3D80
ENDCHAR
STARTCHAR epsilontonos
ENCODING -1
SWIDTH 600 0
DWIDTH 10 0
BBX 7 13 2 0
BITMAP
04
0C
08
00
7E
C2
80
C0
78
C0
80
C2
7E
ENDCHAR
STARTCHAR etatonos
ENCODING -1
SWIDTH 600 0
DWIDTH 10 0
BBX 8 17 1 -4
BITMAP
04
0C
08
00
BE
E3
C3
81
81
81
81
81
81
01
01
01
01
ENDCHAR
STARTCHAR iotatonos
ENCODING -1
SWIDTH 600 0
DWIDTH 10 0
BBX 5 13 3 0
BITMAP
20
60
40
00
80
80
80
80
80
80
80
C0
78
ENDCHAR
STARTCHAR upsilondieresistonos
ENCODING -1
SWIDTH 600 0
DWIDTH 10 0
BBX 8 15 1 0
BITMAP
0C
08
2A
22
00
00
82
82
83
81
81
83
C3
66
3C
ENDCHAR
STARTCHAR alpha
ENCODING -1
SWIDTH 600 0
DWIDTH 10 0
BBX 9 9 1 0
BITMAP
3D00
6700
C300
C100
8100
C100
C300
6700
3D80
ENDCHAR
STARTCHAR beta
ENCODING -1
SWIDTH 600 0
DWIDTH 10 0
BBX 8 17 1 -4
BITMAP
3C
46
C6
82
86
84
98
86
83
81
83
C3
FC
80
80
80
80
ENDCHAR
STARTCHAR gamma
ENCODING -1
SWIDTH 600 0
DWIDTH 10 0
BBX 8 13 1 -4
BITMAP
C3
42
42
66
24
24
3C
18
18
18
10
10
10
ENDCHAR
STARTCHAR delta
ENCODING -1
SWIDTH 600 0
DWIDTH 10 0
BBX 8 13 1 0
BITMAP
3E
62
40
60
38
3C
66
C3
C1
81
C3
66
3C
ENDCHAR
STARTCHAR epsilon
ENCODING -1
SWIDTH 600 0
DWIDTH 10 0
BBX 7 9 2 0
BITMAP
7E
C2
80
C0
78
C0
80
C2
7E
ENDCHAR
STARTCHAR zeta
ENCODING -1
SWIDTH 600 0
DWIDTH 10 0
BBX 8 17 1 -4
BITMAP
FF
02
0C
18
30
60
40
C0
C0
80
C0
60
3E
03
01
03
02
ENDCHAR
STARTCHAR eta
ENCODING -1
SWIDTH 600 0
DWIDTH 10 0
BBX 8 13 1 -4
BITMAP
BE
E3
C3
81
81
81
81
81
81
01
01
01
01
ENDCHAR
STARTCHAR theta
ENCODING -1
SWIDTH 600 0
DWIDTH 10 0
BBX 8 12 1 0
BITMAP
3C
66
C2
C3
81
FF
81
C3
C3
42
66
3C
ENDCHAR
STARTCHAR iota
ENCODING -1
SWIDTH 600 0
DWIDTH 10 0
BBX 5 9 3 0
BITMAP
80
80
80
80
80
80
80
C0
78
ENDCHAR
STARTCHAR kappa
ENCODING -1
SWIDTH 600 0
DWIDTH 10 0
BBX 7 9 2 0
BITMAP
86
8C
98
B0
A0
D0
88
8C
86
ENDCHAR
STARTCHAR lambda
ENCODING -1
SWIDTH 600 0
DWIDTH 10 0
BBX 9 13 1 0
BITMAP
6000
1000
1800
1800
1800
1C00
3C00
2400
2600
6600
4200
C300
8180
ENDCHAR
STARTCHAR uni03BC
ENCODING -1
SWIDTH 600 0
DWIDTH 10 0
BBX 8 13 1 -4
BITMAP
81
81
81
81
81
81
C3
C7
BD
80
80
80
80
ENDCHAR
STARTCHAR nu
ENCODING -1
SWIDTH 600 0
DWIDTH 10 0
BBX 8 9 1 0
BITMAP
81
C1
43
43
62
26
24
28
10
ENDCHAR
STARTCHAR xi
ENCODING -1
SWIDTH 600 0
DWIDTH 10 0
BBX 8 17 1 -4
BITMAP
7E
10
60
40
40
60
1E
60
C0
80
C0
60
3E
03
01
03
02
ENDCHAR
STARTCHAR omicron
ENCODING -1
SWIDTH 600 0
DWIDTH 10 0
BBX 8 9 1 0
BITMAP
3C
66
C3
C3
81
C3
C3
66
3C
ENDCHAR
STARTCHAR pi
ENCODING -1
SWIDTH 600 0
DWIDTH 10 0
BBX 10 9 0 0
BITMAP
FFC0
2100
2100
2100
2100
2100
2100
2100
2180
ENDCHAR
STARTCHAR rho
ENCODING -1
SWIDTH 600 0
DWIDTH 10 0
BBX 8 13 1 -4
BITMAP
3C
66
C3
83
81
83
83
C6
BC
80
80
80
80
ENDCHAR
STARTCHAR sigma1
ENCODING -1
SWIDTH 600 0
DWIDTH 10 0
BBX 8 13 1 -4
BITMAP
3F
60
C0
C0
80
80
C0
60
3E
03
01
03
02
ENDCHAR
STARTCHAR sigma
ENCODING -1
SWIDTH 600 0
DWIDTH 10 0
BBX 9 9 1 0
BITMAP
3F80
6600
C200
C300
8100
C300
C300
6600
3C00
ENDCHAR
STARTCHAR tau
ENCODING -1
SWIDTH 600 0
DWIDTH 10 0
BBX 7 9 1 0
BITMAP
FE
20
20
20
20
20
20
30
1E
ENDCHAR
STARTCHAR upsilon
ENCODING -1
SWIDTH 600 0
DWIDTH 10 0
BBX 8 9 1 0
BITMAP
82
82
83
81
81
83
C3
66
3C
ENDCHAR
STARTCHAR phi
ENCODING -1
SWIDTH 600 0
DWIDTH 10 0
BBX 8 13 1 -4
BITMAP
4E
5A
D3
91
91
91
D3
56
7C
10
10
10
10
ENDCHAR
STARTCHAR chi
ENCODING -1
SWIDTH 600 0
DWIDTH 10 0
BBX 10 13 0 -4
BITMAP
6180
3100
1300
1A00
0C00
0C00
0C00
1C00
1600
3200
6300
4100
C1C0
ENDCHAR
STARTCHAR psi
ENCODING -1
SWIDTH 600 0
DWIDTH 10 0
BBX 8 17 1 -4
BITMAP
10
10
10
10
92
92
93
91
91
91
D3
56
7C
10
10
10
10
ENDCHAR
STARTCHAR omega
ENCODING -1
SWIDTH 600 0
DWIDTH 10 0
BBX 8 9 1 0
BITMAP
42
C3
C3
91
91
91
93
DB
6E
ENDCHAR
STARTCHAR iotadieresis
ENCODING -1
SWIDTH 600 0
DWIDTH 10 0
BBX 6 12 2 0
BITMAP
88
88
00
40
40
40
40
40
40
40
60
3C
ENDCHAR
STARTCHAR upsilondieresis
ENCODING -1
SWIDTH 600 0
DWIDTH 10 0
BBX 8 12 1 0
BITMAP
22
22
00
82
82
83
81
81
83
C3
66
3C
ENDCHAR
STARTCHAR omicrontonos
ENCODING -1
SWIDTH 600 0
DWIDTH 10 0
BBX 8 13 1 0
BITMAP
04
0C
08
00
3C
66
C3
C3
81
C3
C3
66
3C
ENDCHAR
STARTCHAR upsilontonos
ENCODING -1
SWIDTH 600 0
DWIDTH 10 0
BBX 8 13 1 0
BITMAP
04
0C
08
00
82
82
83
81
81
83
C3
66
3C
ENDCHAR
STARTCHAR omegatonos
ENCODING -1
SWIDTH 600 0
DWIDTH 10 0
BBX 8 13 1 0
BITMAP
04
0C
08
00
42
C3
C3
91
91
91
93
DB
6E
ENDCHAR
STARTCHAR uni0401
ENCODING -1
SWIDTH 600 0
DWIDTH 10 0
BBX 7 15 2 0
BITMAP
44
44
00
FE
80
80
80
80
FE
80
80
80
80
80
FE
ENDCHAR
STARTCHAR uni0402
ENCODING -1
SWIDTH 600 0
DWIDTH 10 0
BBX 9 12 0 0
BITMAP
FC00
2000
2000
2000
2000
3F00
2180
2180
2080
2080
2180
2700
ENDCHAR
STARTCHAR uni0403
ENCODING -1
SWIDTH 600 0
DWIDTH 10 0
BBX 8 16 1 0
BITMAP
0C
08
10
00
FF
80
80
80
80
80
80
80
80
80
80
80
ENDCHAR
STARTCHAR uni0404
ENCODING -1
SWIDTH 600 0
DWIDTH 10 0
BBX 8 12 1 0
BITMAP
1F
73
60
C0
C0
FC
C0
C0
C0
60
71
1F
ENDCHAR
STARTCHAR uni0405
ENCODING -1
SWIDTH 600 0
DWIDTH 10 0
BBX 8 12 1 0
BITMAP
3F
E3
C0
C0
C0
78
0E
03
01
03
86
FC
ENDCHAR
STARTCHAR uni0406
ENCODING -1
SWIDTH 600 0
DWIDTH 10 0
BBX 6 12 2 0
BITMAP
FC
20
20
20
20
20
20
20
20
20
20
FC
ENDCHAR
STARTCHAR uni0407
ENCODING -1
SWIDTH 600 0
DWIDTH 10 0
BBX 6 15 2 0
BITMAP
88
88
00
FC
20
20
20
20
20
20
20
20
20
20
FC
ENDCHAR
STARTCHAR uni0408
ENCODING -1
SWIDTH 600 0
DWIDTH 10 0
BBX 7 12 1 0
BITMAP
02
02
02
02
02
02
02
02
02
06
8C
F8
ENDCHAR
STARTCHAR uni0409
ENCODING -1
SWIDTH 600 0
DWIDTH 10 0
BBX 10 12 0 0
BITMAP
3C00
2400
2400
2400
2400
2780
24C0
2440
2440
24C0
64C0
C780
ENDCHAR
STARTCHAR uni040A
ENCODING -1
SWIDTH 600 0
DWIDTH 10 0
BBX 9 12 1 0
BITMAP
8800
8800
8800
8800
8800
FF00
8980
8880
8880
8980
8980
8F00
ENDCHAR
STARTCHAR uni040B
ENCODING -1
SWIDTH 600 0
DWIDTH 10 0
BBX 9 12 0 0
BITMAP
FC00
2000
2000
2000
2000
3F00
2180
2180
2080
2080
2080
2080
ENDCHAR
STARTCHAR uni040C
ENCODING -1
SWIDTH 600 0
DWIDTH 10 0
BBX 9 16 1 0
BITMAP
0600
0400
0800
0000
8180
8300
8600
8800
9000
E000
B000
9800
8C00
8600
8300
8180
ENDCHAR
STARTCHAR uni040E
ENCODING -1
SWIDTH 600 0
DWIDTH 10 0
BBX 10 16 0 0
BITMAP
2100
3300
1E00
0000
C0C0
4080
6180
2100
3300
1200
1E00
0C00
0C00
0800
1800
7000
ENDCHAR
STARTCHAR uni040F
ENCODING -1
SWIDTH 600 0
DWIDTH 10 0
BBX 8 15 1 -3
BITMAP
81
81
81
81
81
81
81
81
81
81
81
FF
10
10
10
ENDCHAR
STARTCHAR uni0410
ENCODING -1
SWIDTH 600 0
DWIDTH 10 0
BBX 10 12 0 0
BITMAP
0C00
0C00
1E00
1200
1200
3300
2100
3F00
6180
4080
4080
C0C0
ENDCHAR
STARTCHAR uni0411
ENCODING -1
SWIDTH 600 0
DWIDTH 10 0
BBX 8 12 1 0
BITMAP
FE
80
80
80
80
FC
86
83
83
83
86
FC
ENDCHAR
STARTCHAR uni0412
ENCODING -1
SWIDTH 600 0
DWIDTH 10 0
BBX 8 12 1 0
BITMAP
FE
87
83
83
83
FC
86
83
83
83
86
FC
ENDCHAR
STARTCHAR uni0413
ENCODING -1
SWIDTH 600 0
DWIDTH 10 0
BBX 8 12 1 0
BITMAP
FF
80
80
80
80
80
80
80
80
80
80
80
ENDCHAR
STARTCHAR uni0414
ENCODING -1
SWIDTH 600 0
DWIDTH 10 0
BBX 10 15 0 -3
BITMAP
3F00
2100
2100
2100
2100
2100
2100
2100
2100
6100
4100
FFC0
8040
8040
8040
ENDCHAR
STARTCHAR uni0415
ENCODING -1
SWIDTH 600 0
DWIDTH 10 0
BBX 7 12 2 0
BITMAP
FE
80
80
80
80
FE
80
80
80
80
80
FE
ENDCHAR
STARTCHAR uni0416
ENCODING -1
SWIDTH 600 0
DWIDTH 10 0
BBX 10 12 0 0
BITMAP
8840
4880
4980
2900
2A00
1E00
3A00
2B00
6900
4980
C880
8840
ENDCHAR
STARTCHAR uni0417
ENCODING -1
SWIDTH 600 0
DWIDTH 10 0
BBX 8 12 1 0
BITMAP
7E
C7
03
03
06
78
06
03
03
03
86
FC
ENDCHAR
STARTCHAR uni0418
ENCODING -1
SWIDTH 600 0
DWIDTH 10 0
BBX 8 12 1 0
BITMAP
83
83
85
85
89
89
91
91
A1
A1
C1
C1
ENDCHAR
STARTCHAR uni0419
ENCODING -1
SWIDTH 600 0
DWIDTH 10 0
BBX 8 16 1 0
BITMAP
42
66
3C
00
83
83
85
85
89
89
91
91
A1
A1
C1
C1
ENDCHAR
STARTCHAR uni041A
ENCODING -1
SWIDTH 600 0
DWIDTH 10 0
BBX 9 12 1 0
BITMAP
8180
8300
8600
8800
9000
E000
B000
9800
8C00
8600
8300
8180
ENDCHAR
STARTCHAR uni041B
ENCODING -1
SWIDTH 600 0
DWIDTH 10 0
BBX 9 12 0 0
BITMAP
1F80
1080
1080
1080
1080
1080
1080
1080
3080
2080
6080
C080
ENDCHAR
STARTCHAR uni041C
ENCODING -1
SWIDTH 600 0
DWIDTH 10 0
BBX 8 12 1 0
BITMAP
C3
C3
C3
C3
A5
A5
A5
A5
99
99
99
91
ENDCHAR
STARTCHAR uni041D
ENCODING -1
SWIDTH 600 0
DWIDTH 10 0
BBX 8 12 1 0
BITMAP
81
81
81
81
81
FF
81
81
81
81
81
81
ENDCHAR
STARTCHAR uni041E
ENCODING -1
SWIDTH 600 0
DWIDTH 10 0
BBX 8 12 1 0
BITMAP
3C
66
42
C3
C3
C3
C3
C3
C3
42
66
3C
ENDCHAR
STARTCHAR uni041F
ENCODING -1
SWIDTH 600 0
DWIDTH 10 0
BBX 8 12 1 0
BITMAP
FF
81
81
81
81
81
81
81
81
81
81
81
ENDCHAR
STARTCHAR uni0420
ENCODING -1
SWIDTH 600 0
DWIDTH 10 0
BBX 8 12 1 0
BITMAP
FC
86
83
83
83
82
FC
80
80
80
80
80
ENDCHAR
STARTCHAR uni0421
ENCODING -1
SWIDTH 600 0
DWIDTH 10 0
BBX 8 12 1 0
BITMAP
1F
73
60
C0
C0
C0
C0
C0
C0
60
71
1F
ENDCHAR
STARTCHAR uni0422
ENCODING -1
SWIDTH 600 0
DWIDTH 10 0
BBX 8 12 1 0
BITMAP
FF
10
10
10
10
10
10
10
10
10
10
10
ENDCHAR
STARTCHAR uni0423
ENCODING -1
SWIDTH 600 0
DWIDTH 10 0
BBX 10 12 0 0
BITMAP
C0C0
4080
6180
2100
3300
1200
1E00
0C00
0C00
0800
1800
7000
ENDCHAR
STARTCHAR uni0424
ENCODING -1
SWIDTH 600 0
DWIDTH 10 0
BBX 9 12 0 0
BITMAP
0800
0800
3E00
4900
C980
8880
8880
C980
6B00
3E00
0800
0800
ENDCHAR
STARTCHAR uni0425
ENCODING -1
SWIDTH 600 0
DWIDTH 10 0
BBX 10 12 0 0
BITMAP
C0C0
6180
2100
3300
1E00
0C00
0C00
1E00
3300
2100
4180
C0C0
ENDCHAR
STARTCHAR uni0426
ENCODING -1
SWIDTH 600 0
DWIDTH 10 0
BBX 9 15 1 -3
BITMAP
8100
8100
8100
8100
8100
8100
8100
8100
8100
8100
8100
FF80
0080
0080
0080
ENDCHAR
STARTCHAR uni0427
ENCODING -1
SWIDTH 600 0
DWIDTH 10 0
BBX 8 12 1 0
BITMAP
81
81
81
81
81
C1
C7
7D
01
01
01
01
ENDCHAR
STARTCHAR uni0428
ENCODING -1
SWIDTH 600 0
DWIDTH 10 0
BBX 8 12 1 0
BITMAP
91
91
91
91
91
91
91
91
91
91
91
FF
ENDCHAR
STARTCHAR uni0429
ENCODING -1
SWIDTH 600 0
DWIDTH 10 0
BBX 9 15 1 -3
BITMAP
9100
9100
9100
9100
9100
9100
9100
9100
9100
9100
9100
FF80
0080
0080
0080
ENDCHAR
STARTCHAR uni042A
ENCODING -1
SWIDTH 600 0
DWIDTH 10 0
BBX 9 12 0 0
BITMAP
E000
2000
2000
2000
2000
3E00
2300
2180
2180
2180
2300
3E00
ENDCHAR
STARTCHAR uni042B
ENCODING -1
SWIDTH 600 0
DWIDTH 10 0
BBX 8 12 1 0
BITMAP
81
81
81
81
81
F1
99
89
89
89
99
F1
ENDCHAR
STARTCHAR uni042C
ENCODING -1
SWIDTH 600 0
DWIDTH 10 0
BBX 8 12 1 0
BITMAP
80
80
80
80
80
FC
86
83
83
83
86
FC
ENDCHAR
STARTCHAR uni042D
ENCODING -1
SWIDTH 600 0
DWIDTH 10 0
BBX 8 12 1 0
BITMAP
F8
8E
02
03
03
3F
03
03
03
02
8E
F8
ENDCHAR
STARTCHAR uni042E
ENCODING -1
SWIDTH 600 0
DWIDTH 10 0
BBX 8 12 1 0
BITMAP
8E
8A
9B
91
91
F1
91
91
91
9B
8A
8E
ENDCHAR
STARTCHAR uni042F
ENCODING -1
SWIDTH 600 0
DWIDTH 10 0
BBX 9 12 0 0
BITMAP
1F80
3080
6080
6080
6080
3080
1F80
1880
1080
2080
4080
C080
ENDCHAR
STARTCHAR uni0430
ENCODING -1
SWIDTH 600 0
DWIDTH 10 0
BBX 8 9 1 0
BITMAP
7E
43
03
01
3F
C1
83
C7
7D
ENDCHAR
STARTCHAR uni0431
ENCODING -1
SWIDTH 600 0
DWIDTH 10 0
BBX 8 13 1 0
BITMAP
07
3C
60
40
DC
E6
C3
83
C1
C3
43
66
3C
ENDCHAR
STARTCHAR uni0432
ENCODING -1
SWIDTH 600 0
DWIDTH 10 0
BBX 8 9 1 0
BITMAP
FE
83
81
83
FC
83
81
83
FE
ENDCHAR
STARTCHAR uni0433
ENCODING -1
SWIDTH 600 0
DWIDTH 10 0
BBX 6 9 3 0
BITMAP
FC
80
80
80
80
80
80
80
80
ENDCHAR
STARTCHAR uni0434
ENCODING -1
SWIDTH 600 0
DWIDTH 10 0
BBX 9 12 0 -3
BITMAP
1F00
1100
1100
1100
3100
2100
2100
4100
FF80
8080
8080
8080
ENDCHAR
STARTCHAR uni0435
ENCODING -1
SWIDTH 600 0
DWIDTH 10 0
BBX 8 9 1 0
BITMAP
3C
66
C3
C1
FF
80
C0
61
3E
ENDCHAR
STARTCHAR uni0436
ENCODING -1
SWIDTH 600 0
DWIDTH 10 0
BBX 10 9 0 0
BITMAP
8840
4880
2900
2A00
1E00
2A00
6900
4880
8840
ENDCHAR
STARTCHAR uni0437
ENCODING -1
SWIDTH 600 0
DWIDTH 10 0
BBX 7 9 1 0
BITMAP
FC
86
02
06
3C
06
02
86
FC
ENDCHAR
STARTCHAR uni0438
ENCODING -1
SWIDTH 600 0
DWIDTH 10 0
BBX 8 9 1 0
BITMAP
83
85
85
89
99
91
A1
A1
C1
ENDCHAR
STARTCHAR uni0439
ENCODING -1
SWIDTH 600 0
DWIDTH 10 0
BBX 8 13 1 0
BITMAP
42
66
3C
00
83
85
85
89
99
91
A1
A1
C1
ENDCHAR
STARTCHAR uni043A
ENCODING -1
SWIDTH 600 0
DWIDTH 10 0
BBX 7 9 1 0
BITMAP
82
84
98
B0
E0
90
88
84
82
ENDCHAR
STARTCHAR uni043B
ENCODING -1
SWIDTH 600 0
DWIDTH 10 0
BBX 9 9 0 0
BITMAP
3F80
2080
2080
2080
2080
2080
2080
6080
C080
ENDCHAR
STARTCHAR uni043C
ENCODING -1
SWIDTH 600 0
DWIDTH 10 0
BBX 9 9 0 0
BITMAP
8080
C180
A280
A280
A280
9480
9480
9480
8880
ENDCHAR
STARTCHAR uni043D
ENCODING -1
SWIDTH 600 0
DWIDTH 10 0
BBX 8 9 1 0
BITMAP
81
81
81
81
FF
81
81
81
81
ENDCHAR
STARTCHAR uni043E
ENCODING -1
SWIDTH 600 0
DWIDTH 10 0
BBX 8 9 1 0
BITMAP
3C
66
C3
C3
81
C3
C3
66
3C
ENDCHAR
STARTCHAR uni043F
ENCODING -1
SWIDTH 600 0
DWIDTH 10 0
BBX 8 9 1 0
BITMAP
FF
81
81
81
81
81
81
81
81
ENDCHAR
STARTCHAR uni0440
ENCODING -1
SWIDTH 600 0
DWIDTH 10 0
BBX 8 13 1 -4
BITMAP
BC
E6
C3
83
81
83
C3
E6
BC
80
80
80
80
ENDCHAR
STARTCHAR uni0441
ENCODING -1
SWIDTH 600 0
DWIDTH 10 0
BBX 8 9 1 0
BITMAP
3F
61
C0
C0
80
C0
C0
61
3F
ENDCHAR
STARTCHAR uni0442
ENCODING -1
SWIDTH 600 0
DWIDTH 10 0
BBX 8 9 1 0
BITMAP
FF
10
10
10
10
10
10
10
10
ENDCHAR
STARTCHAR uni0443
ENCODING -1
SWIDTH 600 0
DWIDTH 10 0
BBX 8 13 1 -4
BITMAP
C3
42
42
66
24
24
3C
18
18
18
10
30
E0
ENDCHAR
STARTCHAR uni0444
ENCODING -1
SWIDTH 600 0
DWIDTH 10 0
BBX 8 17 1 -4
BITMAP
10
10
10
10
3C
56
D3
91
91
91
D3
56
3C
10
10
10
10
ENDCHAR
STARTCHAR uni0445
ENCODING -1
SWIDTH 600 0
DWIDTH 10 0
BBX 8 9 1 0
BITMAP
43
66
24
18
18
3C
24
66
C3
ENDCHAR
STARTCHAR uni0446
ENCODING -1
SWIDTH 600 0
DWIDTH 10 0
BBX 9 12 1 -3
BITMAP
8100
8100
8100
8100
8100
8100
8100
8100
FF80
0080
0080
0080
ENDCHAR
STARTCHAR uni0447
ENCODING -1
SWIDTH 600 0
DWIDTH 10 0
BBX 8 9 1 0
BITMAP
81
81
81
81
C7
7D
01
01
01
ENDCHAR
STARTCHAR uni0448
ENCODING -1
SWIDTH 600 0
DWIDTH 10 0
BBX 8 9 1 0
BITMAP
91
91
91
91
91
91
91
91
FF
ENDCHAR
STARTCHAR uni0449
ENCODING -1
SWIDTH 600 0
DWIDTH 10 0
BBX 9 12 1 -3
BITMAP
9100
9100
9100
9100
9100
9100
9100
9100
FF80
0080
0080
0080
ENDCHAR
STARTCHAR uni044A
ENCODING -1
SWIDTH 600 0
DWIDTH 10 0
BBX 9 9 0 0
BITMAP
F000
1000
1000
1000
1F00
1180
1080
1180
1F00
ENDCHAR
STARTCHAR uni044B
ENCODING -1
SWIDTH 600 0
DWIDTH 10 0
BBX 8 9 1 0
BITMAP
81
81
81
81
F1
99
89
99
F1
ENDCHAR
STARTCHAR uni044C
ENCODING -1
SWIDTH 600 0
DWIDTH 10 0
BBX 8 9 1 0
BITMAP
80
80
80
80
FE
83
81
83
FE
ENDCHAR
STARTCHAR uni044D
ENCODING -1
SWIDTH 600 0
DWIDTH 10 0
BBX 8 9 1 0
BITMAP
FC
86
03
03
7F
03
03
86
FC
ENDCHAR
STARTCHAR uni044E
ENCODING -1
SWIDTH 600 0
DWIDTH 10 0
BBX 10 9 0 0
BITMAP
8780
8480
8CC0
8840
F840
8840
8CC0
8480
8780
ENDCHAR
STARTCHAR uni044F
ENCODING -1
SWIDTH 600 0
DWIDTH 10 0
BBX 8 9 1 0
BITMAP
7F
C1
81
C1
7F
31
61
41
C1
ENDCHAR
STARTCHAR uni0451
ENCODING -1
SWIDTH 600 0
DWIDTH 10 0
BBX 8 12 1 0
BITMAP
22
22
00
3C
66
C3
C1
FF
80
C0
61
3E
ENDCHAR
STARTCHAR uni0452
ENCODING -1
SWIDTH 600 0
DWIDTH 10 0
BBX 9 17 0 -4
BITMAP
4000
4000
FC00
4000
5F00
7180
6180
4080
4080
4080
4080
4080
4080
0080
0080
0180
0700
ENDCHAR
STARTCHAR uni0453
ENCODING -1
SWIDTH 600 0
DWIDTH 10 0
BBX 6 13 3 0
BITMAP
18
10
20
00
FC
80
80
80
80
80
80
80
80
ENDCHAR
STARTCHAR uni0454
ENCODING -1
SWIDTH 600 0
DWIDTH 10 0
BBX 8 9 1 0
BITMAP
3F
61
C0
C0
FE
C0
C0
61
3F
ENDCHAR
STARTCHAR uni0455
ENCODING -1
SWIDTH 600 0
DWIDTH 10 0
BBX 6 9 2 0
BITMAP
7C
C4
80
E0
38
0C
04
8C
F8
ENDCHAR
STARTCHAR uni0456
ENCODING -1
SWIDTH 600 0
DWIDTH 10 0
BBX 7 13 1 0
BITMAP
10
10
00
00
70
10
10
10
10
10
10
10
FE
ENDCHAR
STARTCHAR uni0457
ENCODING -1
SWIDTH 600 0
DWIDTH 10 0
BBX 7 12 1 0
BITMAP
44
44
00
70
10
10
10
10
10
10
10
FE
ENDCHAR
STARTCHAR uni0458
ENCODING -1
SWIDTH 600 0
DWIDTH 10 0
BBX 6 17 1 -4
BITMAP
0C
0C
00
00
7C
04
04
04
04
04
04
04
04
04
04
0C
F8
ENDCHAR
STARTCHAR uni0459
ENCODING -1
SWIDTH 600 0
DWIDTH 10 0
BBX 10 9 0 0
BITMAP
3C00
2400
2400
2400
2780
24C0
2440
64C0
C780
ENDCHAR
STARTCHAR uni045A
ENCODING -1
SWIDTH 600 0
DWIDTH 10 0
BBX 9 9 1 0
BITMAP
8800
8800
8800
8800
FF00
8980
8880
8980
8F00
ENDCHAR
STARTCHAR uni045B
ENCODING -1
SWIDTH 600 0
DWIDTH 10 0
BBX 9 13 0 0
BITMAP
4000
4000
FC00
4000
5F00
7180
6180
4080
4080
4080
4080
4080
4080
ENDCHAR
STARTCHAR uni045C
ENCODING -1
SWIDTH 600 0
DWIDTH 10 0
BBX 7 13 2 0
BITMAP
0C
08
10
00
86
8C
98
B0
A0
D0
88
8C
86
ENDCHAR
STARTCHAR uni045E
ENCODING -1
SWIDTH 600 0
DWIDTH 10 0
BBX 8 17 1 -4
BITMAP
42
66
3C
00
C3
42
42
66
24
24
3C
18
18
18
10
30
E0
ENDCHAR
STARTCHAR uni045F
ENCODING -1
SWIDTH 600 0
DWIDTH 10 0
BBX 8 12 1 -3
BITMAP
81
81
81
81
81
81
81
81
FF
10
10
10
ENDCHAR
STARTCHAR uni0490
ENCODING -1
SWIDTH 600 0
DWIDTH 10 0
BBX 8 14 1 0
BITMAP
01
01
FF
80
80
80
80
80
80
80
80
80
80
80
ENDCHAR
STARTCHAR uni0491
ENCODING -1
SWIDTH 600 0
DWIDTH 10 0
BBX 6 12 3 0
BITMAP
04
04
04
FC
80
80
80
80
80
80
80
80
ENDCHAR
STARTCHAR Wgrave
ENCODING -1
SWIDTH 600 0
DWIDTH 10 0
BBX 10 16 0 0
BITMAP
1800
0800
0400
0000
8040
C040
C0C0
C0C0
4C80
4C80
4C80
5280
5280
5280
6180
2100
ENDCHAR
STARTCHAR wgrave
ENCODING -1
SWIDTH 600 0
DWIDTH 10 0
BBX 10 13 0 0
BITMAP
1800
0800
0400
0000
8C40
CCC0
4C80
5E80
5280
5280
5280
2300
2100
ENDCHAR
STARTCHAR Wacute
ENCODING -1
SWIDTH 600 0
DWIDTH 10 0
BBX 10 16 0 0
BITMAP
0600
0400
0800
0000
8040
C040
C0C0
C0C0
4C80
4C80
4C80
5280
5280
5280
6180
2100
ENDCHAR
STARTCHAR wacute
ENCODING -1
SWIDTH 600 0
DWIDTH 10 0
BBX 10 13 0 0
BITMAP
0300
0200
0400
0000
8C40
CCC0
4C80
5E80
5280
5280
5280
2300
2100
ENDCHAR
STARTCHAR Wdieresis
ENCODING -1
SWIDTH 600 0
DWIDTH 10 0
BBX 10 15 0 0
BITMAP
1100
1100
0000
8040
C040
C0C0
C0C0
4C80
4C80
4C80
5280
5280
5280
6180
2100
ENDCHAR
STARTCHAR wdieresis
ENCODING -1
SWIDTH 600 0
DWIDTH 10 0
BBX 10 12 0 0
BITMAP
1100
1100
0000
8C40
CCC0
4C80
5E80
5280
5280
5280
2300
2100
ENDCHAR
STARTCHAR Ygrave
ENCODING -1
SWIDTH 600 0
DWIDTH 10 0
BBX 9 16 0 0
BITMAP
1800
0800
0400
0000
C080
4180
6100
2200
1200
1400
0C00
0800
0800
0800
0800
0800
ENDCHAR
STARTCHAR ygrave
ENCODING -1
SWIDTH 600 0
DWIDTH 10 0
BBX 8 17 1 -4
BITMAP
30
10
08
00
C3
42
42
66
24
24
3C
18
18
18
10
30
E0
ENDCHAR
STARTCHAR endash
ENCODING -1
SWIDTH 600 0
DWIDTH 10 0
BBX 8 1 1 4
BITMAP
FF
ENDCHAR
STARTCHAR emdash
ENCODING -1
SWIDTH 600 0
DWIDTH 10 0
BBX 10 1 0 4
BITMAP
FFC0
ENDCHAR
STARTCHAR uni2015
ENCODING -1
SWIDTH 600 0
DWIDTH 10 0
BBX 10 1 0 4
BITMAP
FFC0
ENDCHAR
STARTCHAR underscoredbl
ENCODING -1
SWIDTH 600 0
DWIDTH 10 0
BBX 10 4 0 -4
BITMAP
FFC0
0000
0000
FFC0
ENDCHAR
STARTCHAR quoteleft
ENCODING -1
SWIDTH 600 0
DWIDTH 10 0
BBX 3 4 4 8
BITMAP
60
60
C0
C0
ENDCHAR
STARTCHAR quoteright
ENCODING -1
SWIDTH 600 0
DWIDTH 10 0
BBX 3 4 3 8
BITMAP
60
60
C0
C0
ENDCHAR
STARTCHAR quotesinglbase
ENCODING -1
SWIDTH 600 0
DWIDTH 10 0
BBX 3 4 3 -2
BITMAP
60
60
C0
C0
ENDCHAR
STARTCHAR quotereversed
ENCODING -1
SWIDTH 600 0
DWIDTH 10 0
BBX 3 4 4 8
BITMAP
C0
C0
60
60
ENDCHAR
STARTCHAR quotedblleft
ENCODING -1
SWIDTH 600 0
DWIDTH 10 0
BBX 7 4 2 8
BITMAP
66
66
CC
CC
ENDCHAR
STARTCHAR quotedblright
ENCODING -1
SWIDTH 600 0
DWIDTH 10 0
BBX 7 4 1 8
BITMAP
66
66
CC
CC
ENDCHAR
STARTCHAR quotedblbase
ENCODING -1
SWIDTH 600 0
DWIDTH 10 0
BBX 6 4 1 -2
BITMAP
6C
6C
D8
D8
ENDCHAR
STARTCHAR dagger
ENCODING -1
SWIDTH 600 0
DWIDTH 10 0
BBX 6 13 2 0
BITMAP
30
30
20
FC
20
20
20
20
20
30
30
30
30
ENDCHAR
STARTCHAR daggerdbl
ENCODING -1
SWIDTH 600 0
DWIDTH 10 0
BBX 6 13 2 0
BITMAP
30
30
20
FC
20
20
30
20
20
FC
20
30
30
ENDCHAR
STARTCHAR bullet
ENCODING -1
SWIDTH 600 0
DWIDTH 10 0
BBX 4 4 3 4
BITMAP
F0
F0
F0
60
ENDCHAR
STARTCHAR ellipsis
ENCODING -1
SWIDTH 600 0
DWIDTH 10 0
BBX 8 2 1 0
BITMAP
DB
DB
ENDCHAR
STARTCHAR perthousand
ENCODING -1
SWIDTH 600 0
DWIDTH 10 0
BBX 9 12 0 0
BITMAP
6000
9000
9000
9000
6000
1800
E000
1B00
2480
2480
2480
1B00
ENDCHAR
STARTCHAR minute
ENCODING -1
SWIDTH 600 0
DWIDTH 10 0
BBX 2 4 4 8
BITMAP
C0
C0
C0
C0
ENDCHAR
STARTCHAR second
ENCODING -1
SWIDTH 600 0
DWIDTH 10 0
BBX 6 4 2 8
BITMAP
CC
CC
CC
CC
ENDCHAR
STARTCHAR guilsinglleft
ENCODING -1
SWIDTH 600 0
DWIDTH 10 0
BBX 3 7 3 1
BITMAP
20
60
40
80
40
60
20
ENDCHAR
STARTCHAR guilsinglright
ENCODING -1
SWIDTH 600 0
DWIDTH 10 0
BBX 3 7 4 1
BITMAP
80
C0
40
20
40
C0
80
ENDCHAR
STARTCHAR exclamdbl
ENCODING -1
SWIDTH 600 0
DWIDTH 10 0
BBX 6 12 2 0
BITMAP
CC
CC
CC
CC
CC
CC
CC
44
00
00
CC
CC
ENDCHAR
STARTCHAR fraction
ENCODING -1
SWIDTH 600 0
DWIDTH 10 0
BBX 8 12 1 0
BITMAP
03
02
06
04
08
08
10
10
20
60
40
C0
ENDCHAR
STARTCHAR uni207F
ENCODING -1
SWIDTH 600 0
DWIDTH 10 0
BBX 5 7 2 5
BITMAP
B0
C8
88
88
88
88
88
ENDCHAR
STARTCHAR franc
ENCODING -1
SWIDTH 600 0
DWIDTH 10 0
BBX 8 12 1 0
BITMAP
7F
40
40
40
40
7F
40
40
40
F8
40
40
ENDCHAR
STARTCHAR lira
ENCODING -1
SWIDTH 600 0
DWIDTH 10 0
BBX 8 12 1 0
BITMAP
1E
30
20
20
FC
20
20
FC
20
20
40
FF
ENDCHAR
STARTCHAR peseta
ENCODING -1
SWIDTH 600 0
DWIDTH 10 0
BBX 8 12 1 0
BITMAP
F0
98
88
88
8A
9A
F7
82
82
82
82
83
ENDCHAR
STARTCHAR Euro
ENCODING -1
SWIDTH 600 0
DWIDTH 10 0
BBX 8 12 1 0
BITMAP
1F
31
20
60
FC
40
40
FC
60
20
31
1F
ENDCHAR
STARTCHAR uni2105
ENCODING -1
SWIDTH 600 0
DWIDTH 10 0
BBX 10 12 0 0
BITMAP
7180
8100
8300
8200
7400
0400
0800
0B80
1440
3440
2440
6380
ENDCHAR
STARTCHAR uni2113
ENCODING -1
SWIDTH 600 0
DWIDTH 10 0
BBX 6 12 2 0
BITMAP
38
64
44
44
4C
58
70
C0
40
44
6C
38
ENDCHAR
STARTCHAR uni2116
ENCODING -1
SWIDTH 600 0
DWIDTH 10 0
BBX 10 12 0 0
BITMAP
8800
8800
C800
C800
A980
AA40
AA40
AA40
9A40
9980
8800
8BC0
ENDCHAR
STARTCHAR trademark
ENCODING -1
SWIDTH 600 0
DWIDTH 10 0
BBX 9 6 0 6
BITMAP
ED80
4D80
4D80
4D80
4A80
4A80
ENDCHAR
STARTCHAR Omega
ENCODING -1
SWIDTH 600 0
DWIDTH 10 0
BBX 8 12 1 0
BITMAP
3C
66
C3
C3
C3
C3
C3
C3
C3
42
24
E7
ENDCHAR
STARTCHAR estimated
ENCODING -1
SWIDTH 600 0
DWIDTH 10 0
BBX 8 9 1 0
BITMAP
3C
42
C3
C3
FF
C0
C0
42
3C
ENDCHAR
STARTCHAR oneeighth
ENCODING -1
SWIDTH 600 0
DWIDTH 10 0
BBX 10 12 0 0
BITMAP
6180
E100
2300
2200
2400
2780
2C40
0EC0
1380
3440
2440
6380
ENDCHAR
STARTCHAR threeeighths
ENCODING -1
SWIDTH 600 0
DWIDTH 10 0
BBX 10 12 0 0
BITMAP
F180
0900
0B00
7200
0C00
0F80
FC40
0EC0
1380
3440
2440
6380
ENDCHAR
STARTCHAR fiveeighths
ENCODING -1
SWIDTH 600 0
DWIDTH 10 0
BBX 10 12 0 0
BITMAP
F980
8100
8300
F200
0C00
0F80
FC40
0EC0
1380
3440
2440
6380
ENDCHAR
STARTCHAR seveneighths
ENCODING -1
SWIDTH 600 0
DWIDTH 10 0
BBX 10 12 0 0
BITMAP
FB00
0A00
1600
1400
2800
2B80
5440
16C0
2380
6440
4440
C380
ENDCHAR
STARTCHAR partialdiff
ENCODING -1
SWIDTH 600 0
DWIDTH 10 0
BBX 8 12 1 0
BITMAP
3C
26
03
01
3D
63
43
C3
82
C6
CC
78
ENDCHAR
STARTCHAR Delta
ENCODING -1
SWIDTH 600 0
DWIDTH 10 0
BBX 8 12 1 0
BITMAP
18
18
18
3C
24
24
66
42
42
C3
81
FF
ENDCHAR
STARTCHAR product
ENCODING -1
SWIDTH 600 0
DWIDTH 10 0
BBX 8 16 1 -4
BITMAP
FF
81
81
81
81
81
81
81
81
81
81
81
81
81
81
81
ENDCHAR
STARTCHAR summation
ENCODING -1
SWIDTH 600 0
DWIDTH 10 0
BBX 8 16 1 -4
BITMAP
FE
C0
60
20
30
18
18
0C
18
18
30
30
60
60
C0
FF
ENDCHAR
STARTCHAR minus
ENCODING -1
SWIDTH 600 0
DWIDTH 10 0
BBX 8 1 1 5
BITMAP
FF
ENDCHAR
STARTCHAR radical
ENCODING -1
SWIDTH 600 0
DWIDTH 10 0
BBX 10 13 0 0
BITMAP
0040
0080
0080
0080
0100
0100
C200
6200
2200
3400
1400
1C00
0800
ENDCHAR
STARTCHAR infinity
ENCODING -1
SWIDTH 600 0
DWIDTH 10 0
BBX 8 5 1 3
BITMAP
66
9B
91
99
66
ENDCHAR
STARTCHAR integral
ENCODING -1
SWIDTH 600 0
DWIDTH 10 0
BBX 5 17 2 -4
BITMAP
18
30
20
20
20
20
20
20
20
20
20
20
20
20
20
20
C0
ENDCHAR
STARTCHAR approxequal
ENCODING -1
SWIDTH 600 0
DWIDTH 10 0
BBX 8 6 1 3
BITMAP
70
99
0E
70
99
0E
ENDCHAR
STARTCHAR notequal
ENCODING -1
SWIDTH 600 0
DWIDTH 10 0
BBX 8 9 1 1
BITMAP
02
04
FF
08
18
10
FF
20
40
ENDCHAR
STARTCHAR lessequal
ENCODING -1
SWIDTH 600 0
DWIDTH 10 0
BBX 8 10 1 0
BITMAP
01
06
38
E0
E0
38
06
01
00
FF
ENDCHAR
STARTCHAR greaterequal
ENCODING -1
SWIDTH 600 0
DWIDTH 10 0
BBX 8 10 1 0
BITMAP
80
60
1C
07
07
1C
60
80
00
FF
ENDCHAR
STARTCHAR lozenge
ENCODING -1
SWIDTH 600 0
DWIDTH 10 0
BBX 8 12 1 0
BITMAP
18
18
3C
24
42
C3
C3
42
24
3C
18
18
ENDCHAR
STARTCHAR uniFB01
ENCODING -1
SWIDTH 600 0
DWIDTH 10 0
BBX 9 13 0 0
BITMAP
1E80
3080
2000
2000
FC80
2080
2080
2080
2080
2080
2080
2080
2080
ENDCHAR
STARTCHAR uniFB02
ENCODING -1
SWIDTH 600 0
DWIDTH 10 0
BBX 9 13 0 0
BITMAP
1E80
3080
2080
2080
FC80
2080
2080
2080
2080
2080
2080
2080
2080
ENDCHAR
STARTCHAR glyph566
ENCODING -1
SWIDTH 600 0
DWIDTH 10 0
BBX 6 3 2 10
BITMAP
84
CC
78
ENDCHAR
STARTCHAR glyph567
ENCODING -1
SWIDTH 600 0
DWIDTH 10 0
BBX 6 13 1 -4
BITMAP
7C
04
04
04
04
04
04
04
04
04
04
0C
F8
ENDCHAR
STARTCHAR glyph568
ENCODING -1
SWIDTH 600 0
DWIDTH 10 0
BBX 2 3 4 10
BITMAP
C0
C0
80
ENDCHAR
STARTCHAR glyph569
ENCODING -1
SWIDTH 600 0
DWIDTH 10 0
BBX 2 3 4 -4
BITMAP
40
C0
80
ENDCHAR
STARTCHAR glyph570
ENCODING -1
SWIDTH 600 0
DWIDTH 10 0
BBX 2 3 4 10
BITMAP
40
C0
80
ENDCHAR
STARTCHAR glyph571
ENCODING -1
SWIDTH 600 0
DWIDTH 10 0
BBX 5 7 2 5
BITMAP
10
30
50
90
F8
10
10
ENDCHAR
STARTCHAR glyph572
ENCODING -1
SWIDTH 600 0
DWIDTH 10 0
BBX 5 7 2 5
BITMAP
F8
80
80
F0
08
08
F0
ENDCHAR
STARTCHAR glyph573
ENCODING -1
SWIDTH 600 0
DWIDTH 10 0
BBX 5 7 2 5
BITMAP
F8
08
10
10
20
20
40
ENDCHAR
STARTCHAR glyph574
ENCODING -1
SWIDTH 600 0
DWIDTH 10 0
BBX 5 7 2 5
BITMAP
70
88
D8
70
88
88
70
ENDCHAR
STARTCHAR uni2000
ENCODING -1
SWIDTH 600 0
DWIDTH 10 0
BBX 1 1 0 0
BITMAP
00
ENDCHAR
STARTCHAR uni2001
ENCODING -1
SWIDTH 600 0
DWIDTH 10 0
BBX 1 1 0 0
BITMAP
00
ENDCHAR
STARTCHAR uni2002
ENCODING -1
SWIDTH 600 0
DWIDTH 10 0
BBX 1 1 0 0
BITMAP
00
ENDCHAR
STARTCHAR uni2003
ENCODING -1
SWIDTH 600 0
DWIDTH 10 0
BBX 1 1 0 0
BITMAP
00
ENDCHAR
STARTCHAR uni2004
ENCODING -1
SWIDTH 600 0
DWIDTH 10 0
BBX 1 1 0 0
BITMAP
00
ENDCHAR
STARTCHAR uni2005
ENCODING -1
SWIDTH 600 0
DWIDTH 10 0
BBX 1 1 0 0
BITMAP
00
ENDCHAR
STARTCHAR uni2006
ENCODING -1
SWIDTH 600 0
DWIDTH 10 0
BBX 1 1 0 0
BITMAP
00
ENDCHAR
STARTCHAR uni2007
ENCODING -1
SWIDTH 600 0
DWIDTH 10 0
BBX 1 1 0 0
BITMAP
00
ENDCHAR
STARTCHAR uni2008
ENCODING -1
SWIDTH 600 0
DWIDTH 10 0
BBX 1 1 0 0
BITMAP
00
ENDCHAR
STARTCHAR uni2009
ENCODING -1
SWIDTH 600 0
DWIDTH 10 0
BBX 1 1 0 0
BITMAP
00
ENDCHAR
STARTCHAR uni200A
ENCODING -1
SWIDTH 600 0
DWIDTH 10 0
BBX 1 1 0 0
BITMAP
00
ENDCHAR
STARTCHAR uni200B
ENCODING -1
SWIDTH 600 0
DWIDTH 10 0
BBX 1 1 0 0
BITMAP
00
ENDCHAR
STARTCHAR uniFEFF
ENCODING -1
SWIDTH 600 0
DWIDTH 10 0
BBX 1 1 0 0
BITMAP
00
ENDCHAR
STARTCHAR uniFFFC
ENCODING -1
SWIDTH 600 0
DWIDTH 10 0
BBX 9 15 0 -3
BITMAP
DD80
8080
3800
A880
A880
3800
8E80
8E80
0A00
0E00
8680
8280
0200
8680
DD80
ENDCHAR
STARTCHAR uniFFFD
ENCODING -1
SWIDTH 600 0
DWIDTH 10 0
BBX 9 15 0 -3
BITMAP
0800
0800
1C00
3E00
2200
6900
F980
F380
F780
7F00
3600
3600
1C00
0800
0800
ENDCHAR
STARTCHAR uni01F0
ENCODING -1
SWIDTH 600 0
DWIDTH 10 0
BBX 7 17 1 -4
BITMAP
22
14
0C
00
7C
04
04
04
04
04
04
04
04
04
04
0C
F8
ENDCHAR
STARTCHAR uni02BC
ENCODING -1
SWIDTH 600 0
DWIDTH 10 0
BBX 3 4 3 8
BITMAP
60
60
C0
C0
ENDCHAR
STARTCHAR theta1
ENCODING -1
SWIDTH 600 0
DWIDTH 10 0
BBX 10 13 0 0
BITMAP
1E00
3300
2100
3180
1980
0FC0
C080
6080
6180
4180
4100
6300
3C00
ENDCHAR
STARTCHAR Upsilon1
ENCODING -1
SWIDTH 600 0
DWIDTH 10 0
BBX 9 12 0 0
BITMAP
C180
4100
6300
2200
3600
1400
0C00
0800
0800
0800
0800
0800
ENDCHAR
STARTCHAR omega1
ENCODING -1
SWIDTH 600 0
DWIDTH 10 0
BBX 8 9 1 0
BITMAP
FF
42
C3
81
91
91
91
DB
6E
ENDCHAR
STARTCHAR uni1E3E
ENCODING -1
SWIDTH 600 0
DWIDTH 10 0
BBX 8 16 1 0
BITMAP
06
04
08
00
C3
C3
C3
C3
A5
A5
A5
A5
99
99
99
91
ENDCHAR
STARTCHAR uni1E3F
ENCODING -1
SWIDTH 600 0
DWIDTH 10 0
BBX 8 13 1 0
BITMAP
06
04
08
00
B6
DB
D9
99
99
99
99
99
99
ENDCHAR
STARTCHAR uni1E00
ENCODING -1
SWIDTH 600 0
DWIDTH 10 0
BBX 10 17 0 -5
BITMAP
0C00
0C00
1E00
1200
1200
3300
2100
3F00
6180
4080
4080
C0C0
0000
0C00
1200
1200
0C00
ENDCHAR
STARTCHAR uni1E01
ENCODING -1
SWIDTH 600 0
DWIDTH 10 0
BBX 8 14 1 -5
BITMAP
7E
43
03
01
3F
C1
83
C7
7D
00
18
24
24
18
ENDCHAR
STARTCHAR uni1F4D
ENCODING -1
SWIDTH 600 0
DWIDTH 10 0
BBX 13 12 -3 0
BITMAP
49E0
9330
D210
0618
0618
0618
0618
0618
0618
0210
0330
01E0
ENDCHAR
STARTCHAR uni02F3
ENCODING -1
SWIDTH 600 0
DWIDTH 10 0
BBX 4 4 3 -5
BITMAP
60
90
90
60
ENDCHAR
STARTCHAR glyph601
ENCODING -1
SWIDTH 600 0
DWIDTH 10 0
BBX 5 3 2 9
BITMAP
48
90
D0
ENDCHAR
STARTCHAR uniFB03
ENCODING -1
SWIDTH 600 0
DWIDTH 10 0
BBX 8 13 0 0
BITMAP
3F
6C
48
48
FF
49
49
49
49
49
49
49
49
ENDCHAR
STARTCHAR uniFB04
ENCODING -1
SWIDTH 600 0
DWIDTH 10 0
BBX 8 13 0 0
BITMAP
3F
6D
49
49
FD
49
49
49
49
49
49
49
49
ENDCHAR
STARTCHAR Ohorn
ENCODING -1
SWIDTH 600 0
DWIDTH 10 0
BBX 9 13 1 0
BITMAP
0180
3D80
6700
4200
C300
C300
C300
C300
C300
C300
4200
6600
3C00
ENDCHAR
STARTCHAR ohorn
ENCODING -1
SWIDTH 600 0
DWIDTH 10 0
BBX 9 10 1 0
BITMAP
0180
3D80
6700
C300
C300
8100
C300
C300
6600
3C00
ENDCHAR
STARTCHAR Uhorn
ENCODING -1
SWIDTH 600 0
DWIDTH 10 0
BBX 9 13 1 0
BITMAP
0180
8380
8300
8300
8200
8200
8200
8200
8200
8200
C600
4600
7C00
ENDCHAR
STARTCHAR uhorn
ENCODING -1
SWIDTH 600 0
DWIDTH 10 0
BBX 9 10 1 0
BITMAP
0180
8380
8300
8200
8200
8200
8200
8600
C600
7A00
ENDCHAR
STARTCHAR gravecomb
ENCODING -1
SWIDTH 600 0
DWIDTH 10 0
BBX 3 3 4 10
BITMAP
C0
40
20
ENDCHAR
STARTCHAR acutecomb
ENCODING -1
SWIDTH 600 0
DWIDTH 10 0
BBX 3 3 4 10
BITMAP
60
40
80
ENDCHAR
STARTCHAR tildecomb
ENCODING -1
SWIDTH 600 0
DWIDTH 10 0
BBX 6 3 2 10
BITMAP
64
B4
98
ENDCHAR
STARTCHAR hookabovecomb
ENCODING -1
SWIDTH 600 0
DWIDTH 10 0
BBX 3 4 3 9
BITMAP
E0
20
40
40
ENDCHAR
STARTCHAR dotbelowcomb
ENCODING -1
SWIDTH 600 0
DWIDTH 10 0
BBX 2 2 4 -3
BITMAP
C0
C0
ENDCHAR
STARTCHAR uni0400
ENCODING -1
SWIDTH 600 0
DWIDTH 10 0
BBX 7 16 2 0
BITMAP
30
10
08
00
FE
80
80
80
80
FE
80
80
80
80
80
FE
ENDCHAR
STARTCHAR uni040D
ENCODING -1
SWIDTH 600 0
DWIDTH 10 0
BBX 8 16 1 0
BITMAP
30
10
08
00
83
83
85
85
89
89
91
91
A1
A1
C1
C1
ENDCHAR
STARTCHAR uni0450
ENCODING -1
SWIDTH 600 0
DWIDTH 10 0
BBX 8 13 1 0
BITMAP
30
10
08
00
3C
66
C3
C1
FF
80
C0
61
3E
ENDCHAR
STARTCHAR uni045D
ENCODING -1
SWIDTH 600 0
DWIDTH 10 0
BBX 8 13 1 0
BITMAP
30
10
08
00
83
85
85
89
99
91
A1
A1
C1
ENDCHAR
STARTCHAR uni0460
ENCODING -1
SWIDTH 600 0
DWIDTH 10 0
BBX 8 12 1 0
BITMAP
66
E7
C3
81
81
81
81
91
93
D3
52
6E
ENDCHAR
STARTCHAR uni0461
ENCODING -1
SWIDTH 600 0
DWIDTH 10 0
BBX 9 9 0 0
BITMAP
9080
D880
4880
4980
4980
5900
7D00
3600
3600
ENDCHAR
STARTCHAR uni0462
ENCODING -1
SWIDTH 600 0
DWIDTH 10 0
BBX 9 13 0 0
BITMAP
2000
2000
FE00
2000
2000
2000
3E00
2300
2180
2180
2180
2300
3E00
ENDCHAR
STARTCHAR uni0463
ENCODING -1
SWIDTH 600 0
DWIDTH 10 0
BBX 9 11 0 0
BITMAP
2000
2000
FC00
2000
2000
2000
3F00
2180
2080
2180
3F00
ENDCHAR
STARTCHAR uni0464
ENCODING -1
SWIDTH 600 0
DWIDTH 10 0
BBX 8 12 1 0
BITMAP
8F
99
90
B0
A0
FE
A0
A0
B0
90
99
8F
ENDCHAR
STARTCHAR uni0465
ENCODING -1
SWIDTH 600 0
DWIDTH 10 0
BBX 8 9 1 0
BITMAP
87
89
98
90
FE
90
98
88
8F
ENDCHAR
STARTCHAR uni0466
ENCODING -1
SWIDTH 600 0
DWIDTH 10 0
BBX 10 12 0 0
BITMAP
0C00
0C00
1E00
1200
1200
3F00
2900
2900
6980
4880
4880
C8C0
ENDCHAR
STARTCHAR uni0467
ENCODING -1
SWIDTH 600 0
DWIDTH 10 0
BBX 9 9 0 0
BITMAP
0800
1400
1400
3600
3E00
2B00
4900
4900
C980
ENDCHAR
STARTCHAR uni0468
ENCODING -1
SWIDTH 600 0
DWIDTH 10 0
BBX 9 12 1 0
BITMAP
8400
8400
8A00
8A00
8A00
FE00
9500
9500
9500
9500
B580
A480
ENDCHAR
STARTCHAR uni0469
ENCODING -1
SWIDTH 600 0
DWIDTH 10 0
BBX 9 9 1 0
BITMAP
8400
8A00
8A00
8A00
FF00
9500
9500
B580
A480
ENDCHAR
STARTCHAR uni046A
ENCODING -1
SWIDTH 600 0
DWIDTH 10 0
BBX 10 12 0 0
BITMAP
7F80
6180
2100
1200
1C00
3F00
6980
4980
4880
4880
C8C0
8840
ENDCHAR
STARTCHAR uni046B
ENCODING -1
SWIDTH 600 0
DWIDTH 10 0
BBX 10 9 0 0
BITMAP
7F80
2100
3300
1E00
3F00
6D80
4C80
4C80
CCC0
ENDCHAR
STARTCHAR uni046C
ENCODING -1
SWIDTH 600 0
DWIDTH 10 0
BBX 9 12 1 0
BITMAP
BF80
B180
9100
9B00
8A00
FF00
9500
B580
B580
B580
B580
A480
ENDCHAR
STARTCHAR uni046D
ENCODING -1
SWIDTH 600 0
DWIDTH 10 0
BBX 9 9 1 0
BITMAP
9F00
9B00
8A00
8A00
FF00
9500
9500
B580
A480
ENDCHAR
STARTCHAR uni046E
ENCODING -1
SWIDTH 600 0
DWIDTH 10 0
BBX 8 17 1 -3
BITMAP
66
38
7C
C7
03
03
06
78
06
03
03
03
06
7C
C0
C0
7F
ENDCHAR
STARTCHAR uni046F
ENCODING -1
SWIDTH 600 0
DWIDTH 10 0
BBX 7 14 1 -3
BITMAP
66
28
FC
86
02
06
38
06
02
06
7C
80
C0
7E
ENDCHAR
STARTCHAR uni0470
ENCODING -1
SWIDTH 600 0
DWIDTH 10 0
BBX 9 12 0 0
BITMAP
8880
8880
8880
8880
8880
C980
4900
3F00
0800
0800
0800
0800
ENDCHAR
STARTCHAR uni0471
ENCODING -1
SWIDTH 600 0
DWIDTH 10 0
BBX 8 17 1 -4
BITMAP
10
10
10
10
92
92
93
91
91
91
D3
56
7C
10
10
10
10
ENDCHAR
STARTCHAR uni0472
ENCODING -1
SWIDTH 600 0
DWIDTH 10 0
BBX 8 12 1 0
BITMAP
3C
66
42
C3
C3
FF
C3
C3
C3
42
66
3C
ENDCHAR
STARTCHAR uni0473
ENCODING -1
SWIDTH 600 0
DWIDTH 10 0
BBX 8 9 1 0
BITMAP
3C
66
C3
C3
FF
C3
C3
66
3C
ENDCHAR
STARTCHAR uni0474
ENCODING -1
SWIDTH 600 0
DWIDTH 10 0
BBX 9 12 1 0
BITMAP
C180
C300
4200
4200
6600
6400
2400
2400
3C00
1800
1800
1800
ENDCHAR
STARTCHAR uni0475
ENCODING -1
SWIDTH 600 0
DWIDTH 10 0
BBX 8 9 1 0
BITMAP
C3
C2
44
64
64
2C
28
38
18
ENDCHAR
STARTCHAR uni0476
ENCODING -1
SWIDTH 600 0
DWIDTH 10 0
BBX 9 16 1 0
BITMAP
6C00
2400
1200
0000
C180
C300
4200
4200
6600
6400
2400
2400
3C00
1800
1800
1800
ENDCHAR
STARTCHAR uni0477
ENCODING -1
SWIDTH 600 0
DWIDTH 10 0
BBX 8 13 1 0
BITMAP
D8
48
24
00
C3
C2
44
64
64
2C
28
38
18
ENDCHAR
STARTCHAR uni0478
ENCODING -1
SWIDTH 600 0
DWIDTH 10 0
BBX 9 16 1 -4
BITMAP
6000
F000
9000
9880
9880
9580
9500
9500
9500
9500
F300
6200
0200
0200
0200
0C00
ENDCHAR
STARTCHAR uni0479
ENCODING -1
SWIDTH 600 0
DWIDTH 10 0
BBX 9 13 1 -4
BITMAP
6C80
FD80
9580
9500
9500
9500
9700
F300
6200
0200
0200
0600
0C00
ENDCHAR
STARTCHAR uni047A
ENCODING -1
SWIDTH 600 0
DWIDTH 10 0
BBX 8 14 1 -1
BITMAP
18
3C
7E
C2
C3
C3
C3
C3
C3
C3
C2
7E
3C
18
ENDCHAR
STARTCHAR uni047B
ENCODING -1
SWIDTH 600 0
DWIDTH 10 0
BBX 8 11 1 -1
BITMAP
18
3C
5E
C3
C3
81
C3
C3
7E
3C
18
ENDCHAR
STARTCHAR uni047C
ENCODING -1
SWIDTH 600 0
DWIDTH 10 0
BBX 8 17 1 0
BITMAP
38
26
18
10
00
66
C3
C3
81
81
81
81
81
C3
C3
52
7E
ENDCHAR
STARTCHAR uni047D
ENCODING -1
SWIDTH 600 0
DWIDTH 10 0
BBX 8 14 1 0
BITMAP
70
4C
18
18
00
66
C3
81
81
81
81
C3
C3
7E
ENDCHAR
STARTCHAR uni047E
ENCODING -1
SWIDTH 600 0
DWIDTH 10 0
BBX 8 15 1 0
BITMAP
7E
52
00
6E
C2
C3
81
81
81
81
91
93
D3
52
7E
ENDCHAR
STARTCHAR uni047F
ENCODING -1
SWIDTH 600 0
DWIDTH 10 0
BBX 9 12 0 0
BITMAP
3F00
2900
0000
9880
D880
4880
4880
4880
5500
7500
3700
3600
ENDCHAR
STARTCHAR uni0480
ENCODING -1
SWIDTH 600 0
DWIDTH 10 0
BBX 9 16 1 -4
BITMAP
1F80
3180
6000
C000
C000
C000
C000
C000
C000
6000
3000
1E00
0200
0200
0200
0200
ENDCHAR
STARTCHAR uni0481
ENCODING -1
SWIDTH 600 0
DWIDTH 10 0
BBX 8 13 1 -4
BITMAP
3F
61
C0
C0
80
C0
C0
60
3C
04
04
04
04
ENDCHAR
STARTCHAR uni0482
ENCODING -1
SWIDTH 600 0
DWIDTH 10 0
BBX 8 10 1 0
BITMAP
02
06
34
1E
0B
18
D0
38
2C
40
ENDCHAR
STARTCHAR uni0483
ENCODING -1
SWIDTH 600 0
DWIDTH 10 0
BBX 6 3 2 9
BITMAP
04
FC
80
ENDCHAR
STARTCHAR uni0484
ENCODING -1
SWIDTH 600 0
DWIDTH 10 0
BBX 6 2 2 10
BITMAP
3C
C4
ENDCHAR
STARTCHAR uni0485
ENCODING -1
SWIDTH 600 0
DWIDTH 10 0
BBX 2 3 4 10
BITMAP
C0
80
40
ENDCHAR
STARTCHAR uni0486
ENCODING -1
SWIDTH 600 0
DWIDTH 10 0
BBX 2 3 4 10
BITMAP
C0
40
80
ENDCHAR
STARTCHAR uni0488
ENCODING -1
SWIDTH 600 0
DWIDTH 10 0
BBX 9 8 0 0
BITMAP
0C00
6300
0000
C180
0000
2100
0800
0400
ENDCHAR
STARTCHAR uni0489
ENCODING -1
SWIDTH 600 0
DWIDTH 10 0
BBX 9 9 0 0
BITMAP
0800
2900
2200
0000
C180
0000
2200
6900
0800
ENDCHAR
STARTCHAR uni048A
ENCODING -1
SWIDTH 600 0
DWIDTH 10 0
BBX 10 18 1 -3
BITMAP
6600
3C00
0000
8300
8300
8500
8500
8900
8900
9100
9100
A100
A100
C100
C1C0
00C0
0080
0080
ENDCHAR
STARTCHAR uni048B
ENCODING -1
SWIDTH 600 0
DWIDTH 10 0
BBX 8 15 1 -3
BITMAP
CC
78
00
86
8E
8A
9A
92
B2
A2
E2
C3
03
02
02
ENDCHAR
STARTCHAR uni048C
ENCODING -1
SWIDTH 600 0
DWIDTH 10 0
BBX 8 12 1 0
BITMAP
40
F8
40
40
40
7C
46
43
43
43
46
7C
ENDCHAR
STARTCHAR uni048D
ENCODING -1
SWIDTH 600 0
DWIDTH 10 0
BBX 8 13 1 0
BITMAP
40
40
F8
40
40
40
40
40
7E
43
41
43
7E
ENDCHAR
STARTCHAR uni048E
ENCODING -1
SWIDTH 600 0
DWIDTH 10 0
BBX 8 12 1 0
BITMAP
FC
87
83
83
93
8E
FC
82
80
80
80
80
ENDCHAR
STARTCHAR uni048F
ENCODING -1
SWIDTH 600 0
DWIDTH 10 0
BBX 8 13 1 -4
BITMAP
BC
E6
C3
83
81
83
D3
CE
BC
82
80
80
80
ENDCHAR
STARTCHAR uni0492
ENCODING -1
SWIDTH 600 0
DWIDTH 10 0
BBX 8 12 1 0
BITMAP
7F
40
40
40
40
F8
40
40
40
40
40
40
ENDCHAR
STARTCHAR uni0493
ENCODING -1
SWIDTH 600 0
DWIDTH 10 0
BBX 7 9 1 0
BITMAP
7E
40
40
40
F8
40
40
40
40
ENDCHAR
STARTCHAR uni0494
ENCODING -1
SWIDTH 600 0
DWIDTH 10 0
BBX 8 16 1 -4
BITMAP
FC
80
80
80
80
F8
8E
82
83
83
83
83
03
02
06
7C
ENDCHAR
STARTCHAR uni0495
ENCODING -1
SWIDTH 600 0
DWIDTH 10 0
BBX 7 13 2 -4
BITMAP
F8
80
80
80
F8
8C
86
86
82
06
06
0C
78
ENDCHAR
STARTCHAR uni0496
ENCODING -1
SWIDTH 600 0
DWIDTH 10 0
BBX 10 15 0 -3
BITMAP
C8C0
4880
6900
2B00
3A00
1E00
3E00
2A00
2B00
4900
4980
C8C0
0040
0040
0040
ENDCHAR
STARTCHAR uni0497
ENCODING -1
SWIDTH 600 0
DWIDTH 10 0
BBX 10 12 0 -3
BITMAP
C880
4980
2900
3A00
1E00
3A00
6900
4980
C8C0
0040
0040
0040
ENDCHAR
STARTCHAR uni0498
ENCODING -1
SWIDTH 600 0
DWIDTH 10 0
BBX 8 15 1 -3
BITMAP
7E
C7
03
03
06
78
06
03
03
03
86
FC
08
08
18
ENDCHAR
STARTCHAR uni0499
ENCODING -1
SWIDTH 600 0
DWIDTH 10 0
BBX 7 12 1 -3
BITMAP
FC
86
02
06
3C
06
02
86
FC
08
08
18
ENDCHAR
STARTCHAR uni049A
ENCODING -1
SWIDTH 600 0
DWIDTH 10 0
BBX 9 15 1 -3
BITMAP
8100
8200
8400
8800
9000
E000
A000
9000
8800
8400
8200
8180
0080
0080
0080
ENDCHAR
STARTCHAR uni049B
ENCODING -1
SWIDTH 600 0
DWIDTH 10 0
BBX 7 12 2 -3
BITMAP
86
8C
98
B0
E0
B0
98
8C
86
02
02
02
ENDCHAR
STARTCHAR uni049C
ENCODING -1
SWIDTH 600 0
DWIDTH 10 0
BBX 9 12 1 0
BITMAP
8180
8300
9600
9C00
9800
B000
F800
9C00
9400
9600
8300
8180
ENDCHAR
STARTCHAR uni049D
ENCODING -1
SWIDTH 600 0
DWIDTH 10 0
BBX 7 9 2 0
BITMAP
86
94
98
98
F0
98
9C
96
82
ENDCHAR
STARTCHAR uni049E
ENCODING -1
SWIDTH 600 0
DWIDTH 10 0
BBX 10 12 0 0
BITMAP
40C0
F980
4300
4600
4C00
5800
6C00
4600
4300
4100
4180
40C0
ENDCHAR
STARTCHAR uni049F
ENCODING -1
SWIDTH 600 0
DWIDTH 10 0
BBX 8 13 1 0
BITMAP
40
40
FC
40
41
42
44
48
58
6C
46
42
41
ENDCHAR
STARTCHAR uni04A0
ENCODING -1
SWIDTH 600 0
DWIDTH 10 0
BBX 9 12 0 0
BITMAP
E180
2100
2200
2600
2400
2C00
3400
2600
2200
2300
2100
2180
ENDCHAR
STARTCHAR uni04A1
ENCODING -1
SWIDTH 600 0
DWIDTH 10 0
BBX 10 9 0 0
BITMAP
F0C0
1180
1300
1600
1C00
1600
1300
1180
10C0
ENDCHAR
STARTCHAR uni04A2
ENCODING -1
SWIDTH 600 0
DWIDTH 10 0
BBX 9 15 1 -3
BITMAP
8100
8100
8100
8100
8100
FF00
8100
8100
8100
8100
8100
8180
0080
0080
0080
ENDCHAR
STARTCHAR uni04A3
ENCODING -1
SWIDTH 600 0
DWIDTH 10 0
BBX 8 12 1 -3
BITMAP
82
82
82
82
FE
82
82
82
83
01
01
01
ENDCHAR
STARTCHAR uni04A4
ENCODING -1
SWIDTH 600 0
DWIDTH 10 0
BBX 9 12 1 0
BITMAP
8380
8200
8200
8200
8200
FE00
8200
8200
8200
8200
8200
8200
ENDCHAR
STARTCHAR uni04A5
ENCODING -1
SWIDTH 600 0
DWIDTH 10 0
BBX 8 9 1 0
BITMAP
87
84
84
84
FC
84
84
84
84
ENDCHAR
STARTCHAR uni04A6
ENCODING -1
SWIDTH 600 0
DWIDTH 10 0
BBX 8 16 1 -4
BITMAP
F0
90
90
90
90
9E
92
93
91
91
91
91
01
03
02
0E
ENDCHAR
STARTCHAR uni04A7
ENCODING -1
SWIDTH 600 0
DWIDTH 10 0
BBX 8 13 1 -4
BITMAP
F0
90
90
90
9E
92
93
91
91
01
03
03
0E
ENDCHAR
STARTCHAR uni04A8
ENCODING -1
SWIDTH 600 0
DWIDTH 10 0
BBX 9 13 1 -1
BITMAP
3C00
6000
4000
C700
CD80
CD80
CD80
CD80
CD80
4500
6700
3F00
0180
ENDCHAR
STARTCHAR uni04A9
ENCODING -1
SWIDTH 600 0
DWIDTH 10 0
BBX 8 9 1 0
BITMAP
38
60
CE
DB
91
DB
DB
6E
3F
ENDCHAR
STARTCHAR uni04AA
ENCODING -1
SWIDTH 600 0
DWIDTH 10 0
BBX 8 15 1 -3
BITMAP
1F
73
60
C0
C0
C0
C0
C0
C0
60
71
1F
04
04
0C
ENDCHAR
STARTCHAR uni04AB
ENCODING -1
SWIDTH 600 0
DWIDTH 10 0
BBX 8 12 1 -3
BITMAP
3F
61
C0
C0
80
C0
C0
61
3F
04
04
0C
ENDCHAR
STARTCHAR uni04AC
ENCODING -1
SWIDTH 600 0
DWIDTH 10 0
BBX 8 15 1 -3
BITMAP
FF
10
10
10
10
10
10
10
10
10
10
18
08
08
08
ENDCHAR
STARTCHAR uni04AD
ENCODING -1
SWIDTH 600 0
DWIDTH 10 0
BBX 8 12 1 -3
BITMAP
FF
10
10
10
10
10
10
10
18
08
08
08
ENDCHAR
STARTCHAR uni04AE
ENCODING -1
SWIDTH 600 0
DWIDTH 10 0
BBX 9 12 0 0
BITMAP
C080
4180
6100
2200
1200
1400
0C00
0800
0800
0800
0800
0800
ENDCHAR
STARTCHAR uni04AF
ENCODING -1
SWIDTH 600 0
DWIDTH 10 0
BBX 8 13 1 -4
BITMAP
C3
42
42
66
24
24
3C
18
18
18
18
18
18
ENDCHAR
STARTCHAR uni04B0
ENCODING -1
SWIDTH 600 0
DWIDTH 10 0
BBX 9 12 0 0
BITMAP
C080
4180
6100
2300
3200
1600
1C00
0800
3F00
0800
0800
0800
ENDCHAR
STARTCHAR uni04B1
ENCODING -1
SWIDTH 600 0
DWIDTH 10 0
BBX 8 13 1 -4
BITMAP
81
C2
42
46
64
2C
28
38
18
7E
10
10
10
ENDCHAR
STARTCHAR uni04B2
ENCODING -1
SWIDTH 600 0
DWIDTH 10 0
BBX 9 15 0 -3
BITMAP
C300
4200
6600
2400
1800
1800
1800
3C00
2600
6200
4300
C180
0080
0080
0080
ENDCHAR
STARTCHAR uni04B3
ENCODING -1
SWIDTH 600 0
DWIDTH 10 0
BBX 8 12 1 -3
BITMAP
C6
44
28
38
10
28
6C
46
C3
01
01
01
ENDCHAR
STARTCHAR uni04B4
ENCODING -1
SWIDTH 600 0
DWIDTH 10 0
BBX 9 15 0 -3
BITMAP
F900
2100
2100
2100
2100
2100
2100
2100
2100
2100
2100
3F80
0080
0080
0080
ENDCHAR
STARTCHAR uni04B5
ENCODING -1
SWIDTH 600 0
DWIDTH 10 0
BBX 9 12 0 -3
BITMAP
F900
2100
2100
2100
2100
2100
2100
2100
3F80
0080
0080
0080
ENDCHAR
STARTCHAR uni04B6
ENCODING -1
SWIDTH 600 0
DWIDTH 10 0
BBX 9 15 1 -3
BITMAP
8100
8100
8100
8100
8100
C100
C700
7D00
0100
0100
0100
0180
0080
0080
0080
ENDCHAR
STARTCHAR uni04B7
ENCODING -1
SWIDTH 600 0
DWIDTH 10 0
BBX 8 12 1 -3
BITMAP
82
82
82
82
C6
7A
02
02
03
01
01
01
ENDCHAR
STARTCHAR uni04B8
ENCODING -1
SWIDTH 600 0
DWIDTH 10 0
BBX 8 12 1 0
BITMAP
81
81
81
81
89
89
CB
7D
09
09
01
01
ENDCHAR
STARTCHAR uni04B9
ENCODING -1
SWIDTH 600 0
DWIDTH 10 0
BBX 8 9 1 0
BITMAP
81
81
81
91
D3
7D
11
11
01
ENDCHAR
STARTCHAR uni04BA
ENCODING -1
SWIDTH 600 0
DWIDTH 10 0
BBX 8 12 1 0
BITMAP
80
80
80
80
BE
E3
83
81
81
81
81
81
ENDCHAR
STARTCHAR uni04BB
ENCODING -1
SWIDTH 600 0
DWIDTH 10 0
BBX 8 9 1 0
BITMAP
80
80
80
BE
E3
81
81
81
81
ENDCHAR
STARTCHAR uni04BC
ENCODING -1
SWIDTH 600 0
DWIDTH 10 0
BBX 9 12 0 0
BITMAP
0E00
1900
3180
B180
B180
FF80
3000
3000
3000
1000
1880
0F80
ENDCHAR
STARTCHAR uni04BD
ENCODING -1
SWIDTH 600 0
DWIDTH 10 0
BBX 9 9 0 0
BITMAP
0E00
1900
B180
B080
FF80
2000
3000
1880
0F80
ENDCHAR
STARTCHAR uni04BE
ENCODING -1
SWIDTH 600 0
DWIDTH 10 0
BBX 9 15 0 -3
BITMAP
0E00
1900
3180
B180
B180
FF80
3000
3000
3000
1000
1880
0F80
0400
0400
0400
ENDCHAR
STARTCHAR uni04BF
ENCODING -1
SWIDTH 600 0
DWIDTH 10 0
BBX 9 12 0 -3
BITMAP
0E00
1900
B180
B080
FF80
2000
3000
1880
0F80
0400
0400
0400
ENDCHAR
STARTCHAR uni04C0
ENCODING -1
SWIDTH 600 0
DWIDTH 10 0
BBX 6 12 2 0
BITMAP
FC
20
20
20
20
20
20
20
20
20
20
FC
ENDCHAR
STARTCHAR uni04C1
ENCODING -1
SWIDTH 600 0
DWIDTH 10 0
BBX 10 16 0 0
BITMAP
2100
3300
1E00
0000
8840
4880
4980
2900
2A00
1E00
3A00
2B00
6900
4980
C880
8840
ENDCHAR
STARTCHAR uni04C2
ENCODING -1
SWIDTH 600 0
DWIDTH 10 0
BBX 10 13 0 0
BITMAP
2100
3300
1E00
0000
8840
4880
2900
2A00
1E00
2A00
6900
4880
8840
ENDCHAR
STARTCHAR uni04C3
ENCODING -1
SWIDTH 600 0
DWIDTH 10 0
BBX 8 16 1 -4
BITMAP
83
86
8C
88
90
A0
FC
86
83
83
83
83
03
03
06
7C
ENDCHAR
STARTCHAR uni04C4
ENCODING -1
SWIDTH 600 0
DWIDTH 10 0
BBX 7 13 2 -4
BITMAP
86
8C
98
B0
F8
8C
86
86
82
06
06
0C
78
ENDCHAR
STARTCHAR uni04C5
ENCODING -1
SWIDTH 600 0
DWIDTH 10 0
BBX 10 15 0 -3
BITMAP
0F00
0900
0900
1900
1900
1900
1100
1100
1100
3100
2100
E1C0
00C0
0080
0080
ENDCHAR
STARTCHAR uni04C6
ENCODING -1
SWIDTH 600 0
DWIDTH 10 0
BBX 9 12 0 -3
BITMAP
1F00
1100
1100
1100
3100
3100
2100
6100
C180
0180
0100
0100
ENDCHAR
STARTCHAR uni04C7
ENCODING -1
SWIDTH 600 0
DWIDTH 10 0
BBX 8 16 1 -4
BITMAP
81
81
81
81
81
FF
81
81
81
81
81
81
03
03
06
3C
ENDCHAR
STARTCHAR uni04C8
ENCODING -1
SWIDTH 600 0
DWIDTH 10 0
BBX 8 13 1 -4
BITMAP
81
81
81
81
FF
81
81
81
81
01
03
06
3C
ENDCHAR
STARTCHAR uni04C9
ENCODING -1
SWIDTH 600 0
DWIDTH 10 0
BBX 9 15 1 -3
BITMAP
8200
8200
8200
8200
8200
FE00
8200
8200
8200
8200
8200
8380
0180
0100
0100
ENDCHAR
STARTCHAR uni04CA
ENCODING -1
SWIDTH 600 0
DWIDTH 10 0
BBX 8 12 1 -3
BITMAP
82
82
82
82
FE
82
82
82
83
03
02
02
ENDCHAR
STARTCHAR uni04CB
ENCODING -1
SWIDTH 600 0
DWIDTH 10 0
BBX 8 15 1 -3
BITMAP
81
81
81
81
81
81
C3
7F
01
01
01
03
02
02
02
ENDCHAR
STARTCHAR uni04CC
ENCODING -1
SWIDTH 600 0
DWIDTH 10 0
BBX 8 12 1 -3
BITMAP
81
81
81
81
C3
7D
01
01
03
02
02
02
ENDCHAR
STARTCHAR uni04CD
ENCODING -1
SWIDTH 600 0
DWIDTH 10 0
BBX 9 15 1 -3
BITMAP
8100
C300
C300
C300
A500
A500
A500
A500
9900
9900
9900
9980
0080
0100
0100
ENDCHAR
STARTCHAR uni04CE
ENCODING -1
SWIDTH 600 0
DWIDTH 10 0
BBX 9 12 1 -3
BITMAP
C300
C300
A500
A500
A500
A500
9900
9900
9980
0080
0100
0100
ENDCHAR
STARTCHAR uni04CF
ENCODING -1
SWIDTH 600 0
DWIDTH 10 0
BBX 6 12 2 0
BITMAP
FC
20
20
20
20
20
20
20
20
20
20
FC
ENDCHAR
STARTCHAR uni04D0
ENCODING -1
SWIDTH 600 0
DWIDTH 10 0
BBX 10 16 0 0
BITMAP
2100
3300
1E00
0000
0C00
0C00
1E00
1200
1200
3300
2100
3F00
6180
4080
4080
C0C0
ENDCHAR
STARTCHAR uni04D1
ENCODING -1
SWIDTH 600 0
DWIDTH 10 0
BBX 8 13 1 0
BITMAP
21
33
1E
00
7E
43
03
01
3F
C1
83
C7
7D
ENDCHAR
STARTCHAR uni04D2
ENCODING -1
SWIDTH 600 0
DWIDTH 10 0
BBX 10 15 0 0
BITMAP
1100
1100
0000
0C00
0C00
1E00
1200
1200
3300
2100
3F00
6180
4080
4080
C0C0
ENDCHAR
STARTCHAR uni04D3
ENCODING -1
SWIDTH 600 0
DWIDTH 10 0
BBX 8 12 1 0
BITMAP
22
22
00
7E
43
03
01
3F
C1
83
C7
7D
ENDCHAR
STARTCHAR uni04D4
ENCODING -1
SWIDTH 600 0
DWIDTH 10 0
BBX 9 12 0 0
BITMAP
1F80
1400
3400
2400
2400
2780
6400
7C00
4400
4400
C400
8780
ENDCHAR
STARTCHAR uni04D5
ENCODING -1
SWIDTH 600 0
DWIDTH 10 0
BBX 10 9 0 0
BITMAP
7380
4C80
0CC0
0840
7FC0
C800
8C00
DE40
73C0
ENDCHAR
STARTCHAR uni04D6
ENCODING -1
SWIDTH 600 0
DWIDTH 10 0
BBX 7 16 2 0
BITMAP
42
66
3C
00
FE
80
80
80
80
FE
80
80
80
80
80
FE
ENDCHAR
STARTCHAR uni04D7
ENCODING -1
SWIDTH 600 0
DWIDTH 10 0
BBX 8 13 1 0
BITMAP
42
66
3C
00
3C
66
C3
C1
FF
80
C0
61
3E
ENDCHAR
STARTCHAR uni04D8
ENCODING -1
SWIDTH 600 0
DWIDTH 10 0
BBX 8 12 1 0
BITMAP
7C
46
02
03
03
FF
C3
C3
C3
42
66
3C
ENDCHAR
STARTCHAR uni04D9
ENCODING -1
SWIDTH 600 0
DWIDTH 10 0
BBX 8 9 1 0
BITMAP
FC
86
03
03
FF
83
C3
66
3C
ENDCHAR
STARTCHAR uni04DA
ENCODING -1
SWIDTH 600 0
DWIDTH 10 0
BBX 8 15 1 0
BITMAP
22
22
00
7C
46
02
03
03
FF
C3
C3
C3
42
66
3C
ENDCHAR
STARTCHAR uni04DB
ENCODING -1
SWIDTH 600 0
DWIDTH 10 0
BBX 8 12 1 0
BITMAP
22
22
00
FC
86
03
03
FF
83
C3
66
3C
ENDCHAR
STARTCHAR uni04DC
ENCODING -1
SWIDTH 600 0
DWIDTH 10 0
BBX 10 15 0 0
BITMAP
1100
1100
0000
8840
4880
4980
2900
2A00
1E00
3A00
2B00
6900
4980
C880
8840
ENDCHAR
STARTCHAR uni04DD
ENCODING -1
SWIDTH 600 0
DWIDTH 10 0
BBX 10 12 0 0
BITMAP
1100
1100
0000
8840
4880
2900
2A00
1E00
2A00
6900
4880
8840
ENDCHAR
STARTCHAR uni04DE
ENCODING -1
SWIDTH 600 0
DWIDTH 10 0
BBX 8 15 1 0
BITMAP
22
22
00
7E
C7
03
03
06
78
06
03
03
03
86
FC
ENDCHAR
STARTCHAR uni04DF
ENCODING -1
SWIDTH 600 0
DWIDTH 10 0
BBX 7 12 1 0
BITMAP
44
44
00
FC
86
02
06
3C
06
02
86
FC
ENDCHAR
STARTCHAR uni04E0
ENCODING -1
SWIDTH 600 0
DWIDTH 10 0
BBX 8 12 1 0
BITMAP
FF
03
04
08
30
3E
07
03
03
03
86
FC
ENDCHAR
STARTCHAR uni04E1
ENCODING -1
SWIDTH 600 0
DWIDTH 10 0
BBX 8 13 1 -4
BITMAP
FF
02
04
08
10
3C
06
03
01
01
03
86
FC
ENDCHAR
STARTCHAR uni04E2
ENCODING -1
SWIDTH 600 0
DWIDTH 10 0
BBX 8 14 1 0
BITMAP
3E
00
83
83
85
85
89
89
91
91
A1
A1
C1
C1
ENDCHAR
STARTCHAR uni04E3
ENCODING -1
SWIDTH 600 0
DWIDTH 10 0
BBX 8 11 1 0
BITMAP
3E
00
83
85
85
89
99
91
A1
A1
C1
ENDCHAR
STARTCHAR uni04E4
ENCODING -1
SWIDTH 600 0
DWIDTH 10 0
BBX 8 15 1 0
BITMAP
22
22
00
83
83
85
85
89
89
91
91
A1
A1
C1
C1
ENDCHAR
STARTCHAR uni04E5
ENCODING -1
SWIDTH 600 0
DWIDTH 10 0
BBX 8 12 1 0
BITMAP
22
22
00
83
85
85
89
99
91
A1
A1
C1
ENDCHAR
STARTCHAR uni04E6
ENCODING -1
SWIDTH 600 0
DWIDTH 10 0
BBX 8 15 1 0
BITMAP
22
22
00
3C
66
42
C3
C3
C3
C3
C3
C3
42
66
3C
ENDCHAR
STARTCHAR uni04E7
ENCODING -1
SWIDTH 600 0
DWIDTH 10 0
BBX 8 12 1 0
BITMAP
22
22
00
3C
66
C3
C3
81
C3
C3
66
3C
ENDCHAR
STARTCHAR uni04E8
ENCODING -1
SWIDTH 600 0
DWIDTH 10 0
BBX 8 12 1 0
BITMAP
3C
66
42
C3
C3
FF
C3
C3
C3
42
66
3C
ENDCHAR
STARTCHAR uni04E9
ENCODING -1
SWIDTH 600 0
DWIDTH 10 0
BBX 8 9 1 0
BITMAP
3C
66
C3
C3
FF
C3
C3
66
3C
ENDCHAR
STARTCHAR uni04EA
ENCODING -1
SWIDTH 600 0
DWIDTH 10 0
BBX 8 15 1 0
BITMAP
22
22
00
3C
66
42
C3
C3
FF
C3
C3
C3
42
66
3C
ENDCHAR
STARTCHAR uni04EB
ENCODING -1
SWIDTH 600 0
DWIDTH 10 0
BBX 8 12 1 0
BITMAP
22
22
00
3C
66
C3
C3
FF
C3
C3
66
3C
ENDCHAR
STARTCHAR uni04EC
ENCODING -1
SWIDTH 600 0
DWIDTH 10 0
BBX 8 15 1 0
BITMAP
44
44
00
F8
8E
02
03
03
3F
03
03
03
02
8E
F8
ENDCHAR
STARTCHAR uni04ED
ENCODING -1
SWIDTH 600 0
DWIDTH 10 0
BBX 8 12 1 0
BITMAP
44
44
00
FC
86
03
03
7F
03
03
86
FC
ENDCHAR
STARTCHAR uni04EE
ENCODING -1
SWIDTH 600 0
DWIDTH 10 0
BBX 10 14 0 0
BITMAP
1F00
0000
C0C0
4080
6180
2100
3300
1200
1E00
0C00
0C00
0800
1800
7000
ENDCHAR
STARTCHAR uni04EF
ENCODING -1
SWIDTH 600 0
DWIDTH 10 0
BBX 8 15 1 -4
BITMAP
3E
00
C3
42
42
66
24
24
3C
18
18
18
10
30
E0
ENDCHAR
STARTCHAR uni04F0
ENCODING -1
SWIDTH 600 0
DWIDTH 10 0
BBX 10 15 0 0
BITMAP
1100
1100
0000
C0C0
4080
6180
2100
3300
1200
1E00
0C00
0C00
0800
1800
7000
ENDCHAR
STARTCHAR uni04F1
ENCODING -1
SWIDTH 600 0
DWIDTH 10 0
BBX 8 16 1 -4
BITMAP
22
22
00
C3
42
42
66
24
24
3C
18
18
18
10
30
E0
ENDCHAR
STARTCHAR uni04F2
ENCODING -1
SWIDTH 600 0
DWIDTH 10 0
BBX 10 16 0 0
BITMAP
0D80
0900
1200
0000
C0C0
4080
6180
2100
3300
1200
1E00
0C00
0C00
0800
1800
7000
ENDCHAR
STARTCHAR uni04F3
ENCODING -1
SWIDTH 600 0
DWIDTH 10 0
BBX 8 17 1 -4
BITMAP
1B
12
24
00
C3
42
42
66
24
24
3C
18
18
18
10
30
E0
ENDCHAR
STARTCHAR uni04F4
ENCODING -1
SWIDTH 600 0
DWIDTH 10 0
BBX 8 15 1 0
BITMAP
22
22
00
81
81
81
81
81
C1
C7
7D
01
01
01
01
ENDCHAR
STARTCHAR uni04F5
ENCODING -1
SWIDTH 600 0
DWIDTH 10 0
BBX 8 12 1 0
BITMAP
22
22
00
81
81
81
81
C7
7D
01
01
01
ENDCHAR
STARTCHAR uni04F6
ENCODING -1
SWIDTH 600 0
DWIDTH 10 0
BBX 7 15 2 -3
BITMAP
FE
80
80
80
80
80
80
80
80
80
80
C0
40
40
40
ENDCHAR
STARTCHAR uni04F7
ENCODING -1
SWIDTH 600 0
DWIDTH 10 0
BBX 6 12 2 -3
BITMAP
FC
80
80
80
80
80
80
80
C0
40
40
40
ENDCHAR
STARTCHAR uni04F8
ENCODING -1
SWIDTH 600 0
DWIDTH 10 0
BBX 8 15 1 0
BITMAP
22
22
00
81
81
81
81
81
F1
99
89
89
89
99
F1
ENDCHAR
STARTCHAR uni04F9
ENCODING -1
SWIDTH 600 0
DWIDTH 10 0
BBX 8 12 1 0
BITMAP
22
22
00
81
81
81
81
F1
99
89
99
F1
ENDCHAR
STARTCHAR uni04FA
ENCODING -1
SWIDTH 600 0
DWIDTH 10 0
BBX 8 15 1 -3
BITMAP
7F
40
40
40
40
F8
40
40
40
40
40
60
20
20
E0
ENDCHAR
STARTCHAR uni04FB
ENCODING -1
SWIDTH 600 0
DWIDTH 10 0
BBX 7 12 1 -3
BITMAP
7E
40
40
40
F8
40
40
40
60
20
20
E0
ENDCHAR
STARTCHAR uni04FC
ENCODING -1
SWIDTH 600 0
DWIDTH 10 0
BBX 10 15 0 -3
BITMAP
C0C0
6180
2100
3300
1E00
0C00
0C00
1E00
3300
2100
4180
C0C0
0040
0040
01C0
ENDCHAR
STARTCHAR uni04FD
ENCODING -1
SWIDTH 600 0
DWIDTH 10 0
BBX 8 12 1 -3
BITMAP
43
66
24
18
18
3C
24
66
C3
01
01
07
ENDCHAR
STARTCHAR uni04FE
ENCODING -1
SWIDTH 600 0
DWIDTH 10 0
BBX 9 12 0 0
BITMAP
C180
4100
6200
3600
1400
7F00
1C00
1400
2200
6300
4100
C180
ENDCHAR
STARTCHAR uni04FF
ENCODING -1
SWIDTH 600 0
DWIDTH 10 0
BBX 8 9 1 0
BITMAP
C3
66
24
3C
7F
18
24
66
C3
ENDCHAR
STARTCHAR uni0500
ENCODING -1
SWIDTH 600 0
DWIDTH 10 0
BBX 7 12 1 0
BITMAP
02
02
02
02
02
3E
62
C2
C2
C2
62
3E
ENDCHAR
STARTCHAR uni0501
ENCODING -1
SWIDTH 600 0
DWIDTH 10 0
BBX 8 13 1 0
BITMAP
01
01
01
01
3D
67
C3
C1
81
C1
C3
67
3D
ENDCHAR
STARTCHAR uni0502
ENCODING -1
SWIDTH 600 0
DWIDTH 10 0
BBX 9 12 0 0
BITMAP
0800
0800
0800
0800
0800
7880
C880
C880
8880
C880
CD80
7700
ENDCHAR
STARTCHAR uni0503
ENCODING -1
SWIDTH 600 0
DWIDTH 10 0
BBX 9 13 0 0
BITMAP
0800
0800
0800
0800
7800
D800
C800
8880
8880
8880
C880
DD80
7700
ENDCHAR
STARTCHAR uni0504
ENCODING -1
SWIDTH 600 0
DWIDTH 10 0
BBX 9 12 0 0
BITMAP
7000
9800
0800
0800
0800
7080
1880
0880
0880
0880
0D80
0700
ENDCHAR
STARTCHAR uni0505
ENCODING -1
SWIDTH 600 0
DWIDTH 10 0
BBX 9 9 0 0
BITMAP
F800
8800
0800
0800
7080
0880
0880
0D80
0700
ENDCHAR
STARTCHAR uni0506
ENCODING -1
SWIDTH 600 0
DWIDTH 10 0
BBX 9 15 0 -3
BITMAP
7C00
C600
0600
0600
0400
7800
0600
0300
0100
0100
0100
0180
0080
0080
0080
ENDCHAR
STARTCHAR uni0507
ENCODING -1
SWIDTH 600 0
DWIDTH 10 0
BBX 8 12 1 -3
BITMAP
FC
86
02
06
38
06
02
02
03
01
01
01
ENDCHAR
STARTCHAR uni0508
ENCODING -1
SWIDTH 600 0
DWIDTH 10 0
BBX 9 12 0 0
BITMAP
3800
2800
2800
2800
2800
2880
6880
4880
4880
4880
4D80
C700
ENDCHAR
STARTCHAR uni0509
ENCODING -1
SWIDTH 600 0
DWIDTH 10 0
BBX 9 9 0 0
BITMAP
3800
2800
6800
6880
6880
6880
4880
4D80
C700
ENDCHAR
STARTCHAR uni050A
ENCODING -1
SWIDTH 600 0
DWIDTH 10 0
BBX 8 12 1 0
BITMAP
90
90
90
90
90
F1
91
91
91
91
9B
8E
ENDCHAR
STARTCHAR uni050B
ENCODING -1
SWIDTH 600 0
DWIDTH 10 0
BBX 8 9 1 0
BITMAP
90
90
90
90
F1
91
91
9B
8E
ENDCHAR
STARTCHAR uni050C
ENCODING -1
SWIDTH 600 0
DWIDTH 10 0
BBX 8 12 1 0
BITMAP
1F
73
40
C0
C0
CF
C1
C1
C3
43
66
3C
ENDCHAR
STARTCHAR uni050D
ENCODING -1
SWIDTH 600 0
DWIDTH 10 0
BBX 8 9 1 0
BITMAP
3E
62
C0
C0
8F
C1
C3
62
3C
ENDCHAR
STARTCHAR uni050E
ENCODING -1
SWIDTH 600 0
DWIDTH 10 0
BBX 9 12 0 0
BITMAP
FF00
1000
1000
1000
1000
1080
1080
1080
1080
1980
1980
0F00
ENDCHAR
STARTCHAR uni050F
ENCODING -1
SWIDTH 600 0
DWIDTH 10 0
BBX 9 9 0 0
BITMAP
FE00
1000
1000
1080
1080
1080
1080
1980
0F00
ENDCHAR
STARTCHAR uni0510
ENCODING -1
SWIDTH 600 0
DWIDTH 10 0
BBX 8 12 1 0
BITMAP
3E
E3
C0
C0
40
3E
E0
C0
C0
C0
61
3F
ENDCHAR
STARTCHAR uni0511
ENCODING -1
SWIDTH 600 0
DWIDTH 10 0
BBX 7 9 2 0
BITMAP
7E
C2
80
C0
78
C0
80
C2
7E
ENDCHAR
STARTCHAR uni0512
ENCODING -1
SWIDTH 600 0
DWIDTH 10 0
BBX 9 12 0 0
BITMAP
1F80
1080
1080
1080
1080
1080
1080
1080
3080
2080
6080
C080
ENDCHAR
STARTCHAR uni0513
ENCODING -1
SWIDTH 600 0
DWIDTH 10 0
BBX 9 9 0 0
BITMAP
3F80
2080
2080
2080
2080
2080
2080
6080
C080
ENDCHAR
STARTCHAR uni1EA0
ENCODING -1
SWIDTH 600 0
DWIDTH 10 0
BBX 10 15 0 -3
BITMAP
0C00
0C00
1E00
1200
1200
3300
2100
3F00
6180
4080
4080
C0C0
0000
0C00
0C00
ENDCHAR
STARTCHAR uni1EA1
ENCODING -1
SWIDTH 600 0
DWIDTH 10 0
BBX 8 12 1 -3
BITMAP
7E
43
03
01
3F
C1
83
C7
7D
00
18
18
ENDCHAR
STARTCHAR uni1EA2
ENCODING -1
SWIDTH 600 0
DWIDTH 10 0
BBX 10 17 0 0
BITMAP
0E00
0200
0400
0400
0000
0C00
0C00
1E00
1200
1200
3300
2100
3F00
6180
4080
4080
C0C0
ENDCHAR
STARTCHAR uni1EA3
ENCODING -1
SWIDTH 600 0
DWIDTH 10 0
BBX 8 14 1 0
BITMAP
1C
04
08
08
00
7E
43
03
01
3F
C1
83
C7
7D
ENDCHAR
STARTCHAR uni1EA4
ENCODING -1
SWIDTH 600 0
DWIDTH 10 0
BBX 10 17 0 0
BITMAP
0080
0100
0E00
1B00
0000
0C00
0C00
1E00
1200
1200
3300
2100
3F00
6180
4080
4080
C0C0
ENDCHAR
STARTCHAR uni1EA5
ENCODING -1
SWIDTH 600 0
DWIDTH 10 0
BBX 8 14 1 0
BITMAP
01
02
1C
36
00
7E
43
03
01
3F
C1
83
C7
7D
ENDCHAR
STARTCHAR uni1EA6
ENCODING -1
SWIDTH 600 0
DWIDTH 10 0
BBX 10 17 0 0
BITMAP
4000
2000
1C00
3600
0000
0C00
0C00
1E00
1200
1200
3300
2100
3F00
6180
4080
4080
C0C0
ENDCHAR
STARTCHAR uni1EA7
ENCODING -1
SWIDTH 600 0
DWIDTH 10 0
BBX 8 14 1 0
BITMAP
40
20
1C
36
00
7E
43
03
01
3F
C1
83
C7
7D
ENDCHAR
STARTCHAR uni1EA8
ENCODING -1
SWIDTH 600 0
DWIDTH 10 0
BBX 10 18 0 0
BITMAP
0180
0080
0100
0E00
1B00
0000
0C00
0C00
1E00
1200
1200
3300
2100
3F00
6180
4080
4080
C0C0
ENDCHAR
STARTCHAR uni1EA9
ENCODING -1
SWIDTH 600 0
DWIDTH 10 0
BBX 8 15 1 0
BITMAP
03
01
02
1C
36
00
7E
43
03
01
3F
C1
83
C7
7D
ENDCHAR
STARTCHAR uni1EAA
ENCODING -1
SWIDTH 600 0
DWIDTH 10 0
BBX 10 17 0 0
BITMAP
0D00
1600
0E00
1B00
0000
0C00
0C00
1E00
1200
1200
3300
2100
3F00
6180
4080
4080
C0C0
ENDCHAR
STARTCHAR uni1EAB
ENCODING -1
SWIDTH 600 0
DWIDTH 10 0
BBX 8 14 1 0
BITMAP
1A
2C
1C
36
00
7E
43
03
01
3F
C1
83
C7
7D
ENDCHAR
STARTCHAR uni1EAC
ENCODING -1
SWIDTH 600 0
DWIDTH 10 0
BBX 10 19 0 -3
BITMAP
0400
0A00
1100
0000
0C00
0C00
1E00
1200
1200
3300
2100
3F00
6180
4080
4080
C0C0
0000
0C00
0C00
ENDCHAR
STARTCHAR uni1EAD
ENCODING -1
SWIDTH 600 0
DWIDTH 10 0
BBX 8 16 1 -3
BITMAP
08
14
22
00
7E
43
03
01
3F
C1
83
C7
7D
00
18
18
ENDCHAR
STARTCHAR uni1EAE
ENCODING -1
SWIDTH 600 0
DWIDTH 10 0
BBX 10 17 0 0
BITMAP
0100
0200
1100
0E00
0000
0C00
0C00
1E00
1200
1200
3300
2100
3F00
6180
4080
4080
C0C0
ENDCHAR
STARTCHAR uni1EAF
ENCODING -1
SWIDTH 600 0
DWIDTH 10 0
BBX 8 14 1 0
BITMAP
02
04
22
1C
00
7E
43
03
01
3F
C1
83
C7
7D
ENDCHAR
STARTCHAR uni1EB0
ENCODING -1
SWIDTH 600 0
DWIDTH 10 0
BBX 10 17 0 0
BITMAP
1000
0800
1100
0E00
0000
0C00
0C00
1E00
1200
1200
3300
2100
3F00
6180
4080
4080
C0C0
ENDCHAR
STARTCHAR uni1EB1
ENCODING -1
SWIDTH 600 0
DWIDTH 10 0
BBX 8 14 1 0
BITMAP
20
10
22
1C
00
7E
43
03
01
3F
C1
83
C7
7D
ENDCHAR
STARTCHAR uni1EB2
ENCODING -1
SWIDTH 600 0
DWIDTH 10 0
BBX 10 17 0 0
BITMAP
0600
0600
1100
0E00
0000
0C00
0C00
1E00
1200
1200
3300
2100
3F00
6180
4080
4080
C0C0
ENDCHAR
STARTCHAR uni1EB3
ENCODING -1
SWIDTH 600 0
DWIDTH 10 0
BBX 8 14 1 0
BITMAP
0C
0C
22
1C
00
7E
43
03
01
3F
C1
83
C7
7D
ENDCHAR
STARTCHAR uni1EB4
ENCODING -1
SWIDTH 600 0
DWIDTH 10 0
BBX 10 18 0 0
BITMAP
1D00
1700
0000
1100
0E00
0000
0C00
0C00
1E00
1200
1200
3300
2100
3F00
6180
4080
4080
C0C0
ENDCHAR
STARTCHAR uni1EB5
ENCODING -1
SWIDTH 600 0
DWIDTH 10 0
BBX 8 15 1 0
BITMAP
3A
2E
00
22
1C
00
7E
43
03
01
3F
C1
83
C7
7D
ENDCHAR
STARTCHAR uni1EB6
ENCODING -1
SWIDTH 600 0
DWIDTH 10 0
BBX 10 19 0 -3
BITMAP
2100
2300
1E00
0000
0C00
0C00
1E00
1200
1200
3300
2100
3F00
6180
4080
4080
C0C0
0000
0C00
0C00
ENDCHAR
STARTCHAR uni1EB7
ENCODING -1
SWIDTH 600 0
DWIDTH 10 0
BBX 8 16 1 -3
BITMAP
42
46
3C
00
7E
43
03
01
3F
C1
83
C7
7D
00
18
18
ENDCHAR
STARTCHAR uni1EB8
ENCODING -1
SWIDTH 600 0
DWIDTH 10 0
BBX 7 15 2 -3
BITMAP
FE
80
80
80
80
FE
80
80
80
80
80
FE
00
18
18
ENDCHAR
STARTCHAR uni1EB9
ENCODING -1
SWIDTH 600 0
DWIDTH 10 0
BBX 8 12 1 -3
BITMAP
3C
66
C3
C1
FF
80
C0
61
3E
00
18
18
ENDCHAR
STARTCHAR uni1EBA
ENCODING -1
SWIDTH 600 0
DWIDTH 10 0
BBX 7 17 2 0
BITMAP
38
08
10
10
00
FE
80
80
80
80
FE
80
80
80
80
80
FE
ENDCHAR
STARTCHAR uni1EBB
ENCODING -1
SWIDTH 600 0
DWIDTH 10 0
BBX 8 14 1 0
BITMAP
1C
04
08
08
00
3C
66
C3
C1
FF
80
C0
61
3E
ENDCHAR
STARTCHAR uni1EBC
ENCODING -1
SWIDTH 600 0
DWIDTH 10 0
BBX 7 16 2 0
BITMAP
32
5A
4C
00
FE
80
80
80
80
FE
80
80
80
80
80
FE
ENDCHAR
STARTCHAR uni1EBD
ENCODING -1
SWIDTH 600 0
DWIDTH 10 0
BBX 8 13 1 0
BITMAP
19
2D
26
00
3C
66
C3
C1
FF
80
C0
61
3E
ENDCHAR
STARTCHAR uni1EBE
ENCODING -1
SWIDTH 600 0
DWIDTH 10 0
BBX 7 17 2 0
BITMAP
02
04
38
6C
00
FE
80
80
80
80
FE
80
80
80
80
80
FE
ENDCHAR
STARTCHAR uni1EBF
ENCODING -1
SWIDTH 600 0
DWIDTH 10 0
BBX 8 14 1 0
BITMAP
01
02
1C
36
00
3C
66
C3
C1
FF
80
C0
61
3E
ENDCHAR
STARTCHAR uni1EC0
ENCODING -1
SWIDTH 600 0
DWIDTH 10 0
BBX 7 17 2 0
BITMAP
80
40
38
6C
00
FE
80
80
80
80
FE
80
80
80
80
80
FE
ENDCHAR
STARTCHAR uni1EC1
ENCODING -1
SWIDTH 600 0
DWIDTH 10 0
BBX 8 14 1 0
BITMAP
80
40
38
6C
00
3C
66
C3
C1
FF
80
C0
61
3E
ENDCHAR
STARTCHAR uni1EC2
ENCODING -1
SWIDTH 600 0
DWIDTH 10 0
BBX 7 18 2 0
BITMAP
06
02
04
38
6C
00
FE
80
80
80
80
FE
80
80
80
80
80
FE
ENDCHAR
STARTCHAR uni1EC3
ENCODING -1
SWIDTH 600 0
DWIDTH 10 0
BBX 8 15 1 0
BITMAP
03
01
02
1C
36
00
3C
66
C3
C1
FF
80
C0
61
3E
ENDCHAR
STARTCHAR uni1EC4
ENCODING -1
SWIDTH 600 0
DWIDTH 10 0
BBX 7 17 2 0
BITMAP
34
58
38
6C
00
FE
80
80
80
80
FE
80
80
80
80
80
FE
ENDCHAR
STARTCHAR uni1EC5
ENCODING -1
SWIDTH 600 0
DWIDTH 10 0
BBX 8 14 1 0
BITMAP
1A
2C
1C
36
00
3C
66
C3
C1
FF
80
C0
61
3E
ENDCHAR
STARTCHAR uni1EC6
ENCODING -1
SWIDTH 600 0
DWIDTH 10 0
BBX 7 19 2 -3
BITMAP
10
28
44
00
FE
80
80
80
80
FE
80
80
80
80
80
FE
00
18
18
ENDCHAR
STARTCHAR uni1EC7
ENCODING -1
SWIDTH 600 0
DWIDTH 10 0
BBX 8 16 1 -3
BITMAP
08
14
22
00
3C
66
C3
C1
FF
80
C0
61
3E
00
18
18
ENDCHAR
STARTCHAR uni1EC8
ENCODING -1
SWIDTH 600 0
DWIDTH 10 0
BBX 6 17 2 0
BITMAP
38
08
10
10
00
FC
20
20
20
20
20
20
20
20
20
20
FC
ENDCHAR
STARTCHAR uni1EC9
ENCODING -1
SWIDTH 600 0
DWIDTH 10 0
BBX 7 14 1 0
BITMAP
1C
04
08
08
00
70
10
10
10
10
10
10
10
FE
ENDCHAR
STARTCHAR uni1ECA
ENCODING -1
SWIDTH 600 0
DWIDTH 10 0
BBX 6 15 2 -3
BITMAP
FC
20
20
20
20
20
20
20
20
20
20
FC
00
30
30
ENDCHAR
STARTCHAR uni1ECB
ENCODING -1
SWIDTH 600 0
DWIDTH 10 0
BBX 7 16 1 -3
BITMAP
10
10
00
00
70
10
10
10
10
10
10
10
FE
00
18
18
ENDCHAR
STARTCHAR uni1ECC
ENCODING -1
SWIDTH 600 0
DWIDTH 10 0
BBX 8 15 1 -3
BITMAP
3C
66
42
C3
C3
C3
C3
C3
C3
42
66
3C
00
18
18
ENDCHAR
STARTCHAR uni1ECD
ENCODING -1
SWIDTH 600 0
DWIDTH 10 0
BBX 8 12 1 -3
BITMAP
3C
66
C3
C3
81
C3
C3
66
3C
00
18
18
ENDCHAR
STARTCHAR uni1ECE
ENCODING -1
SWIDTH 600 0
DWIDTH 10 0
BBX 8 17 1 0
BITMAP
1C
04
08
08
00
3C
66
42
C3
C3
C3
C3
C3
C3
42
66
3C
ENDCHAR
STARTCHAR uni1ECF
ENCODING -1
SWIDTH 600 0
DWIDTH 10 0
BBX 8 14 1 0
BITMAP
1C
04
08
08
00
3C
66
C3
C3
81
C3
C3
66
3C
ENDCHAR
STARTCHAR uni1ED0
ENCODING -1
SWIDTH 600 0
DWIDTH 10 0
BBX 8 17 1 0
BITMAP
01
02
1C
36
00
3C
66
42
C3
C3
C3
C3
C3
C3
42
66
3C
ENDCHAR
STARTCHAR uni1ED1
ENCODING -1
SWIDTH 600 0
DWIDTH 10 0
BBX 8 14 1 0
BITMAP
01
02
1C
36
00
3C
66
C3
C3
81
C3
C3
66
3C
ENDCHAR
STARTCHAR uni1ED2
ENCODING -1
SWIDTH 600 0
DWIDTH 10 0
BBX 8 17 1 0
BITMAP
80
40
38
6C
00
3C
66
42
C3
C3
C3
C3
C3
C3
42
66
3C
ENDCHAR
STARTCHAR uni1ED3
ENCODING -1
SWIDTH 600 0
DWIDTH 10 0
BBX 8 14 1 0
BITMAP
80
40
38
6C
00
3C
66
C3
C3
81
C3
C3
66
3C
ENDCHAR
STARTCHAR uni1ED4
ENCODING -1
SWIDTH 600 0
DWIDTH 10 0
BBX 8 18 1 0
BITMAP
03
01
02
1C
36
00
3C
66
42
C3
C3
C3
C3
C3
C3
42
66
3C
ENDCHAR
STARTCHAR uni1ED5
ENCODING -1
SWIDTH 600 0
DWIDTH 10 0
BBX 8 15 1 0
BITMAP
03
01
02
1C
36
00
3C
66
C3
C3
81
C3
C3
66
3C
ENDCHAR
STARTCHAR uni1ED6
ENCODING -1
SWIDTH 600 0
DWIDTH 10 0
BBX 8 17 1 0
BITMAP
1A
2C
1C
36
00
3C
66
42
C3
C3
C3
C3
C3
C3
42
66
3C
ENDCHAR
STARTCHAR uni1ED7
ENCODING -1
SWIDTH 600 0
DWIDTH 10 0
BBX 8 14 1 0
BITMAP
1A
2C
1C
36
00
3C
66
C3
C3
81
C3
C3
66
3C
ENDCHAR
STARTCHAR uni1ED8
ENCODING -1
SWIDTH 600 0
DWIDTH 10 0
BBX 8 19 1 -3
BITMAP
08
14
22
00
3C
66
42
C3
C3
C3
C3
C3
C3
42
66
3C
00
18
18
ENDCHAR
STARTCHAR uni1ED9
ENCODING -1
SWIDTH 600 0
DWIDTH 10 0
BBX 8 16 1 -3
BITMAP
08
14
22
00
3C
66
C3
C3
81
C3
C3
66
3C
00
18
18
ENDCHAR
STARTCHAR uni1EDA
ENCODING -1
SWIDTH 600 0
DWIDTH 10 0
BBX 9 16 1 0
BITMAP
0C00
0800
1000
0180
3D80
6700
4200
C300
C300
C300
C300
C300
C300
4200
6600
3C00
ENDCHAR
STARTCHAR uni1EDB
ENCODING -1
SWIDTH 600 0
DWIDTH 10 0
BBX 9 13 1 0
BITMAP
0C00
0800
1000
0180
3D80
6700
C300
C300
8100
C300
C300
6600
3C00
ENDCHAR
STARTCHAR uni1EDC
ENCODING -1
SWIDTH 600 0
DWIDTH 10 0
BBX 9 16 1 0
BITMAP
3000
1000
0800
0180
3D80
6700
4200
C300
C300
C300
C300
C300
C300
4200
6600
3C00
ENDCHAR
STARTCHAR uni1EDD
ENCODING -1
SWIDTH 600 0
DWIDTH 10 0
BBX 9 13 1 0
BITMAP
3000
1000
0800
0180
3D80
6700
C300
C300
8100
C300
C300
6600
3C00
ENDCHAR
STARTCHAR uni1EDE
ENCODING -1
SWIDTH 600 0
DWIDTH 10 0
BBX 9 17 1 0
BITMAP
1C00
0400
0800
0800
0180
3D80
6700
4200
C300
C300
C300
C300
C300
C300
4200
6600
3C00
ENDCHAR
STARTCHAR uni1EDF
ENCODING -1
SWIDTH 600 0
DWIDTH 10 0
BBX 9 14 1 0
BITMAP
1C00
0400
0800
0800
0180
3D80
6700
C300
C300
8100
C300
C300
6600
3C00
ENDCHAR
STARTCHAR uni1EE0
ENCODING -1
SWIDTH 600 0
DWIDTH 10 0
BBX 9 16 1 0
BITMAP
3200
5A00
4C00
0180
3D80
6700
4200
C300
C300
C300
C300
C300
C300
4200
6600
3C00
ENDCHAR
STARTCHAR uni1EE1
ENCODING -1
SWIDTH 600 0
DWIDTH 10 0
BBX 9 13 1 0
BITMAP
3200
5A00
4C00
0180
3D80
6700
C300
C300
8100
C300
C300
6600
3C00
ENDCHAR
STARTCHAR uni1EE2
ENCODING -1
SWIDTH 600 0
DWIDTH 10 0
BBX 9 16 1 -3
BITMAP
0180
3D80
6700
4200
C300
C300
C300
C300
C300
C300
4200
6600
3C00
0000
1800
1800
ENDCHAR
STARTCHAR uni1EE3
ENCODING -1
SWIDTH 600 0
DWIDTH 10 0
BBX 9 13 1 -3
BITMAP
0180
3D80
6700
C300
C300
8100
C300
C300
6600
3C00
0000
1800
1800
ENDCHAR
STARTCHAR uni1EE4
ENCODING -1
SWIDTH 600 0
DWIDTH 10 0
BBX 8 15 1 -3
BITMAP
81
81
81
81
81
81
81
81
C3
C3
66
3C
00
18
18
ENDCHAR
STARTCHAR uni1EE5
ENCODING -1
SWIDTH 600 0
DWIDTH 10 0
BBX 8 12 1 -3
BITMAP
81
81
81
81
81
81
C3
C7
7D
00
18
18
ENDCHAR
STARTCHAR uni1EE6
ENCODING -1
SWIDTH 600 0
DWIDTH 10 0
BBX 8 17 1 0
BITMAP
1C
04
08
08
00
81
81
81
81
81
81
81
81
C3
C3
66
3C
ENDCHAR
STARTCHAR uni1EE7
ENCODING -1
SWIDTH 600 0
DWIDTH 10 0
BBX 8 14 1 0
BITMAP
1C
04
08
08
00
81
81
81
81
81
81
C3
C7
7D
ENDCHAR
STARTCHAR uni1EE8
ENCODING -1
SWIDTH 600 0
DWIDTH 10 0
BBX 9 16 1 0
BITMAP
1800
1000
2000
0180
8380
8300
8300
8200
8200
8200
8200
8200
8200
C600
4600
7C00
ENDCHAR
STARTCHAR uni1EE9
ENCODING -1
SWIDTH 600 0
DWIDTH 10 0
BBX 9 13 1 0
BITMAP
1800
1000
2000
0180
8380
8300
8200
8200
8200
8200
8600
C600
7A00
ENDCHAR
STARTCHAR uni1EEA
ENCODING -1
SWIDTH 600 0
DWIDTH 10 0
BBX 9 16 1 0
BITMAP
6000
2000
1000
0180
8380
8300
8300
8200
8200
8200
8200
8200
8200
C600
4600
7C00
ENDCHAR
STARTCHAR uni1EEB
ENCODING -1
SWIDTH 600 0
DWIDTH 10 0
BBX 9 13 1 0
BITMAP
6000
2000
1000
0180
8380
8300
8200
8200
8200
8200
8600
C600
7A00
ENDCHAR
STARTCHAR uni1EEC
ENCODING -1
SWIDTH 600 0
DWIDTH 10 0
BBX 9 17 1 0
BITMAP
3800
0800
1000
1000
0180
8380
8300
8300
8200
8200
8200
8200
8200
8200
C600
4600
7C00
ENDCHAR
STARTCHAR uni1EED
ENCODING -1
SWIDTH 600 0
DWIDTH 10 0
BBX 9 14 1 0
BITMAP
3800
0800
1000
1000
0180
8380
8300
8200
8200
8200
8200
8600
C600
7A00
ENDCHAR
STARTCHAR uni1EEE
ENCODING -1
SWIDTH 600 0
DWIDTH 10 0
BBX 9 16 1 0
BITMAP
3200
5A00
4C00
0180
8380
8300
8300
8200
8200
8200
8200
8200
8200
C600
4600
7C00
ENDCHAR
STARTCHAR uni1EEF
ENCODING -1
SWIDTH 600 0
DWIDTH 10 0
BBX 9 13 1 0
BITMAP
3200
5A00
4C00
0180
8380
8300
8200
8200
8200
8200
8600
C600
7A00
ENDCHAR
STARTCHAR uni1EF0
ENCODING -1
SWIDTH 600 0
DWIDTH 10 0
BBX 9 16 1 -3
BITMAP
0180
8380
8300
8300
8200
8200
8200
8200
8200
8200
C600
4600
7C00
0000
3000
3000
ENDCHAR
STARTCHAR uni1EF1
ENCODING -1
SWIDTH 600 0
DWIDTH 10 0
BBX 9 13 1 -3
BITMAP
0180
8380
8300
8200
8200
8200
8200
8600
C600
7A00
0000
3000
3000
ENDCHAR
STARTCHAR uni1EF4
ENCODING -1
SWIDTH 600 0
DWIDTH 10 0
BBX 9 15 0 -3
BITMAP
C080
4180
6100
2200
1200
1400
0C00
0800
0800
0800
0800
0800
0000
0C00
0C00
ENDCHAR
STARTCHAR uni1EF5
ENCODING -1
SWIDTH 600 0
DWIDTH 10 0
BBX 8 13 1 -4
BITMAP
C3
42
42
66
24
24
3C
18
18
18
13
33
E0
ENDCHAR
STARTCHAR uni1EF6
ENCODING -1
SWIDTH 600 0
DWIDTH 10 0
BBX 9 17 0 0
BITMAP
0E00
0200
0400
0400
0000
C080
4180
6100
2200
1200
1400
0C00
0800
0800
0800
0800
0800
ENDCHAR
STARTCHAR uni1EF7
ENCODING -1
SWIDTH 600 0
DWIDTH 10 0
BBX 8 18 1 -4
BITMAP
1C
04
08
08
00
C3
42
42
66
24
24
3C
18
18
18
10
30
E0
ENDCHAR
STARTCHAR uni1EF8
ENCODING -1
SWIDTH 600 0
DWIDTH 10 0
BBX 9 16 0 0
BITMAP
1900
2D00
2600
0000
C080
4180
6100
2200
1200
1400
0C00
0800
0800
0800
0800
0800
ENDCHAR
STARTCHAR uni1EF9
ENCODING -1
SWIDTH 600 0
DWIDTH 10 0
BBX 8 17 1 -4
BITMAP
32
5A
4C
00
C3
42
42
66
24
24
3C
18
18
18
10
30
E0
ENDCHAR
STARTCHAR dong
ENCODING -1
SWIDTH 600 0
DWIDTH 10 0
BBX 9 15 1 -2
BITMAP
0100
0100
1F80
0100
3D00
6700
C300
C100
8100
C100
C300
6700
3D00
0000
FF00
ENDCHAR
STARTCHAR uni030F
ENCODING -1
SWIDTH 600 0
DWIDTH 10 0
BBX 6 3 2 10
BITMAP
D8
48
24
ENDCHAR
STARTCHAR glyph884
ENCODING -1
SWIDTH 600 0
DWIDTH 10 0
BBX 6 4 1 10
BITMAP
04
08
70
D8
ENDCHAR
STARTCHAR glyph885
ENCODING -1
SWIDTH 600 0
DWIDTH 10 0
BBX 6 4 2 10
BITMAP
80
40
38
6C
ENDCHAR
STARTCHAR glyph886
ENCODING -1
SWIDTH 600 0
DWIDTH 10 0
BBX 6 5 2 10
BITMAP
0C
04
08
70
D8
ENDCHAR
STARTCHAR glyph887
ENCODING -1
SWIDTH 600 0
DWIDTH 10 0
BBX 5 4 2 10
BITMAP
68
B0
70
D8
ENDCHAR
STARTCHAR glyph888
ENCODING -1
SWIDTH 600 0
DWIDTH 10 0
BBX 5 4 2 10
BITMAP
08
10
88
70
ENDCHAR
STARTCHAR glyph889
ENCODING -1
SWIDTH 600 0
DWIDTH 10 0
BBX 5 4 2 10
BITMAP
80
40
88
70
ENDCHAR
STARTCHAR glyph890
ENCODING -1
SWIDTH 600 0
DWIDTH 10 0
BBX 5 4 2 10
BITMAP
30
30
88
70
ENDCHAR
STARTCHAR glyph891
ENCODING -1
SWIDTH 600 0
DWIDTH 10 0
BBX 5 5 2 10
BITMAP
E8
B8
00
88
70
ENDCHAR
STARTCHAR glyph892
ENCODING -1
SWIDTH 600 0
DWIDTH 10 0
BBX 2 3 4 -3
BITMAP
40
40
C0
ENDCHAR
STARTCHAR glyph893
ENCODING -1
SWIDTH 600 0
DWIDTH 10 0
BBX 3 4 3 -3
BITMAP
20
20
20
E0
ENDCHAR
STARTCHAR glyph894
ENCODING -1
SWIDTH 600 0
DWIDTH 10 0
BBX 3 4 3 -3
BITMAP
20
20
20
E0
ENDCHAR
STARTCHAR uni0162
ENCODING -1
SWIDTH 600 0
DWIDTH 10 0
BBX 8 16 1 -4
BITMAP
FF
10
10
10
10
10
10
10
10
10
10
10
10
18
08
30
ENDCHAR
STARTCHAR uni0163
ENCODING -1
SWIDTH 600 0
DWIDTH 10 0
BBX 7 15 2 -4
BITMAP
20
20
FE
20
20
20
20
20
20
30
1E
08
0C
04
18
ENDCHAR
ENDFONT
